comic-neue_light.sfdir
StartChar: exclam
Encoding: 33 33 4
Width: 352
GlyphClass: 2
Flags: W
LayerCount: 2
Back
Fore
SplineSet
113 39 m 1,0,-1
 113 41 l 1,1,-1
 117 82 l 2,2,3
 119 98 119 98 121 109.5 c 128,-1,4
 123 121 123 121 123 123 c 0,5,6
 127 156 127 156 160 156 c 2,7,-1
 166 156 l 1,8,9
 182 152 182 152 193 139 c 0,10,11
 203 127 203 127 199 111 c 1,12,-1
 188 23 l 1,13,-1
 188 20 l 1,14,15
 184 8 184 8 174 1 c 128,-1,16
 164 -6 164 -6 152 -6 c 2,17,-1
 141 -6 l 1,18,19
 106 4 106 4 113 39 c 1,0,-1
129 342 m 1,20,-1
 129 356 l 1,21,-1
 131 1348 l 1,22,-1
 131 1370 l 2,23,24
 131 1386 131 1386 143.5 1398.5 c 128,-1,25
 156 1411 156 1411 172 1411 c 256,26,27
 188 1411 188 1411 200.5 1398.5 c 128,-1,28
 213 1386 213 1386 213 1370 c 1,29,-1
 211 1348 l 1,30,-1
 213 1348 l 1,31,-1
 211 346 l 1,32,-1
 211 342 l 2,33,34
 211 326 211 326 198.5 313.5 c 128,-1,35
 186 301 186 301 170 301 c 256,36,37
 154 301 154 301 142.5 313.5 c 128,-1,38
 131 326 131 326 129 342 c 1,20,-1
EndSplineSet
EndChar
StartChar: quotedbl
Encoding: 34 34 5
Width: 561
GlyphClass: 2
Flags: W
LayerCount: 2
Back
Fore
SplineSet
141 1061 m 2,0,-1
 141 1374 l 2,1,2
 141 1390 141 1390 152.5 1400.5 c 128,-1,3
 164 1411 164 1411 180 1411 c 256,4,5
 196 1411 196 1411 207.5 1401 c 128,-1,6
 219 1391 219 1391 219 1374 c 2,7,-1
 219 1061 l 2,8,9
 219 1045 219 1045 207.5 1034.5 c 128,-1,10
 196 1024 196 1024 180 1024 c 256,11,12
 164 1024 164 1024 152.5 1034 c 128,-1,13
 141 1044 141 1044 141 1061 c 2,0,-1
344 1061 m 2,14,-1
 344 1374 l 2,15,16
 344 1390 344 1390 355.5 1400.5 c 128,-1,17
 367 1411 367 1411 383 1411 c 256,18,19
 399 1411 399 1411 409.5 1401 c 128,-1,20
 420 1391 420 1391 420 1374 c 2,21,-1
 420 1061 l 2,22,23
 420 1045 420 1045 409.5 1034.5 c 128,-1,24
 399 1024 399 1024 383 1024 c 256,25,26
 367 1024 367 1024 355.5 1034 c 128,-1,27
 344 1044 344 1044 344 1061 c 2,14,-1
EndSplineSet
EndChar
StartChar: numbersign
Encoding: 35 35 86
Width: 736
Flags: MW
HStem: 0 21G<171 181 391 401> 219 37<75 227 80 216 264 436 80 254 484 624> 447 38<121.5 294 127 282 127 321 331 502 551 671> 447 250<121.5 374.5 127 374.5 321 374.5 364.5 374.5 364.5 502 364.5 540 584 594 364.5 671>
LayerCount: 2
Back
Fore
SplineSet
474 219 m 1xe0
 414 14 l 2
 411 5 405 0 397 0 c 0
 385 0 378 8 378 19 c 0
 378 22 379 27 381 34 c 2
 436 219 l 1
 254 219 l 1
 195 14 l 2
 192 5 185 0 177 0 c 0
 165 0 158 8 158 17 c 0
 158 22 159 26 161 33 c 2
 216 219 l 1
 80 219 l 2
 70 219 61 227 61 238 c 0
 61 248 70 256 80 256 c 2
 227 256 l 1
 282 447 l 1
 127 447 l 2
 116 447 108 455 108 466 c 0
 108 476 116 485 127 485 c 2
 294 485 l 1xe0
 351 684 l 2
 353 692 360 697 369 697 c 0xd0
 380 697 387 689 387 679 c 0
 387 675 386 671 384 665 c 2
 331 485 l 1
 513 485 l 1xe0
 571 684 l 2
 573 692 580 697 588 697 c 0xd0
 600 697 607 688 607 681 c 0
 607 677 606 672 604 666 c 2
 551 485 l 1
 671 485 l 2
 681 485 690 476 690 466 c 0
 690 455 681 447 671 447 c 2
 540 447 l 1
 484 256 l 1
 624 256 l 2
 634 256 643 248 643 238 c 0
 643 227 634 219 624 219 c 2
 474 219 l 1xe0
447 256 m 1
 502 447 l 1
 321 447 l 1
 264 256 l 1
 447 256 l 1
EndSplineSet
EndChar
StartChar: dollar
Encoding: 36 36 7
Width: 1228
GlyphClass: 2
Flags: W
LayerCount: 2
Back
Fore
SplineSet
131 303 m 0,0,1
 131 321 131 321 144.5 333.5 c 128,-1,2
 158 346 158 346 174 346 c 0,3,4
 207 346 207 346 217 313 c 1,5,-1
 219 311 l 1,6,7
 258 202 258 202 360 137 c 1,8,9
 456 80 456 80 571 68 c 1,10,-1
 594 66 l 1,11,-1
 594 707 l 1,12,-1
 580 711 l 1,13,14
 410 766 410 766 313 846 c 1,15,16
 196 946 196 946 209 1077 c 1,17,18
 232 1356 232 1356 575 1393 c 2,19,-1
 594 1395 l 1,20,-1
 594 1509 l 2,21,22
 594 1525 594 1525 604 1535.5 c 128,-1,23
 614 1546 614 1546 631 1546 c 0,24,25
 647 1546 647 1546 658.5 1536 c 128,-1,26
 670 1526 670 1526 670 1509 c 2,27,-1
 670 1397 l 1,28,-1
 713 1395 l 1,29,30
 746 1395 746 1395 790 1389.5 c 128,-1,31
 834 1384 834 1384 880 1370 c 128,-1,32
 926 1356 926 1356 970 1331.5 c 128,-1,33
 1014 1307 1014 1307 1044 1268 c 1,34,35
 1089 1213 1089 1213 1094 1133 c 1,36,-1
 1094 1130 l 1,37,-1
 1094 1128 l 2,38,39
 1094 1114 1094 1114 1083.5 1104 c 128,-1,40
 1073 1094 1073 1094 1059 1094 c 0,41,42
 1026 1094 1026 1094 1022 1124 c 1,43,-1
 1022 1126 l 1,44,45
 1012 1183 1012 1183 981 1225 c 1,46,47
 928 1288 928 1288 815 1315 c 0,48,49
 770 1325 770 1325 736 1329 c 128,-1,50
 702 1333 702 1333 694 1333 c 2,51,-1
 670 1335 l 1,52,-1
 670 770 l 1,53,-1
 684 766 l 1,54,55
 905 700 905 700 1006 600 c 0,56,57
 1106 502 1106 502 1100 365 c 1,58,59
 1094 177 1094 177 920 74 c 1,60,61
 854 33 854 33 788.5 17.5 c 128,-1,62
 723 2 723 2 688 -2 c 2,63,-1
 670 -4 l 1,64,-1
 670 -123 l 2,65,66
 670 -139 670 -139 658.5 -149.5 c 128,-1,67
 647 -160 647 -160 631 -160 c 256,68,69
 615 -160 615 -160 604.5 -149.5 c 128,-1,70
 594 -139 594 -139 594 -123 c 2,71,-1
 594 -6 l 1,72,-1
 575 -4 l 1,73,74
 417 8 417 8 299.5 85 c 128,-1,75
 182 162 182 162 135 283 c 1,76,-1
 135 285 l 1,77,78
 131 297 131 297 131 303 c 0,0,1
299 1063 m 1,79,80
 287 899 287 899 567 801 c 1,81,-1
 594 791 l 1,82,-1
 594 1329 l 1,83,-1
 569 1325 l 2,84,85
 422 1302 422 1302 354 1221 c 1,86,87
 321 1180 321 1180 312 1138 c 128,-1,88
 303 1096 303 1096 299 1065 c 1,89,-1
 299 1063 l 1,79,80
670 68 m 1,90,-1
 692 72 l 1,91,92
 733 78 733 78 785.5 93.5 c 128,-1,93
 838 109 838 109 887 143 c 0,94,95
 1004 225 1004 225 1010 375 c 0,96,97
 1010 398 1010 398 1007 432.5 c 128,-1,98
 1004 467 1004 467 975 509 c 128,-1,99
 946 551 946 551 881.5 594 c 128,-1,100
 817 637 817 637 696 676 c 1,101,-1
 670 686 l 1,102,-1
 670 68 l 1,90,-1
EndSplineSet
EndChar
StartChar: percent
Encoding: 37 37 96
Width: 718
Flags: MW
HStem: -8 35<506 558.5> 0 21G<175.5 183> 219 35<506 558.5> 440 35<167 219 167 229> 667 35<167 219>
VStem: 61 36<544 597 544 607> 289 35<544 597> 401 36<96 149 96 159> 628 36<96 149>
LayerCount: 2
Back
Fore
SplineSet
193 440 m 0xbf80
 121 440 61 499 61 571 c 0
 61 643 121 702 193 702 c 0
 265 702 324 643 324 571 c 0
 324 499 265 440 193 440 c 0xbf80
193 667 m 0
 141 667 97 623 97 571 c 0
 97 517 141 475 193 475 c 0
 245 475 289 517 289 571 c 0
 289 623 245 667 193 667 c 0
532 -8 m 0
 461 -8 401 51 401 123 c 0
 401 195 461 254 532 254 c 0
 604 254 664 195 664 123 c 0
 664 51 604 -8 532 -8 c 0
532 219 m 0
 480 219 437 175 437 123 c 0
 437 69 480 27 532 27 c 0
 585 27 628 69 628 123 c 0
 628 175 585 219 532 219 c 0
564 674 m 2
 195 8 l 2
 192 3 186 0 180 0 c 0x7f80
 171 0 165 7 165 15 c 0
 165 17 166 22 169 27 c 2
 536 690 l 2
 539 696 543 698 549 698 c 0
 558 698 566 691 566 682 c 0
 566 679 565 676 564 674 c 2
EndSplineSet
EndChar
StartChar: ampersand
Encoding: 38 38 100
Width: 650
Flags: MW
HStem: -4 35<230 274.5 230 275.5> 0 21G<576.5 583.5> 663 35<271 323.5>
VStem: 62 36<127.5 228 127.5 235> 153 35<534 590 534 597.5> 404 34<542 587>
LayerCount: 2
Back
Fore
SplineSet
497 270 m 0xbc
 503 290 506 296 519 296 c 0
 528 296 535 289 535 279 c 0
 535 278 534 273 531 262 c 0
 520 223 505 185 488 154 c 1
 592 29 l 2
 595 25 597 22 597 18 c 0
 597 8 588 0 579 0 c 0x7c
 574 0 569 2 565 6 c 2
 468 121 l 1
 384 3 288 -4 263 -4 c 0
 167 -4 62 66 62 178 c 0
 62 292 150 345 238 393 c 1
 205 431 153 498 153 561 c 0
 153 634 222 698 296 698 c 0
 370 698 438 633 438 564 c 0
 438 485 392 438 294 385 c 1
 463 183 l 1
 482 219 488 243 497 270 c 0xbc
188 561 m 0
 188 507 238 444 271 412 c 1
 403 477 404 522 404 562 c 0
 404 612 351 663 296 663 c 0
 246 663 188 619 188 561 c 0
263 31 m 0xbc
 286 31 372 39 445 150 c 1
 263 368 l 1
 170 319 98 278 98 178 c 0
 98 77 197 31 263 31 c 0xbc
EndSplineSet
EndChar
StartChar: quotesingle
Encoding: 39 39 113
Width: 179
Flags: MW
HStem: 521 21G<88 98> 678 20G<88 98>
VStem: 74 38<540 679>
LayerCount: 2
Back
Fore
SplineSet
93 521 m 0
 83 521 74 529 74 540 c 2
 74 679 l 2
 74 690 83 698 93 698 c 0
 103 698 112 690 112 679 c 2
 112 540 l 2
 112 529 103 521 93 521 c 0
EndSplineSet
EndChar
StartChar: parenleft
Encoding: 40 40 11
Width: 724
GlyphClass: 2
Flags: W
LayerCount: 2
Back
Fore
SplineSet
133 719 m 0,0,1
 133 912 133 912 195 1096 c 0,2,3
 220 1168 220 1168 253.5 1239.5 c 128,-1,4
 287 1311 287 1311 330 1378 c 0,5,6
 406 1495 406 1495 467 1557.5 c 128,-1,7
 528 1620 528 1620 532 1624 c 1,8,9
 548 1632 548 1632 557 1632 c 0,10,11
 575 1632 575 1632 586 1618 c 0,12,13
 596 1606 596 1606 594 1590.5 c 128,-1,14
 592 1575 592 1575 582 1565 c 1,15,-1
 580 1565 l 1,16,17
 578 1563 578 1563 560.5 1546.5 c 128,-1,18
 543 1530 543 1530 517.5 1500 c 128,-1,19
 492 1470 492 1470 458 1428 c 128,-1,20
 424 1386 424 1386 391 1333 c 0,21,22
 309 1204 309 1204 266 1069 c 1,23,24
 209 899 209 899 209 719 c 0,25,26
 209 629 209 629 221 540 c 128,-1,27
 233 451 233 451 260 362 c 0,28,29
 303 221 303 221 377 86 c 1,30,31
 443 -31 443 -31 496 -93.5 c 128,-1,32
 549 -156 549 -156 553 -160 c 0,33,34
 563 -170 563 -170 563 -186.5 c 128,-1,35
 563 -203 563 -203 553 -213 c 0,36,37
 542 -225 542 -225 526 -225 c 0,38,39
 508 -225 508 -225 500 -213 c 1,40,41
 471 -184 471 -184 440 -145 c 0,42,43
 413 -112 413 -112 380.5 -64 c 128,-1,44
 348 -16 348 -16 313 45 c 1,45,46
 274 117 274 117 242.5 189.5 c 128,-1,47
 211 262 211 262 188 338 c 0,48,49
 133 524 133 524 133 719 c 0,0,1
EndSplineSet
EndChar
StartChar: parenright
Encoding: 41 41 12
Width: 724
GlyphClass: 2
Flags: W
LayerCount: 2
Back
Fore
SplineSet
129 1590.5 m 128,-1,1
 131 1575 131 1575 141 1565 c 1,2,-1
 143 1565 l 1,3,4
 145 1563 145 1563 162.5 1546.5 c 128,-1,5
 180 1530 180 1530 205.5 1500 c 128,-1,6
 231 1470 231 1470 265 1428 c 128,-1,7
 299 1386 299 1386 332 1333 c 0,8,9
 414 1204 414 1204 457 1069 c 1,10,11
 514 899 514 899 514 719 c 0,12,13
 514 629 514 629 502 540 c 128,-1,14
 490 451 490 451 463 362 c 0,15,16
 420 221 420 221 346 86 c 1,17,18
 280 -31 280 -31 227 -93.5 c 128,-1,19
 174 -156 174 -156 170 -160 c 0,20,21
 160 -170 160 -170 160 -186.5 c 128,-1,22
 160 -203 160 -203 170 -213 c 0,23,24
 181 -225 181 -225 197 -225 c 0,25,26
 215 -225 215 -225 223 -213 c 1,27,28
 252 -184 252 -184 283 -145 c 0,29,30
 310 -112 310 -112 342.5 -64 c 128,-1,31
 375 -16 375 -16 410 45 c 1,32,33
 449 117 449 117 480.5 189.5 c 128,-1,34
 512 262 512 262 535 338 c 0,35,36
 590 524 590 524 590 719 c 0,37,38
 590 912 590 912 528 1096 c 0,39,40
 503 1168 503 1168 469.5 1239.5 c 128,-1,41
 436 1311 436 1311 393 1378 c 0,42,43
 317 1495 317 1495 256 1557.5 c 128,-1,44
 195 1620 195 1620 191 1624 c 1,45,46
 175 1632 175 1632 166 1632 c 0,47,48
 148 1632 148 1632 137 1618 c 0,49,0
 127 1606 127 1606 129 1590.5 c 128,-1,1
EndSplineSet
EndChar
StartChar: asterisk
Encoding: 42 42 105
Width: 387
Flags: MW
HStem: 457 181<86.5 113> 678 20G<191.5 201>
LayerCount: 2
Back
Fore
SplineSet
197 564 m 1
 197 564 169 513 160 503 c 2
 122 463 l 2
 119 460 115 457 111 457 c 0
 102 457 94 465 94 475 c 0
 94 480 95 485 98 489 c 2
 132 525 l 2
 145 541 185 567 188 570 c 1
 185 570 128 581 117 588 c 0
 105 593 94 600 83 605 c 1
 84 605 l 1
 77 609 74 615 74 621 c 0
 74 628 82 638 91 638 c 0
 95 638 98 637 101 636 c 2
 130 621 l 1
 129 621 l 1
 146 612 191 577 191 577 c 1
 191 577 178 638 178 652 c 2
 178 680 l 2
 178 690 187 698 196 698 c 0
 206 698 214 690 214 680 c 2
 214 652 l 2
 214 638 201 577 201 577 c 1
 201 577 246 612 263 621 c 1
 262 621 l 1
 291 636 l 2
 294 637 296 638 301 638 c 0
 311 638 318 628 318 621 c 0
 318 615 315 609 309 605 c 1
 310 605 l 1
 274 588 l 2
 262 580 208 570 203 570 c 1
 206 569 243 543 260 525 c 2
 294 489 l 2
 297 485 298 480 298 475 c 0
 298 465 290 457 282 457 c 0
 276 457 272 460 269 463 c 2
 233 503 l 2
 223 513 197 564 197 564 c 1
EndSplineSet
EndChar
StartChar: plus
Encoding: 43 43 104
Width: 433
Flags: MW
HStem: 89 21G<216 225.5> 233 36<70 203 75 203 238 368 75 238> 383 20G<216 225.5>
VStem: 203 35<106 233 269 386>
LayerCount: 2
Back
Fore
SplineSet
368 233 m 2
 238 233 l 1
 238 106 l 2
 238 97 230 89 221 89 c 0
 211 89 203 97 203 106 c 2
 203 233 l 1
 75 233 l 2
 65 233 57 242 57 251 c 0
 57 261 65 269 75 269 c 2
 203 269 l 1
 203 386 l 2
 203 395 211 403 221 403 c 0
 230 403 238 395 238 386 c 2
 238 269 l 1
 368 269 l 2
 377 269 385 261 385 251 c 0
 385 242 377 233 368 233 c 2
EndSplineSet
EndChar
StartChar: comma
Encoding: 44 44 15
Width: 501
GlyphClass: 2
Flags: W
LayerCount: 2
Back
Fore
SplineSet
186 -150 m 1,0,-1
 246 0 l 1,1,-1
 233 10 l 1,2,3
 210 30 210 30 215 66 c 0,4,5
 219 95 219 95 238.5 114 c 128,-1,6
 258 133 258 133 281 133 c 0,7,8
 301 133 301 133 313 119 c 0,9,10
 331 99 331 99 328 72 c 1,11,-1
 326 70 l 1,12,13
 326 66 326 66 324 56.5 c 128,-1,14
 322 47 322 47 319 41 c 0,15,16
 315 31 315 31 302 -3 c 128,-1,17
 289 -37 289 -37 274.5 -73 c 128,-1,18
 260 -109 260 -109 249 -138 c 2,19,-1
 238 -168 l 1,20,21
 229 -186 229 -186 213 -186 c 0,22,23
 209 -186 209 -186 207 -185 c 128,-1,24
 205 -184 205 -184 203 -184 c 0,25,26
 180 -174 180 -174 186 -150 c 1,0,-1
EndSplineSet
EndChar
StartChar: hyphen
Encoding: 45 45 112
Width: 431
Flags: MW
HStem: 232 36<87.5 350 92 350>
LayerCount: 2
Back
Fore
SplineSet
350 232 m 2
 92 232 l 2
 83 232 75 241 75 250 c 0
 75 259 83 268 92 268 c 2
 350 268 l 2
 359 268 368 259 368 250 c 0
 368 241 359 232 350 232 c 2
EndSplineSet
EndChar
StartChar: period
Encoding: 46 46 107
Width: 204
Flags: MW
HStem: 0 21G<92.5 107.5> 46 20G<99 113.5>
VStem: 76 54<28.5 38.5>
LayerCount: 2
Back
Fore
SplineSet
99 0 m 0
 86 0 76 14 76 29 c 0
 76 48 91 66 107 66 c 0
 120 66 130 53 130 39 c 0
 130 18 116 0 99 0 c 0
EndSplineSet
EndChar
StartChar: slash
Encoding: 47 47 74
Width: 535
Flags: MW
HStem: -2 21G<85.5 93> 680 20G<454 463>
LayerCount: 2
Back
Fore
SplineSet
474 672 m 2
 105 6 l 2
 101 -1 96 -2 90 -2 c 0
 81 -2 71 6 71 17 c 0
 71 19 72 24 75 29 c 2
 442 692 l 2
 445 698 451 700 457 700 c 0
 469 700 476 692 476 680 c 0
 476 677 475 674 474 672 c 2
EndSplineSet
EndChar
StartChar: zero
Encoding: 48 48 54
Width: 604
Flags: MW
HStem: -3 36<240.5 354 240.5 365> 658 36<263.5 375.5>
VStem: 71 35<252 419 252 424> 512 34<271.5 439>
LayerCount: 2
Back
Fore
SplineSet
297 -3 m 0
 166 -3 71 151 71 327 c 0
 71 521 181 694 321 694 c 0
 452 694 546 541 546 363 c 0
 546 166 433 -3 297 -3 c 0
321 658 m 0
 206 658 106 509 106 329 c 0
 106 175 184 33 297 33 c 0
 411 33 512 182 512 361 c 0
 512 517 430 658 321 658 c 0
EndSplineSet
EndChar
StartChar: one
Encoding: 49 49 20
Width: 802
GlyphClass: 2
Flags: W
LayerCount: 2
Back
Fore
SplineSet
126 1058.5 m 128,-1,1
 125 1075 125 1075 135 1087 c 2,2,-1
 408 1380 l 1,3,4
 416 1392 416 1392 434 1393 c 0,5,6
 444 1393 444 1393 449 1391 c 0,7,8
 474 1381 474 1381 473 1354 c 2,9,-1
 453 76 l 1,10,-1
 629 76 l 2,11,12
 645 76 645 76 656.5 64.5 c 128,-1,13
 668 53 668 53 668 37 c 256,14,15
 668 21 668 21 656.5 10.5 c 128,-1,16
 645 0 645 0 629 0 c 2,17,-1
 168 0 l 2,18,19
 152 0 152 0 141.5 10 c 128,-1,20
 131 20 131 20 131 37 c 0,21,22
 131 53 131 53 141.5 64.5 c 128,-1,23
 152 76 152 76 168 76 c 2,24,-1
 377 76 l 1,25,-1
 395 1255 l 1,26,-1
 190 1034 l 2,27,28
 180 1022 180 1022 164 1022 c 0,29,30
 152 1022 152 1022 137 1032 c 1,31,0
 127 1042 127 1042 126 1058.5 c 128,-1,1
EndSplineSet
EndChar
StartChar: two
Encoding: 50 50 21
Width: 1064
GlyphClass: 2
Flags: W
LayerCount: 2
Back
Fore
SplineSet
131 1151.5 m 128,-1,1
 129 1167 129 1167 139 1180 c 0,2,3
 151 1196 151 1196 187 1233 c 128,-1,4
 223 1270 223 1270 283 1309 c 0,5,6
 408 1389 408 1389 545 1389 c 0,7,8
 701 1389 701 1389 809 1298 c 1,9,10
 862 1251 862 1251 892 1187.5 c 128,-1,11
 922 1124 922 1124 922 1051 c 0,12,13
 922 906 922 906 823 795 c 1,14,15
 776 744 776 744 719 703 c 128,-1,16
 662 662 662 662 602 623 c 0,17,18
 530 576 530 576 460.5 525.5 c 128,-1,19
 391 475 391 475 336 408 c 1,20,21
 281 336 281 336 250 254 c 0,22,23
 223 182 223 182 217 96 c 1,24,-1
 215 74 l 1,25,-1
 903 74 l 2,26,27
 919 74 919 74 929.5 63.5 c 128,-1,28
 940 53 940 53 940 37 c 256,29,30
 940 21 940 21 930 9.5 c 128,-1,31
 920 -2 920 -2 903 -2 c 2,32,-1
 139 -2 l 1,33,-1
 139 37 l 2,34,35
 139 287 139 287 279 457 c 1,36,37
 338 531 338 531 412.5 585 c 128,-1,38
 487 639 487 639 559 686 c 0,39,40
 618 725 618 725 669.5 761 c 128,-1,41
 721 797 721 797 760 838 c 0,42,43
 846 930 846 930 846 1051 c 0,44,45
 846 1166 846 1166 760 1239 c 0,46,47
 674 1313 674 1313 545 1313 c 0,48,49
 469 1313 469 1313 407.5 1287.5 c 128,-1,50
 346 1262 346 1262 302 1230 c 128,-1,51
 258 1198 258 1198 231.5 1168.5 c 128,-1,52
 205 1139 205 1139 199 1133 c 0,53,54
 185 1119 185 1119 168 1118 c 0,55,56
 154 1118 154 1118 145 1126 c 0,57,0
 133 1136 133 1136 131 1151.5 c 128,-1,1
EndSplineSet
EndChar
StartChar: three
Encoding: 51 51 22
Width: 1085
GlyphClass: 2
Flags: W
LayerCount: 2
Back
Fore
SplineSet
139 246 m 0,0,1
 143 277 143 277 176 276 c 1,2,-1
 180 276 l 1,3,4
 203 272 203 272 209 256 c 1,5,-1
 213 248 l 1,6,7
 217 244 217 244 234.5 217 c 128,-1,8
 252 190 252 190 289 160 c 1,9,10
 389 74 389 74 535 74 c 0,11,12
 578 74 578 74 637 90 c 128,-1,13
 696 106 696 106 750 147 c 1,14,15
 869 241 869 241 868 406 c 0,16,17
 868 525 868 525 811 600 c 0,18,19
 762 666 762 666 684 700 c 0,20,21
 649 716 649 716 615.5 725.5 c 128,-1,22
 582 735 582 735 555 739 c 1,23,24
 524 745 524 745 496 745 c 0,25,26
 480 745 480 745 468.5 756.5 c 128,-1,27
 457 768 457 768 457 784 c 256,28,29
 457 800 457 800 468 810.5 c 128,-1,30
 479 821 479 821 496 821 c 0,31,32
 547 821 547 821 606.5 841.5 c 128,-1,33
 666 862 666 862 717 897 c 0,34,35
 791 948 791 948 813.5 1002.5 c 128,-1,36
 836 1057 836 1057 836 1098 c 0,37,38
 836 1137 836 1137 816.5 1177 c 128,-1,39
 797 1217 797 1217 758 1247.5 c 128,-1,40
 719 1278 719 1278 661.5 1297.5 c 128,-1,41
 604 1317 604 1317 530 1317 c 0,42,43
 467 1317 467 1317 420 1304.5 c 128,-1,44
 373 1292 373 1292 340 1277 c 128,-1,45
 307 1262 307 1262 288.5 1247.5 c 128,-1,46
 270 1233 270 1233 266 1229 c 2,47,-1
 262 1225 l 2,48,49
 254 1217 254 1217 238 1217 c 256,50,51
 222 1217 222 1217 211.5 1227 c 128,-1,52
 201 1237 201 1237 201 1253 c 256,53,54
 201 1269 201 1269 211 1280 c 0,55,56
 213 1282 213 1282 233.5 1299.5 c 128,-1,57
 254 1317 254 1317 293 1337 c 0,58,59
 397 1392 397 1392 530 1393 c 1,60,61
 700 1393 700 1393 807 1305 c 0,62,63
 856 1264 856 1264 883.5 1209.5 c 128,-1,64
 911 1155 911 1155 911 1098 c 0,65,66
 911 1020 911 1020 871 953.5 c 128,-1,67
 831 887 831 887 758 834 c 1,68,69
 748 828 748 828 736.5 820.5 c 128,-1,70
 725 813 725 813 713 807 c 1,71,-1
 678 786 l 1,72,-1
 717 768 l 2,73,74
 813 723 813 723 872 645 c 1,75,76
 944 545 944 545 944 406 c 0,77,78
 944 343 944 343 929.5 292.5 c 128,-1,79
 915 242 915 242 893.5 203 c 128,-1,80
 872 164 872 164 845.5 135 c 128,-1,81
 819 106 819 106 795 88 c 0,82,83
 740 47 740 47 671.5 22.5 c 128,-1,84
 603 -2 603 -2 535 -2 c 0,85,86
 424 -2 424 -2 350 34 c 128,-1,87
 276 70 276 70 236 106 c 1,88,89
 191 145 191 145 170.5 178 c 128,-1,90
 150 211 150 211 145 215 c 1,91,-1
 145 217 l 1,92,-1
 141 225 l 1,93,94
 137 237 137 237 139 246 c 0,0,1
EndSplineSet
EndChar
StartChar: four
Encoding: 52 52 58
Width: 498
Flags: MW
HStem: -1 21G<361.5 372> 175 37 672 20G<362 370.5>
VStem: 348 38<18 172 210 606 606 606>
LayerCount: 2
Back
Fore
SplineSet
62 206 m 2
 351 684 l 2
 354 689 359 692 365 692 c 0
 376 692 386 684 386 673 c 2
 386 209 l 1
 431 208 l 2
 443 208 450 200 450 190 c 0
 450 179 442 171 431 171 c 2
 386 172 l 1
 386 18 l 2
 386 7 377 -1 367 -1 c 0
 356 -1 348 7 348 18 c 2
 348 173 l 1
 73 177 l 2
 61 177 57 186 57 192 c 0
 57 197 59 200 62 206 c 2
348 606 m 1
 110 214 l 1
 348 210 l 1
 348 606 l 1
EndSplineSet
EndChar
StartChar: five
Encoding: 53 53 24
Width: 1134
GlyphClass: 2
Flags: W
LayerCount: 2
Back
Fore
SplineSet
137 240 m 0,0,1
 137 256 137 256 148.5 266 c 128,-1,2
 160 276 160 276 176 276 c 0,3,4
 199 276 199 276 209 258 c 1,5,-1
 211 256 l 1,6,-1
 211 254 l 1,7,8
 215 246 215 246 235.5 219.5 c 128,-1,9
 256 193 256 193 291 164 c 0,10,11
 402 76 402 76 541 76 c 0,12,13
 609 76 609 76 678.5 107.5 c 128,-1,14
 748 139 748 139 801 199 c 1,15,16
 862 262 862 262 894 346 c 128,-1,17
 926 430 926 430 926 522 c 0,18,19
 926 600 926 600 905.5 667.5 c 128,-1,20
 885 735 885 735 844 788 c 0,21,22
 750 913 750 913 582 913 c 0,23,24
 508 913 508 913 448.5 890.5 c 128,-1,25
 389 868 389 868 348 841.5 c 128,-1,26
 307 815 307 815 284 792 c 2,27,-1
 260 768 l 2,28,29
 248 756 248 756 231 756 c 0,30,31
 221 756 221 756 215 758 c 0,32,33
 188 768 188 768 193 797 c 1,34,-1
 250 1360 l 2,35,36
 254 1393 254 1393 287 1393 c 2,37,-1
 905 1393 l 2,38,39
 921 1393 921 1393 932.5 1382.5 c 128,-1,40
 944 1372 944 1372 944 1356 c 256,41,42
 944 1340 944 1340 933 1328.5 c 128,-1,43
 922 1317 922 1317 905 1317 c 2,44,-1
 322 1317 l 1,45,-1
 279 889 l 1,46,-1
 315 911 l 2,47,48
 442 989 442 989 582 989 c 0,49,50
 668 989 668 989 742.5 959.5 c 128,-1,51
 817 930 817 930 874 872 c 0,52,53
 1003 739 1003 739 1004 522 c 0,54,55
 1004 413 1004 413 966 317 c 128,-1,56
 928 221 928 221 856 145 c 0,57,58
 790 75 790 75 708.5 37.5 c 128,-1,59
 627 0 627 0 541 0 c 0,60,61
 369 0 369 0 238 109 c 1,62,63
 191 150 191 150 168 182.5 c 128,-1,64
 145 215 145 215 143 219 c 1,65,-1
 141 221 l 1,66,67
 137 233 137 233 137 240 c 0,0,1
EndSplineSet
EndChar
StartChar: six
Encoding: 54 54 60
Width: 536
Flags: MW
HStem: -3 34<238 303.5 238 306.5> 407 35<290 308.5> 669 20G<347.5 354.5>
VStem: 63 34<158 260.5 158 396> 446 33<155.5 307.5 141 318.5>
LayerCount: 2
Back
Fore
SplineSet
102 326 m 1
 98 301 97 274 97 247 c 0
 97 69 196 31 280 31 c 0
 327 31 446 69 446 242 c 0
 446 395 327 407 290 407 c 0
 184 406 121 347 102 326 c 1
335 685 m 0
 341 688 345 689 350 689 c 0
 359 689 367 681 367 672 c 0
 367 665 362 659 357 656 c 0
 252 605 155 501 111 377 c 1
 154 413 227 442 290 442 c 0
 395 442 479 373 479 242 c 0
 479 40 333 -3 280 -3 c 0
 175 -3 63 57 63 247 c 0
 63 545 288 661 335 685 c 0
EndSplineSet
EndChar
StartChar: seven
Encoding: 55 55 26
Width: 1017
GlyphClass: 2
Flags: W
LayerCount: 2
Back
Fore
SplineSet
131 1343 m 256,0,1
 131 1359 131 1359 141.5 1370.5 c 128,-1,2
 152 1382 152 1382 168 1382 c 2,3,-1
 936 1382 l 2,4,5
 959 1382 959 1382 969 1364 c 1,6,7
 981 1348 981 1348 971 1327 c 2,8,-1
 313 20 l 1,9,10
 299 0 299 0 279 0 c 0,11,12
 267 0 267 0 260 4 c 0,13,14
 250 10 250 10 242 25 c 0,15,16
 236 37 236 37 244 55 c 2,17,-1
 874 1305 l 1,18,-1
 168 1305 l 2,19,20
 152 1305 152 1305 141.5 1316 c 128,-1,21
 131 1327 131 1327 131 1343 c 256,0,1
EndSplineSet
EndChar
StartChar: eight
Encoding: 56 56 27
Width: 1093
GlyphClass: 2
Flags: W
LayerCount: 2
Back
Fore
SplineSet
135 356 m 1,0,1
 141 499 141 499 227 598 c 1,2,3
 288 672 288 672 412 733 c 1,4,-1
 453 754 l 1,5,-1
 412 770 l 1,6,7
 197 864 197 864 203 1061 c 0,8,9
 209 1237 209 1237 344 1327 c 0,10,11
 391 1358 391 1358 449.5 1375.5 c 128,-1,12
 508 1393 508 1393 567 1393 c 0,13,14
 649 1393 649 1393 721 1365 c 128,-1,15
 793 1337 793 1337 840 1286 c 1,16,17
 920 1206 920 1206 915 1081 c 1,18,19
 913 972 913 972 848 895 c 0,20,21
 821 864 821 864 785.5 836.5 c 128,-1,22
 750 809 750 809 700 784 c 1,23,-1
 664 764 l 1,24,-1
 700 745 l 1,25,26
 825 684 825 684 890.5 584.5 c 128,-1,27
 956 485 956 485 952 365 c 0,28,29
 950 287 950 287 919.5 219.5 c 128,-1,30
 889 152 889 152 834 102 c 1,31,32
 777 53 777 53 703 26.5 c 128,-1,33
 629 0 629 0 545 0 c 0,34,35
 449 0 449 0 366 31.5 c 128,-1,36
 283 63 283 63 225 123 c 0,37,38
 131 219 131 219 135 356 c 1,0,1
209 354 m 1,39,40
 205 248 205 248 276 174 c 1,41,42
 323 127 323 127 393 100.5 c 128,-1,43
 463 74 463 74 545 74 c 0,44,45
 606 74 606 74 663.5 91.5 c 128,-1,46
 721 109 721 109 768 143 c 1,47,48
 874 225 874 225 881 367 c 1,49,50
 883 433 883 433 858.5 492 c 128,-1,51
 834 551 834 551 784 598 c 1,52,53
 733 649 733 649 674.5 677 c 128,-1,54
 616 705 616 705 569 719 c 1,55,-1
 563 721 l 1,56,-1
 553 717 l 2,57,58
 549 715 549 715 545 713 c 128,-1,59
 541 711 541 711 537 709 c 0,60,61
 480 684 480 684 424.5 656.5 c 128,-1,62
 369 629 369 629 322 590 c 0,63,64
 211 496 211 496 209 354 c 1,39,40
276 1059 m 1,65,66
 274 963 274 963 340 899 c 1,67,68
 375 870 375 870 425 845.5 c 128,-1,69
 475 821 475 821 549 801 c 1,70,-1
 557 799 l 1,71,-1
 573 805 l 1,72,73
 628 830 628 830 678.5 855.5 c 128,-1,74
 729 881 729 881 764 913 c 1,75,76
 842 979 842 979 844 1083 c 1,77,78
 848 1173 848 1173 788 1235 c 0,79,80
 749 1276 749 1276 691 1297.5 c 128,-1,81
 633 1319 633 1319 567 1319 c 0,82,83
 561 1319 561 1319 518 1314 c 128,-1,84
 475 1309 475 1309 422 1286 c 1,85,86
 373 1263 373 1263 327 1211 c 128,-1,87
 281 1159 281 1159 276 1059 c 1,65,66
EndSplineSet
EndChar
StartChar: nine
Encoding: 57 57 28
Width: 1095
GlyphClass: 2
Flags: W
LayerCount: 2
Back
Fore
SplineSet
124 903 m 0,0,1
 124 983 124 983 138.5 1045.5 c 128,-1,2
 153 1108 153 1108 174.5 1155 c 128,-1,3
 196 1202 196 1202 222.5 1237 c 128,-1,4
 249 1272 249 1272 276 1295 c 0,5,6
 337 1350 337 1350 406 1372.5 c 128,-1,7
 475 1395 475 1395 524 1395 c 0,8,9
 577 1395 577 1395 650 1379.5 c 128,-1,10
 723 1364 723 1364 788 1315 c 1,11,12
 960 1190 960 1190 960 893 c 0,13,14
 960 760 960 760 932.5 651.5 c 128,-1,15
 905 543 905 543 862 455 c 128,-1,16
 819 367 819 367 766.5 300.5 c 128,-1,17
 714 234 714 234 663 187 c 1,18,19
 583 111 583 111 509.5 68 c 128,-1,20
 436 25 436 25 395 6 c 0,21,22
 391 4 391 4 385 4 c 0,23,24
 350 4 350 4 350 39 c 0,25,26
 350 59 350 59 370 70 c 2,27,-1
 378 74 l 1,28,29
 415 90 415 90 482.5 131 c 128,-1,30
 550 172 550 172 622 240 c 0,31,32
 769 381 769 381 837 561 c 2,33,-1
 858 617 l 1,34,-1
 806 586 l 1,35,36
 663 502 663 502 503 502 c 0,37,38
 489 502 489 502 427.5 510 c 128,-1,39
 366 518 366 518 299 557 c 0,40,41
 125 657 125 657 124 903 c 0,0,1
192 903 m 0,42,43
 192 797 192 797 229 723 c 1,44,45
 262 662 262 662 321 621 c 1,46,47
 372 588 372 588 423 580 c 128,-1,48
 474 572 474 572 503 572 c 0,49,50
 634 572 634 572 751 633 c 0,51,52
 798 658 798 658 829 683.5 c 128,-1,53
 860 709 860 709 876 725 c 2,54,-1
 882 731 l 1,55,-1
 882 738 l 1,56,57
 894 812 894 812 895 893 c 1,58,59
 895 1133 895 1133 772 1243 c 0,60,61
 678 1327 678 1327 524 1327 c 0,62,63
 489 1327 489 1327 432.5 1310 c 128,-1,64
 376 1293 376 1293 323 1245.5 c 128,-1,65
 270 1198 270 1198 231 1115.5 c 128,-1,66
 192 1033 192 1033 192 903 c 0,42,43
EndSplineSet
EndChar
StartChar: colon
Encoding: 58 58 71
Width: 225
Flags: MW
HStem: 0 21G<89 104> 419 20G<126 140.5>
VStem: 73 54<28.5 38.5> 103 54<401.5 411.5>
LayerCount: 2
Back
Fore
SplineSet
96 0 m 0xe0
 82 0 73 14 73 29 c 0
 73 48 87 66 104 66 c 0
 117 66 127 53 127 39 c 0
 127 18 112 0 96 0 c 0xe0
126 373 m 0
 112 373 103 387 103 402 c 0
 103 421 118 439 134 439 c 0
 147 439 157 426 157 412 c 0xd0
 157 391 143 373 126 373 c 0
EndSplineSet
EndChar
StartChar: semicolon
Encoding: 59 59 30
Width: 520
GlyphClass: 2
Flags: W
LayerCount: 2
Back
Fore
SplineSet
180 -150 m 1,0,-1
 240 0 l 1,1,-1
 227 10 l 1,2,3
 204 30 204 30 209 66 c 0,4,5
 213 95 213 95 232.5 114 c 128,-1,6
 252 133 252 133 275 133 c 0,7,8
 295 133 295 133 307 119 c 0,9,10
 325 99 325 99 322 72 c 1,11,-1
 320 70 l 1,12,13
 320 66 320 66 318 56.5 c 128,-1,14
 316 47 316 47 313 41 c 0,15,16
 309 31 309 31 296 -3 c 128,-1,17
 283 -37 283 -37 268.5 -73 c 128,-1,18
 254 -109 254 -109 243 -138 c 2,19,-1
 232 -168 l 1,20,21
 223 -186 223 -186 207 -186 c 0,22,23
 203 -186 203 -186 201 -185 c 128,-1,24
 199 -184 199 -184 197 -184 c 0,25,26
 174 -174 174 -174 180 -150 c 1,0,-1
280 796 m 0,27,28
 284 825 284 825 302.5 845.5 c 128,-1,29
 321 866 321 866 344 866 c 0,30,31
 364 866 364 866 377 850 c 1,32,33
 393 834 393 834 393 801 c 1,34,35
 389 772 389 772 369.5 752.5 c 128,-1,36
 350 733 350 733 327 733 c 256,37,38
 304 733 304 733 295 747 c 1,39,40
 277 767 277 767 280 796 c 0,27,28
EndSplineSet
EndChar
StartChar: less
Encoding: 60 60 31
Width: 1097
GlyphClass: 2
Flags: W
LayerCount: 2
Back
Fore
SplineSet
147 512 m 0,0,1
 147 532 147 532 166 543 c 2,2,-1
 885 1004 l 2,3,4
 893 1010 893 1010 905 1010 c 0,5,6
 928 1010 928 1010 938 991 c 1,7,8
 948 979 948 979 944 963 c 256,9,10
 940 947 940 947 926 938 c 2,11,-1
 256 510 l 1,12,-1
 887 92 l 1,13,14
 899 86 899 86 903 68 c 0,15,16
 905 56 905 56 899 39 c 1,17,18
 886 23 886 23 866 23 c 0,19,20
 854 23 854 23 846 29 c 2,21,-1
 166 479 l 1,22,23
 148 487 148 487 147 512 c 0,0,1
EndSplineSet
EndChar
StartChar: equal
Encoding: 61 61 90
Width: 483
Flags: MW
HStem: 151 37<93.5 396 98 396> 312 36<93.5 396 98 396>
LayerCount: 2
Back
Fore
SplineSet
396 312 m 2
 98 312 l 2
 89 312 80 320 80 329 c 0
 80 340 89 348 98 348 c 2
 396 348 l 2
 407 348 415 340 415 329 c 0
 415 320 407 312 396 312 c 2
396 151 m 2
 98 151 l 2
 89 151 80 159 80 169 c 0
 80 179 89 188 98 188 c 2
 396 188 l 2
 407 188 415 179 415 169 c 0
 415 159 407 151 396 151 c 2
EndSplineSet
EndChar
StartChar: greater
Encoding: 62 62 65
Width: 530
Flags: MW
HStem: 8 21G<112 118.5> 472 20G<92 98>
LayerCount: 2
Back
Fore
SplineSet
461 231 m 2
 130 13 l 2
 123 9 120 8 117 8 c 0
 107 8 98 17 98 27 c 0
 98 33 102 40 108 44 c 2
 415 247 l 1
 87 456 l 2
 81 460 78 466 78 472 c 0
 78 482 87 492 97 492 c 0
 99 492 103 492 108 489 c 2
 460 264 l 2
 466 260 470 254 470 248 c 0
 470 240 467 235 461 231 c 2
EndSplineSet
EndChar
StartChar: question
Encoding: 63 63 34
Width: 1073
GlyphClass: 2
Flags: W
LayerCount: 2
Back
Fore
SplineSet
125 1237 m 1,0,1
 119 1255 119 1255 131 1272 c 1,2,3
 162 1311 162 1311 196.5 1340.5 c 128,-1,4
 231 1370 231 1370 268 1393 c 0,5,6
 370 1456 370 1456 489 1456 c 0,7,8
 692 1456 692 1456 813 1341 c 1,9,10
 936 1228 936 1228 936 1042 c 0,11,12
 936 903 936 903 844 778 c 1,13,14
 803 725 803 725 757 683 c 128,-1,15
 711 641 711 641 670 608 c 1,16,-1
 662 600 l 1,17,18
 644 586 644 586 616 561.5 c 128,-1,19
 588 537 588 537 554 508 c 128,-1,20
 520 479 520 479 485.5 446.5 c 128,-1,21
 451 414 451 414 418 385 c 1,22,-1
 412 381 l 1,23,-1
 412 379 l 1,24,25
 401 369 401 369 387 369 c 0,26,27
 371 369 371 369 360.5 379 c 128,-1,28
 350 389 350 389 350 403 c 256,29,30
 350 417 350 417 362 430 c 1,31,-1
 369 434 l 1,32,-1
 373 438 l 1,33,34
 402 463 402 463 435.5 492.5 c 128,-1,35
 469 522 469 522 502 552 c 128,-1,36
 535 582 535 582 564.5 609.5 c 128,-1,37
 594 637 594 637 618 659 c 0,38,39
 628 667 628 667 636.5 674.5 c 128,-1,40
 645 682 645 682 653 690 c 0,41,42
 688 721 688 721 726 757 c 128,-1,43
 764 793 764 793 794.5 836 c 128,-1,44
 825 879 825 879 844.5 930 c 128,-1,45
 864 981 864 981 864 1042 c 0,46,47
 864 1185 864 1185 780 1276 c 1,48,49
 735 1327 735 1327 664 1356 c 1,50,51
 584 1385 584 1385 489 1384 c 0,52,53
 432 1384 432 1384 384 1367 c 128,-1,54
 336 1350 336 1350 297 1325 c 128,-1,55
 258 1300 258 1300 229.5 1271.5 c 128,-1,56
 201 1243 201 1243 182 1221 c 1,57,58
 178 1219 178 1219 176 1216.5 c 128,-1,59
 174 1214 174 1214 170 1214 c 1,60,61
 166 1212 166 1212 158 1212 c 0,62,63
 131 1212 131 1212 125 1237 c 1,0,1
268 63 m 0,64,65
 272 92 272 92 290.5 111.5 c 128,-1,66
 309 131 309 131 332 131 c 256,67,68
 355 131 355 131 365 117 c 1,69,70
 383 99 383 99 379 68 c 1,71,72
 377 39 377 39 357.5 19.5 c 128,-1,73
 338 0 338 0 315 0 c 0,74,75
 303 0 303 0 295 5 c 128,-1,76
 287 10 287 10 283 14 c 0,77,78
 265 34 265 34 268 63 c 0,64,65
EndSplineSet
EndChar
StartChar: at
Encoding: 64 64 85
Width: 818
Flags: MW
HStem: -98 34<358.5 471 358.5 474> 99 35<619 632> 114 34<329.5 374> 392 34<369 418.5> 588 35<352.5 529.5 329.5 534.5>
VStem: 68 35<153 359> 239 36<206 277.5 206 287> 738 35<218 362.5>
LayerCount: 2
Back
Fore
SplineSet
623 -3 m 0xdf
 631 2 634 4 639 4 c 0
 648 4 656 -4 656 -14 c 0
 656 -20 652 -25 643 -32 c 0
 601 -60 522 -98 426 -98 c 0
 237 -98 68 53 68 253 c 0
 68 465 224 623 435 623 c 0
 624 623 773 478 773 288 c 0
 773 113 648 99 616 99 c 0xdf
 534 99 491 142 475 198 c 1
 442 154 398 114 350 114 c 0
 289 114 239 154 239 238 c 0
 239 336 312 426 406 426 c 0
 436 426 469 417 497 399 c 0
 509 391 515 385 515 378 c 0
 515 369 506 361 496 361 c 0
 493 361 489 362 480 367 c 0
 455 382 430 392 407 392 c 0
 331 392 275 317 275 238 c 0
 275 174 309 148 350 148 c 0xbf
 413 148 468 250 482 287 c 0
 485 295 492 298 500 298 c 0
 509 298 517 290 517 280 c 0
 517 275 516 271 514 265 c 0
 511 256 508 247 508 227 c 0
 508 176 544 135 619 134 c 0
 651 134 738 148 738 288 c 0
 738 437 634 588 435 588 c 0
 270 588 103 473 103 253 c 0
 103 46 291 -64 426 -64 c 0
 516 -64 585 -28 623 -3 c 0xdf
EndSplineSet
EndChar
StartChar: A
Encoding: 65 65 1
Width: 614
Flags: MW
HStem: -1 21G<546 555.5> 0 21G<66 76> 669 20G<323.5 333>
LayerCount: 2
Back
Fore
SplineSet
53 27 m 2x60
 122 203 l 1
 85 194 l 2
 73 192 65 202 65 212 c 0
 65 222 72 229 80 231 c 2
 139 244 l 1
 309 677 l 2
 312 684 319 689 328 689 c 0
 338 689 344 683 346 677 c 2
 568 32 l 2
 571 23 571 18 571 15 c 0
 571 4 561 -1 550 -1 c 0xa0
 542 -1 536 3 533 11 c 2
 444 272 l 1
 167 211 l 1
 89 11 l 2
 86 4 80 0 72 0 c 0
 60 0 51 8 51 18 c 0
 51 21 52 25 53 27 c 2x60
184 253 m 1
 431 307 l 1
 325 614 l 1
 184 253 l 1
EndSplineSet
EndChar
StartChar: B
Encoding: 66 66 37
Width: 1222
GlyphClass: 2
Flags: W
LayerCount: 2
Back
Fore
SplineSet
133 41 m 2,0,-1
 133 1360 l 2,1,2
 133 1399 133 1399 172 1399 c 2,3,-1
 553 1399 l 2,4,5
 784 1399 784 1399 901 1280 c 0,6,7
 936 1245 936 1245 954.5 1208 c 128,-1,8
 973 1171 973 1171 982 1140.5 c 128,-1,9
 991 1110 991 1110 993 1089.5 c 128,-1,10
 995 1069 995 1069 995 1067 c 0,11,12
 995 883 995 883 856 780 c 1,13,-1
 823 758 l 1,14,-1
 862 743 l 2,15,16
 868 741 868 741 875.5 739 c 128,-1,17
 883 737 883 737 889 735 c 0,18,19
 987 694 987 694 1047 627 c 1,20,21
 1120 542 1120 542 1120 417 c 0,22,23
 1120 287 1120 287 1026 199 c 1,24,25
 879 58 879 58 506 14 c 0,26,27
 424 4 424 4 355.5 2 c 128,-1,28
 287 0 287 0 240 0 c 0,29,30
 209 0 209 0 191.5 1 c 128,-1,31
 174 2 174 2 170 2 c 0,32,33
 154 2 154 2 143.5 13.5 c 128,-1,34
 133 25 133 25 133 41 c 2,0,-1
209 78 m 1,35,-1
 231 78 l 1,36,-1
 238 78 l 2,37,38
 285 78 285 78 352.5 80 c 128,-1,39
 420 82 420 82 498 92 c 1,40,41
 668 110 668 110 787.5 152.5 c 128,-1,42
 907 195 907 195 973 254 c 1,43,44
 1045 326 1045 326 1044 414 c 1,45,46
 1044 512 1044 512 987 578 c 0,47,48
 940 631 940 631 860 664 c 0,49,50
 825 678 825 678 790.5 685 c 128,-1,51
 756 692 756 692 729 696 c 128,-1,52
 702 700 702 700 685 701 c 128,-1,53
 668 702 668 702 666 702 c 2,54,-1
 209 702 l 1,55,-1
 209 78 l 1,35,-1
209 778 m 1,56,-1
 645 778 l 2,57,58
 696 778 696 778 737 795.5 c 128,-1,59
 778 813 778 813 808 836.5 c 128,-1,60
 838 860 838 860 854 881.5 c 128,-1,61
 870 903 870 903 877 911 c 1,62,63
 918 972 918 972 918 1067 c 0,64,65
 918 1069 918 1069 911.5 1109 c 128,-1,66
 905 1149 905 1149 872 1196 c 1,67,68
 831 1251 831 1251 766 1282 c 0,69,70
 680 1323 680 1323 553 1323 c 2,71,-1
 209 1323 l 1,72,-1
 209 778 l 1,56,-1
EndSplineSet
EndChar
StartChar: C
Encoding: 67 67 38
Width: 1275
GlyphClass: 2
Flags: W
LayerCount: 2
Back
Fore
SplineSet
102 600 m 1,0,1
 102 752 102 752 158 899 c 1,2,3
 207 1036 207 1036 295 1149 c 0,4,5
 338 1204 338 1204 386 1248 c 128,-1,6
 434 1292 434 1292 485 1325 c 0,7,8
 538 1360 538 1360 593.5 1376.5 c 128,-1,9
 649 1393 649 1393 700 1393 c 0,10,11
 874 1393 874 1393 993 1311 c 1,12,-1
 1014 1298 l 1,13,-1
 1024 1319 l 2,14,15
 1034 1339 1034 1339 1059 1339 c 0,16,17
 1075 1339 1075 1339 1086.5 1328 c 128,-1,18
 1098 1317 1098 1317 1098 1300 c 2,19,-1
 1098 1167 l 2,20,21
 1098 1151 1098 1151 1086.5 1139.5 c 128,-1,22
 1075 1128 1075 1128 1059 1128 c 256,23,24
 1043 1128 1043 1128 1031.5 1139.5 c 128,-1,25
 1020 1151 1020 1151 1020 1167 c 2,26,-1
 1020 1188 l 1,27,-1
 1014 1194 l 2,28,29
 994 1214 994 1214 969 1233.5 c 128,-1,30
 944 1253 944 1253 909 1272 c 1,31,32
 823 1315 823 1315 700 1315 c 0,33,34
 659 1315 659 1315 615 1301.5 c 128,-1,35
 571 1288 571 1288 526 1260 c 0,36,37
 436 1203 436 1203 356 1102 c 0,38,39
 270 993 270 993 225 863 c 128,-1,40
 180 733 180 733 180 600 c 0,41,42
 180 526 180 526 195.5 464.5 c 128,-1,43
 211 403 211 403 234.5 355 c 128,-1,44
 258 307 258 307 287.5 270 c 128,-1,45
 317 233 317 233 346 209 c 1,46,47
 416 146 416 146 505 111 c 128,-1,48
 594 76 594 76 684 76 c 0,49,50
 836 76 836 76 954 147 c 1,51,52
 985 163 985 163 1025 196 c 128,-1,53
 1065 229 1065 229 1104 283 c 1,54,55
 1112 297 1112 297 1135 297 c 0,56,57
 1147 297 1147 297 1157 291 c 0,58,59
 1171 281 1171 281 1171 264 c 1,60,61
 1172 259 1172 259 1172 255 c 0,62,63
 1172 244 1172 244 1165 236 c 0,64,65
 1095 142 1095 142 995 82 c 0,66,67
 856 -2 856 -2 684 -2 c 0,68,69
 580 -2 580 -2 477.5 38 c 128,-1,70
 375 78 375 78 295 152 c 1,71,72
 205 232 205 232 156 340 c 1,73,74
 103 463 103 463 102 600 c 1,0,1
EndSplineSet
EndChar
StartChar: D
Encoding: 68 68 39
Width: 1239
GlyphClass: 2
Flags: W
LayerCount: 2
Back
Fore
SplineSet
133 68 m 2,0,-1
 133 1366 l 2,1,2
 133 1405 133 1405 172 1405 c 0,3,4
 235 1405 235 1405 311 1399 c 128,-1,5
 387 1393 387 1393 467 1377.5 c 128,-1,6
 547 1362 547 1362 629 1334.5 c 128,-1,7
 711 1307 711 1307 784 1262 c 1,8,9
 938 1170 938 1170 1022 1024 c 1,10,11
 1116 858 1116 858 1116 637 c 256,12,13
 1116 416 1116 416 1018 268 c 0,14,15
 936 143 936 143 797 76 c 1,16,17
 740 47 740 47 644.5 21.5 c 128,-1,18
 549 -4 549 -4 414 -4 c 2,19,-1
 412 -4 l 2,20,21
 367 -4 367 -4 323 1 c 128,-1,22
 279 6 279 6 244 12 c 128,-1,23
 209 18 209 18 186.5 24.5 c 128,-1,24
 164 31 164 31 162 31 c 0,25,26
 133 37 133 37 133 68 c 2,0,-1
209 96 m 1,27,-1
 225 94 l 1,28,29
 262 86 262 86 311 79 c 128,-1,30
 360 72 360 72 412 72 c 2,31,-1
 414 72 l 2,32,33
 539 72 539 72 626 95.5 c 128,-1,34
 713 119 713 119 762 143 c 0,35,36
 887 206 887 206 954 309 c 1,37,38
 1040 438 1040 438 1040 637 c 0,39,40
 1040 840 1040 840 956 985 c 0,41,42
 884 1110 884 1110 745 1196 c 1,43,44
 675 1237 675 1237 549.5 1279 c 128,-1,45
 424 1321 424 1321 231 1327 c 1,46,-1
 209 1327 l 1,47,-1
 209 96 l 1,27,-1
EndSplineSet
EndChar
StartChar: E
Encoding: 69 69 40
Width: 1234
GlyphClass: 2
Flags: W
LayerCount: 2
Back
Fore
SplineSet
133 39 m 2,0,-1
 133 1356 l 2,1,2
 133 1372 133 1372 144.5 1383.5 c 128,-1,3
 156 1395 156 1395 172 1395 c 2,4,-1
 1073 1395 l 2,5,6
 1089 1395 1089 1395 1100.5 1383.5 c 128,-1,7
 1112 1372 1112 1372 1112 1356 c 0,8,9
 1112 1317 1112 1317 1073 1317 c 2,10,-1
 211 1317 l 1,11,-1
 211 760 l 1,12,-1
 971 760 l 2,13,14
 987 760 987 760 998.5 748.5 c 128,-1,15
 1010 737 1010 737 1010 721 c 256,16,17
 1010 705 1010 705 998.5 693.5 c 128,-1,18
 987 682 987 682 971 682 c 2,19,-1
 211 682 l 1,20,-1
 211 78 l 1,21,-1
 1069 78 l 2,22,23
 1108 78 1108 78 1108 39 c 0,24,25
 1108 23 1108 23 1096.5 11.5 c 128,-1,26
 1085 0 1085 0 1069 0 c 2,27,-1
 172 0 l 2,28,29
 156 0 156 0 144.5 11.5 c 128,-1,30
 133 23 133 23 133 39 c 2,0,-1
EndSplineSet
EndChar
StartChar: F
Encoding: 70 70 52
Width: 535
Flags: MW
HStem: -1 21G<77 87> 333 38<101 431 101 431> 643 38<101 523 101 101>
VStem: 63 38<19 333 371 643>
LayerCount: 2
Back
Fore
SplineSet
101 333 m 1
 101 19 l 2
 101 8 92 -1 82 -1 c 0
 72 -1 63 8 63 19 c 2
 63 661 l 2
 63 672 72 681 82 681 c 2
 523 681 l 2
 533 681 542 672 542 661 c 0
 542 651 533 643 523 643 c 2
 101 643 l 1
 101 371 l 1
 431 371 l 2
 442 371 450 362 450 351 c 0
 450 341 442 333 431 333 c 2
 101 333 l 1
EndSplineSet
EndChar
StartChar: G
Encoding: 71 71 32
Width: 741
Flags: MW
HStem: -1 38<272 423.5 272 438.5> 228 56 246 38<540.5 575.5> 645 38<280.5 446>
VStem: 61 39<267.5 379.5 267.5 414.5>
LayerCount: 2
Back
Fore
SplineSet
679 268 m 0xd8
 686 265 691 260 691 250 c 0
 691 239 684 231 674 231 c 0
 668 231 661 234 648 237 c 1
 616 104 516 -1 361 -1 c 0
 176 -1 61 162 61 331 c 0
 61 498 183 683 378 683 c 0
 565 683 639 540 639 500 c 0
 639 490 631 483 621 483 c 0
 612 483 605 488 602 498 c 0
 576 568 514 645 378 645 c 0
 172 645 100 428 100 331 c 0
 100 204 183 37 361 37 c 0
 486 37 580 116 612 244 c 1
 593 246 582 246 569 246 c 0xb8
 512 246 477 237 455 232 c 0
 445 230 440 228 434 228 c 0
 425 228 416 235 416 247 c 0
 416 254 421 262 429 265 c 0
 432 266 495 284 568 284 c 0
 631 284 670 271 679 268 c 0xd8
EndSplineSet
EndChar
StartChar: H
Encoding: 72 72 43
Width: 1394
GlyphClass: 2
Flags: W
LayerCount: 2
Back
Fore
SplineSet
133 39 m 2,0,-1
 133 1356 l 2,1,2
 133 1372 133 1372 144.5 1383.5 c 128,-1,3
 156 1395 156 1395 172 1395 c 256,4,5
 188 1395 188 1395 199.5 1383.5 c 128,-1,6
 211 1372 211 1372 211 1356 c 2,7,-1
 211 684 l 1,8,-1
 1184 819 l 1,9,-1
 1184 1356 l 2,10,11
 1184 1372 1184 1372 1195 1383.5 c 128,-1,12
 1206 1395 1206 1395 1223 1395 c 0,13,14
 1239 1395 1239 1395 1250.5 1383.5 c 128,-1,15
 1262 1372 1262 1372 1262 1356 c 2,16,-1
 1262 39 l 2,17,18
 1262 0 1262 0 1223 0 c 0,19,20
 1207 0 1207 0 1195.5 11.5 c 128,-1,21
 1184 23 1184 23 1184 39 c 2,22,-1
 1184 739 l 1,23,-1
 211 604 l 1,24,-1
 211 39 l 2,25,26
 211 23 211 23 199.5 11.5 c 128,-1,27
 188 0 188 0 172 0 c 0,28,29
 133 0 133 0 133 39 c 2,0,-1
EndSplineSet
EndChar
StartChar: I
Encoding: 73 73 34
Width: 423
Flags: MW
HStem: -1 38<78 197 83 197 235 347> 643 38<78 347 83 197 235 235 235 347>
VStem: 64 171<13.5 37> 197 38<37 643> 197 169<13.5 643>
LayerCount: 2
Back
Fore
SplineSet
235 37 m 1xe0
 347 37 l 2
 359 37 366 29 366 19 c 0xc8
 366 8 357 -1 347 -1 c 2
 83 -1 l 2
 73 -1 64 8 64 19 c 0xe0
 64 29 73 37 83 37 c 2
 197 37 l 1
 197 643 l 1xd0
 83 643 l 2
 73 643 64 652 64 662 c 0xe0
 64 673 73 681 83 681 c 2
 347 681 l 2
 357 681 366 673 366 662 c 0xc8
 366 652 357 643 347 643 c 2
 235 643 l 1
 235 37 l 1xe0
EndSplineSet
EndChar
StartChar: J
Encoding: 74 74 35
Width: 462
Flags: MW
HStem: 0 38<161 283.5 161 287.5> 639 38<212 428 217 354 392 428 392 392>
VStem: 53 38<154 170> 354 38<154 639>
LayerCount: 2
Back
Fore
SplineSet
217 677 m 2
 428 677 l 2
 438 677 447 669 447 658 c 0
 447 648 438 639 428 639 c 2
 392 639 l 1
 392 154 l 2
 392 83 349 0 226 0 c 0
 74 0 53 124 53 164 c 0
 53 176 60 185 73 185 c 0
 83 185 91 176 91 166 c 0
 91 142 96 38 226 38 c 0
 341 38 354 118 354 154 c 2
 354 639 l 1
 217 639 l 2
 207 639 197 648 197 658 c 0
 197 669 207 677 217 677 c 2
EndSplineSet
EndChar
StartChar: K
Encoding: 75 75 46
Width: 1153
GlyphClass: 2
Flags: W
LayerCount: 2
Back
Fore
SplineSet
133 37 m 2,0,-1
 133 1356 l 2,1,2
 133 1372 133 1372 143.5 1382.5 c 128,-1,3
 154 1393 154 1393 170 1393 c 256,4,5
 186 1393 186 1393 196.5 1382.5 c 128,-1,6
 207 1372 207 1372 207 1356 c 2,7,-1
 207 752 l 1,8,-1
 946 1384 l 2,9,10
 954 1392 954 1392 971 1393 c 0,11,12
 987 1393 987 1393 997 1380 c 1,13,14
 1007 1370 1007 1370 1006.5 1354.5 c 128,-1,15
 1006 1339 1006 1339 993 1329 c 2,16,-1
 240 682 l 1,17,-1
 1036 63 l 2,18,19
 1046 55 1046 55 1051 39 c 1,20,21
 1051 23 1051 23 1042 12 c 1,22,23
 1034 -2 1034 -2 1014 -2 c 0,24,25
 1000 -2 1000 -2 991 6 c 2,26,-1
 207 614 l 1,27,-1
 207 37 l 2,28,29
 207 21 207 21 196.5 10.5 c 128,-1,30
 186 0 186 0 170 0 c 256,31,32
 154 0 154 0 143.5 10 c 128,-1,33
 133 20 133 20 133 37 c 2,0,-1
EndSplineSet
EndChar
StartChar: L
Encoding: 76 76 37
Width: 467
Flags: MW
HStem: 12 38 661 20G<81.5 92>
VStem: 68 37<38 662 38 662 38 667.5>
LayerCount: 2
Back
Fore
SplineSet
443 25 m 2
 87 0 l 2
 77 -1 68 7 68 19 c 2
 68 662 l 2
 68 673 76 681 87 681 c 0
 97 681 105 673 105 662 c 2
 105 38 l 1
 441 62 l 2
 452 63 461 54 461 43 c 0
 461 34 454 26 443 25 c 2
EndSplineSet
EndChar
StartChar: M
Encoding: 77 77 38
Width: 847
Flags: MW
HStem: 0 21G<62.5 72 411.5 419.5 786.5 797.5> 661 20G<206.5 215 642.5 651.5>
LayerCount: 2
Back
Fore
SplineSet
228 669 m 2
 415 76 l 1
 629 670 l 2
 632 678 638 681 647 681 c 0
 656 681 662 676 663 670 c 2
 805 41 l 2
 808 29 809 21 809 14 c 0
 809 8 804 0 791 0 c 0
 782 0 775 4 773 14 c 2
 644 596 l 1
 433 11 l 2
 430 3 424 0 415 0 c 0
 408 0 401 3 398 12 c 2
 214 595 l 1
 86 14 l 2
 84 5 76 0 68 0 c 0
 57 0 50 7 50 15 c 0
 50 20 52 30 54 38 c 2
 193 667 l 2
 195 676 202 681 211 681 c 0
 219 681 226 676 228 669 c 2
EndSplineSet
EndChar
StartChar: N
Encoding: 78 78 39
Width: 609
Flags: MW
HStem: 0 21G<81 91 528.5 537.5> 661 20G<81 90> 662 20G
VStem: 68 37<13.5 19> 514 37<77 664>
LayerCount: 2
Back
Fore
SplineSet
517 7 m 2xb8
 106 603 l 1
 105 19 l 2
 105 8 96 0 86 0 c 0
 76 0 68 8 68 19 c 2
 69 662 l 2xb8
 69 673 76 681 86 681 c 0xd8
 94 681 100 678 105 670 c 2
 514 77 l 1
 514 664 l 2
 514 674 522 682 532 682 c 0
 543 682 551 674 551 664 c 2
 551 19 l 2
 551 8 543 0 532 0 c 0
 525 0 520 2 517 7 c 2xb8
EndSplineSet
EndChar
StartChar: O
Encoding: 79 79 50
Width: 1337
GlyphClass: 2
Flags: W
LayerCount: 2
Back
Fore
SplineSet
125 698 m 0,0,1
 133 837 133 837 182 964.5 c 128,-1,2
 231 1092 231 1092 317 1190 c 1,3,4
 401 1288 401 1288 501.5 1340.5 c 128,-1,5
 602 1393 602 1393 711 1393 c 0,6,7
 803 1393 803 1393 887 1355 c 128,-1,8
 971 1317 971 1317 1038 1245 c 0,9,10
 1132 1144 1132 1144 1178 1000 c 0,11,12
 1215 884 1215 884 1214 755 c 0,13,14
 1214 724 1214 724 1212 692 c 0,15,16
 1202 553 1202 553 1153 426 c 128,-1,17
 1104 299 1104 299 1018 201 c 1,18,19
 934 103 934 103 834 50.5 c 128,-1,20
 734 -2 734 -2 625 -2 c 0,21,22
 533 -2 533 -2 449 36 c 128,-1,23
 365 74 365 74 299 145 c 0,24,25
 205 245 205 245 160 390 c 0,26,27
 123 509 123 509 123 639 c 0,28,29
 123 668 123 668 125 698 c 0,0,1
195 692 m 0,30,31
 193 663 193 663 193 634 c 0,32,33
 194 518 194 518 226 410 c 0,34,35
 266 274 266 274 350 188 c 1,36,37
 466 66 466 66 622 66 c 0,38,39
 623 66 623 66 625 66 c 0,40,41
 721 66 721 66 811 113 c 128,-1,42
 901 160 901 160 975 252 c 1,43,44
 1047 344 1047 344 1090 457.5 c 128,-1,45
 1133 571 1133 571 1141 698 c 0,46,47
 1142 719 1142 719 1142 739 c 0,48,49
 1142 788 1142 788 1136 838 c 1,50,51
 1126 908 1126 908 1103.5 974 c 128,-1,52
 1081 1040 1081 1040 1047.5 1098.5 c 128,-1,53
 1014 1157 1014 1157 971 1202 c 0,54,55
 854 1325 854 1325 696 1325 c 0,56,57
 602 1325 602 1325 515 1278 c 128,-1,58
 428 1231 428 1231 356 1139 c 1,59,60
 284 1051 284 1051 243.5 936 c 128,-1,61
 203 821 203 821 195 692 c 0,30,31
EndSplineSet
EndChar
StartChar: P
Encoding: 80 80 41
Width: 537
Flags: MW
HStem: 0 21G<81 91.5> 246 37<105 152 105 177> 645 37<149.5 258>
VStem: 68 37<19 246 283 643> 476 37<396.5 533.5>
LayerCount: 2
Back
Fore
SplineSet
86 0 m 0
 76 0 68 8 68 19 c 2
 68 650 l 2
 68 674 70 682 139 682 c 0
 391 682 513 610 513 481 c 0
 513 298 249 246 105 246 c 1
 105 19 l 2
 105 8 97 0 86 0 c 0
105 643 m 1
 105 283 l 1
 199 283 476 312 476 481 c 0
 476 586 360 645 156 645 c 0
 143 645 123 645 105 643 c 1
EndSplineSet
EndChar
StartChar: Q
Encoding: 81 81 52
Width: 1456
GlyphClass: 2
Flags: W
LayerCount: 2
Back
Fore
SplineSet
106 698 m 0,0,1
 116 841 116 841 174.5 968.5 c 128,-1,2
 233 1096 233 1096 324.5 1190 c 128,-1,3
 416 1284 416 1284 532.5 1338.5 c 128,-1,4
 649 1393 649 1393 776 1393 c 0,5,6
 880 1393 880 1393 975.5 1355 c 128,-1,7
 1071 1317 1071 1317 1149 1245 c 1,8,9
 1255 1145 1255 1145 1306 1002 c 0,10,11
 1350 881 1350 881 1350 747 c 0,12,13
 1350 721 1350 721 1348 694 c 0,14,15
 1336 553 1336 553 1276 418 c 1,16,17
 1217 291 1217 291 1120 195 c 1,18,-1
 1102 176 l 1,19,-1
 1335 23 l 2,20,21
 1349 13 1349 13 1352 -2 c 0,22,23
 1353 -7 1353 -7 1353 -11 c 0,24,25
 1353 -22 1353 -22 1346 -31 c 0,26,27
 1335 -47 1335 -47 1315 -47 c 0,28,29
 1301 -47 1301 -47 1292 -41 c 2,30,-1
 1040 125 l 1,31,-1
 1028 117 l 1,32,33
 948 58 948 58 859 29 c 128,-1,34
 770 0 770 0 678 0 c 0,35,36
 574 0 574 0 477.5 38 c 128,-1,37
 381 76 381 76 305 147 c 0,38,39
 196 247 196 247 145 391 c 0,40,41
 104 508 104 508 104 637 c 0,42,43
 104 667 104 667 106 698 c 0,0,1
193 694 m 0,44,45
 191 668 191 668 191 642 c 0,46,47
 191 523 191 523 230 413 c 1,48,49
 276 279 276 279 369 193 c 0,50,51
 502 70 502 70 678 70 c 0,52,53
 817 70 817 70 946 152 c 1,54,-1
 975 168 l 1,55,-1
 780 297 l 2,56,57
 766 307 766 307 764 322 c 1,58,59
 760 336 760 336 770 348 c 1,60,61
 778 366 778 366 801 367 c 0,62,63
 813 367 813 367 823 360 c 2,64,-1
 1036 219 l 1,65,-1
 1049 231 l 1,66,67
 1141 321 1141 321 1196 442 c 128,-1,68
 1251 563 1251 563 1262 698 c 0,69,70
 1264 720 1264 720 1264 742 c 0,71,72
 1264 859 1264 859 1220 972 c 0,73,74
 1167 1108 1167 1108 1069 1200 c 1,75,76
 936 1323 936 1323 760 1323 c 0,77,78
 651 1323 651 1323 553 1274 c 128,-1,79
 455 1225 455 1225 378 1141 c 128,-1,80
 301 1057 301 1057 252 941 c 128,-1,81
 203 825 203 825 193 694 c 0,44,45
EndSplineSet
EndChar
StartChar: R
Encoding: 82 82 53
Width: 1200
GlyphClass: 2
Flags: W
LayerCount: 2
Back
Fore
SplineSet
133 39 m 2,0,-1
 133 1350 l 2,1,2
 133 1383 133 1383 168 1386 c 0,3,4
 170 1386 170 1386 214 1390.5 c 128,-1,5
 258 1395 258 1395 330 1395 c 0,6,7
 365 1395 365 1395 396.5 1394 c 128,-1,8
 428 1393 428 1393 459 1391 c 0,9,10
 787 1366 787 1366 932 1235 c 0,11,12
 1044 1134 1044 1134 1044 982 c 0,13,14
 1044 829 1044 829 930 721 c 0,15,16
 838 635 838 635 678 580 c 0,17,18
 676 580 676 580 668 575 c 1,19,-1
 627 563 l 1,20,-1
 662 539 l 1,21,22
 705 512 705 512 739 483 c 1,23,24
 817 424 817 424 914.5 319.5 c 128,-1,25
 1012 215 1012 215 1094 57 c 0,26,27
 1098 49 1098 49 1098 40 c 0,28,29
 1098 34 1098 34 1096 29 c 0,30,31
 1090 13 1090 13 1075 6 c 0,32,33
 1067 2 1067 2 1059 2 c 0,34,35
 1036 2 1036 2 1026 23 c 0,36,37
 973 125 973 125 913.5 203 c 128,-1,38
 854 281 854 281 796.5 337 c 128,-1,39
 739 393 739 393 690 429 c 128,-1,40
 641 465 641 465 610 483 c 0,41,42
 577 503 577 503 532 513.5 c 128,-1,43
 487 524 487 524 436 524 c 0,44,45
 420 524 420 524 404.5 523 c 128,-1,46
 389 522 389 522 373 520 c 0,47,48
 338 516 338 516 305 513 c 128,-1,49
 272 510 272 510 248 506 c 1,50,-1
 209 502 l 1,51,-1
 209 39 l 2,52,53
 209 23 209 23 198.5 12.5 c 128,-1,54
 188 2 188 2 172 2 c 256,55,56
 156 2 156 2 144.5 12.5 c 128,-1,57
 133 23 133 23 133 39 c 2,0,-1
209 578 m 1,58,-1
 231 580 l 1,59,60
 251 580 251 580 294.5 582 c 128,-1,61
 338 584 338 584 396.5 592 c 128,-1,62
 455 600 455 600 521.5 614.5 c 128,-1,63
 588 629 588 629 653 651 c 0,64,65
 798 700 798 700 879 774 c 1,66,67
 969 862 969 862 969 979 c 0,68,69
 969 1098 969 1098 883 1178 c 1,70,71
 752 1293 752 1293 455 1315 c 0,72,73
 426 1317 426 1317 395.5 1318 c 128,-1,74
 365 1319 365 1319 332 1319 c 0,75,76
 305 1319 305 1319 279.5 1319 c 128,-1,77
 254 1319 254 1319 229 1317 c 2,78,-1
 209 1315 l 1,79,-1
 209 578 l 1,58,-1
EndSplineSet
EndChar
StartChar: S
Encoding: 83 83 44
Width: 588
Flags: MW
HStem: 0 34<265 343.5 265 355> 650 32<277 362.5 271 363.5>
VStem: 100 40<487.5 569.5 487.5 578.5> 490 43<132.5 207.5>
LayerCount: 2
Back
Fore
SplineSet
315 379 m 0
 461 338 533 278 533 188 c 0
 533 61 406 0 304 0 c 0
 191 0 100 56 66 138 c 0
 65 141 63 147 63 151 c 0
 63 162 73 171 84 171 c 0
 95 171 101 165 104 156 c 0
 132 76 227 34 303 34 c 0
 384 34 490 77 490 188 c 0
 490 227 478 295 308 341 c 0
 211 367 100 419 100 515 c 0
 100 642 215 682 327 682 c 0
 398 682 519 659 530 553 c 0
 530 543 524 534 513 534 c 0
 502 534 496 541 495 549 c 0
 487 619 403 650 324 650 c 0
 230 650 140 619 140 520 c 0
 140 455 202 410 315 379 c 0
EndSplineSet
EndChar
StartChar: T
Encoding: 84 84 55
Width: 1060
GlyphClass: 2
Flags: W
LayerCount: 2
Back
Fore
SplineSet
0 1356 m 0,0,1
 0 1372 0 1372 11.5 1383.5 c 128,-1,2
 23 1395 23 1395 39 1395 c 2,3,-1
 1022 1395 l 2,4,5
 1038 1395 1038 1395 1049.5 1383.5 c 128,-1,6
 1061 1372 1061 1372 1061 1356 c 256,7,8
 1061 1340 1061 1340 1049.5 1328.5 c 128,-1,9
 1038 1317 1038 1317 1022 1317 c 2,10,-1
 553 1317 l 1,11,-1
 553 37 l 2,12,13
 553 21 553 21 542.5 9.5 c 128,-1,14
 532 -2 532 -2 516 -2 c 256,15,16
 500 -2 500 -2 488.5 9 c 128,-1,17
 477 20 477 20 477 37 c 2,18,-1
 477 1317 l 1,19,-1
 39 1317 l 2,20,21
 23 1317 23 1317 11.5 1328 c 128,-1,22
 0 1339 0 1339 0 1356 c 0,0,1
EndSplineSet
EndChar
StartChar: U
Encoding: 85 85 46
Width: 673
Flags: MW
HStem: 0 31<250 410 237.5 415.5> 661 20G<81 95.5 587 603.5>
VStem: 69 36 577 37<653 659>
LayerCount: 2
Back
Fore
SplineSet
614 653 m 0
 618 527 623 400 606 270 c 0
 585 110 502 0 329 0 c 0
 171 0 78 125 69 367 c 0
 65 474 67 570 68 655 c 0
 68 671 74 681 88 681 c 0
 103 681 106 670 106 654 c 0
 104 565 102 474 105 381 c 0
 110 236 145 31 330 31 c 0
 490 31 554 139 570 277 c 0
 583 397 577 518 577 651 c 0
 577 667 578 681 596 681 c 0
 611 681 614 668 614 653 c 0
EndSplineSet
EndChar
StartChar: V
Encoding: 86 86 57
Width: 1083
GlyphClass: 2
Flags: W
LayerCount: 2
Back
Fore
SplineSet
23 1341 m 2,0,1
 21 1347 21 1347 21 1354 c 0,2,3
 21 1364 21 1364 25 1372 c 0,4,5
 31 1386 31 1386 47 1391 c 1,6,7
 51 1391 51 1391 53 1392 c 128,-1,8
 55 1393 55 1393 59 1393 c 0,9,10
 88 1393 88 1393 94 1366 c 1,11,-1
 506 150 l 1,12,-1
 987 1368 l 1,13,14
 995 1393 995 1393 1024 1393 c 0,15,16
 1032 1393 1032 1393 1036 1391 c 0,17,18
 1052 1384 1052 1384 1058 1370 c 0,19,20
 1061 1362 1061 1362 1062 1355 c 0,21,22
 1062 1348 1062 1348 1059 1341 c 2,23,-1
 539 25 l 2,24,25
 529 0 529 0 504 0 c 2,26,-1
 502 0 l 2,27,28
 477 0 477 0 467 27 c 2,29,-1
 23 1341 l 2,0,1
EndSplineSet
EndChar
StartChar: W
Encoding: 87 87 48
Width: 857
Flags: MW
HStem: 0 21G<219.5 227.5 605 614.5> 661 20G<23 32.5 429 437 837.5 848>
LayerCount: 2
Back
Fore
SplineSet
45 668 m 2
 224 78 l 1
 415 669 l 2
 418 677 425 681 433 681 c 0
 441 681 447 676 449 668 c 2
 611 79 l 1
 823 667 l 2
 827 677 833 681 842 681 c 0
 854 681 860 672 860 665 c 0
 860 660 859 656 858 653 c 2
 627 11 l 2
 625 5 619 0 610 0 c 0
 600 0 594 4 592 12 c 2
 430 601 l 1
 241 12 l 2
 238 3 232 0 223 0 c 0
 216 0 209 4 207 12 c 2
 15 644 l 2
 11 657 10 661 10 664 c 0
 10 674 18 681 28 681 c 0
 37 681 43 676 45 668 c 2
EndSplineSet
EndChar
StartChar: X
Encoding: 88 88 59
Width: 1386
GlyphClass: 2
Flags: W
LayerCount: 2
Back
Fore
SplineSet
102 35 m 1,0,1
 102 51 102 51 113 61 c 1,2,-1
 653 707 l 1,3,-1
 156 1331 l 2,4,5
 148 1341 148 1341 147 1358 c 1,6,7
 151 1376 151 1376 162 1384 c 0,8,9
 174 1392 174 1392 184 1393 c 1,10,11
 200 1393 200 1393 215 1378 c 1,12,-1
 702 766 l 1,13,-1
 1214 1378 l 1,14,15
 1228 1392 1228 1392 1245 1393 c 0,16,17
 1255 1393 1255 1393 1270 1382 c 1,18,19
 1282 1370 1282 1370 1282 1358 c 1,20,21
 1284 1344 1284 1344 1274 1329 c 1,22,-1
 750 707 l 1,23,-1
 1264 61 l 2,24,25
 1272 51 1272 51 1272 33 c 1,26,27
 1268 17 1268 17 1257 8 c 1,28,29
 1249 0 1249 0 1235 0 c 0,30,31
 1217 0 1217 0 1204 14 c 1,32,-1
 700 647 l 1,33,-1
 170 14 l 1,34,35
 162 0 162 0 141 0 c 0,36,37
 125 0 125 0 117 8 c 1,38,39
 107 16 107 16 102 35 c 1,0,1
EndSplineSet
EndChar
StartChar: Y
Encoding: 89 89 60
Width: 1206
GlyphClass: 2
Flags: W
LayerCount: 2
Back
Fore
SplineSet
43 1366 m 0,0,1
 47 1380 47 1380 59 1389 c 0,2,3
 67 1395 67 1395 80 1395 c 0,4,5
 103 1395 103 1395 113 1376 c 2,6,-1
 618 504 l 1,7,-1
 1135 1374 l 1,8,9
 1145 1394 1145 1394 1167 1395 c 0,10,11
 1179 1395 1179 1395 1186 1389 c 1,12,13
 1200 1381 1200 1381 1204 1366 c 1,14,15
 1204 1362 1204 1362 1204 1359 c 0,16,17
 1204 1348 1204 1348 1200 1337 c 1,18,-1
 418 18 l 2,19,20
 408 0 408 0 385 0 c 0,21,22
 379 0 379 0 367 4 c 1,23,24
 351 12 351 12 348 29 c 0,25,26
 346 41 346 41 352 57 c 1,27,-1
 573 430 l 1,28,-1
 47 1337 l 2,29,30
 42 1346 42 1346 42 1356 c 0,31,32
 42 1361 42 1361 43 1366 c 0,0,1
EndSplineSet
EndChar
StartChar: Z
Encoding: 90 90 61
Width: 1325
GlyphClass: 2
Flags: W
LayerCount: 2
Back
Fore
SplineSet
98 43 m 1,0,1
 98 59 98 59 109 76 c 1,2,-1
 119 86 l 1,3,-1
 1104 1260 l 1,4,-1
 174 1260 l 2,5,6
 158 1260 158 1260 145.5 1272 c 128,-1,7
 133 1284 133 1284 133 1300 c 256,8,9
 133 1316 133 1316 145.5 1327.5 c 128,-1,10
 158 1339 158 1339 174 1339 c 2,11,-1
 1161 1341 l 1,12,-1
 1161 1339 l 1,13,-1
 1176 1339 l 1,14,-1
 1178 1341 l 1,15,16
 1198 1341 1198 1341 1210.5 1328 c 128,-1,17
 1223 1315 1223 1315 1223 1294 c 0,18,19
 1223 1280 1223 1280 1212 1266 c 2,20,-1
 217 80 l 1,21,-1
 1126 80 l 2,22,23
 1142 80 1142 80 1154.5 68.5 c 128,-1,24
 1167 57 1167 57 1167 41 c 256,25,26
 1167 25 1167 25 1155 12.5 c 128,-1,27
 1143 0 1143 0 1126 0 c 2,28,-1
 160 0 l 1,29,-1
 160 2 l 1,30,-1
 145 0 l 1,31,-1
 143 0 l 2,32,33
 125 0 125 0 112.5 12.5 c 128,-1,34
 100 25 100 25 98 43 c 1,0,1
EndSplineSet
EndChar
StartChar: bracketleft
Encoding: 91 91 77
Width: 305
Flags: MW
HStem: -129 37<84.5 216 108 216 108 216> 782 37<108 232 108 108>
VStem: 71 37<-92 782 -92 800 -92 805.5>
LayerCount: 2
Back
Fore
SplineSet
216 -129 m 2
 90 -129 l 2
 79 -129 71 -121 71 -110 c 2
 71 800 l 2
 71 811 79 819 90 819 c 2
 232 819 l 2
 243 819 251 811 251 800 c 0
 251 790 243 782 232 782 c 2
 108 782 l 1
 108 -92 l 1
 216 -92 l 2
 226 -92 234 -100 234 -110 c 0
 234 -121 226 -129 216 -129 c 2
EndSplineSet
EndChar
StartChar: backslash
Encoding: 92 92 63
Width: 1093
GlyphClass: 2
Flags: W
LayerCount: 2
Back
Fore
SplineSet
140 1386 m 0,0,1
 136 1368 136 1368 144 1358 c 1,2,-1
 883 20 l 1,3,4
 898 0 898 0 916 0 c 0,5,6
 928 0 928 0 934 6 c 1,7,8
 965 24 965 24 951 57 c 1,9,-1
 209 1395 l 2,10,11
 199 1413 199 1413 176 1413 c 0,12,13
 170 1413 170 1413 158 1409 c 1,14,15
 144 1401 144 1401 140 1386 c 0,0,1
EndSplineSet
EndChar
StartChar: bracketright
Encoding: 93 93 76
Width: 305
Flags: MW
HStem: -129 37<79 208 84 208 84 227> 782 37<96 227 101 208>
VStem: 208 38<-92 782 782 782>
LayerCount: 2
Back
Fore
SplineSet
101 819 m 2
 227 819 l 2
 238 819 246 811 246 800 c 2
 246 -110 l 2
 246 -121 238 -129 227 -129 c 2
 84 -129 l 2
 74 -129 66 -121 66 -110 c 0
 66 -100 74 -92 84 -92 c 2
 208 -92 l 1
 208 782 l 1
 101 782 l 2
 91 782 82 790 82 800 c 0
 82 811 91 819 101 819 c 2
EndSplineSet
EndChar
StartChar: asciicircum
Encoding: 94 94 124
Width: 490
Flags: MW
HStem: 412 21G<119 127 373.5 382> 650 20G<256.5 266.5>
LayerCount: 2
Back
Fore
SplineSet
285 652 m 2
 392 441 l 2
 395 435 395 432 395 429 c 0
 395 420 387 412 377 412 c 0
 370 412 365 414 362 420 c 2
 261 617 l 1
 138 419 l 2
 135 414 130 412 124 412 c 0
 114 412 105 420 105 429 c 0
 105 432 106 436 109 441 c 2
 237 654 l 2
 243 664 251 670 262 670 c 0
 271 670 279 664 285 652 c 2
EndSplineSet
EndChar
StartChar: underscore
Encoding: 95 95 65
Width: 978
GlyphClass: 2
Flags: W
LayerCount: 2
Back
Fore
SplineSet
-57 -39 m 256,0,1
 -57 -23 -57 -23 -46 -11.5 c 128,-1,2
 -35 0 -35 0 -18 0 c 2,3,-1
 997 0 l 2,4,5
 1013 0 1013 0 1024.5 -11.5 c 128,-1,6
 1036 -23 1036 -23 1036 -39 c 256,7,8
 1036 -55 1036 -55 1025 -66.5 c 128,-1,9
 1014 -78 1014 -78 997 -78 c 2,10,-1
 -18 -78 l 2,11,12
 -34 -78 -34 -78 -45.5 -66.5 c 128,-1,13
 -57 -55 -57 -55 -57 -39 c 256,0,1
EndSplineSet
EndChar
StartChar: grave
Encoding: 96 96 138
Width: 490
Flags: MW
HStem: 598 21G<311 317.5> 754 20G<189 200>
LayerCount: 2
Back
Fore
SplineSet
217 763 m 2
 326 627 l 2
 330 622 332 618 332 614 c 0
 332 604 322 598 313 598 c 0
 309 598 304 600 300 604 c 2
 177 730 l 2
 172 736 169 742 169 749 c 0
 169 763 182 774 196 774 c 0
 204 774 211 771 217 763 c 2
EndSplineSet
EndChar
StartChar: a
Encoding: 97 97 66
Width: 1024
GlyphClass: 2
Flags: W
LayerCount: 2
Back
Fore
SplineSet
109 391 m 1,0,1
 104 426 104 426 104 463 c 128,-1,2
 104 500 104 500 109 538 c 0,3,4
 119 616 119 616 143 688 c 0,5,6
 206 874 206 874 344 975 c 1,7,8
 446 1053 446 1053 592 1053 c 0,9,10
 649 1053 649 1053 700.5 1041.5 c 128,-1,11
 752 1030 752 1030 791.5 1017 c 128,-1,12
 831 1004 831 1004 855 992.5 c 128,-1,13
 879 981 879 981 881 979 c 1,14,-1
 891 975 l 1,15,-1
 891 41 l 1,16,-1
 891 39 l 2,17,18
 891 23 891 23 880.5 11.5 c 128,-1,19
 870 0 870 0 854 0 c 0,20,21
 815 0 815 0 815 39 c 2,22,-1
 815 133 l 1,23,24
 805 127 805 127 797 121 c 0,25,26
 791 117 791 117 782 113 c 0,27,28
 778 111 778 111 776 111 c 1,29,30
 723 78 723 78 646 47 c 128,-1,31
 569 16 569 16 485 16 c 2,32,-1
 477 16 l 1,33,34
 330 20 330 20 229 121 c 0,35,36
 127 223 127 223 109 391 c 1,0,1
186 399 m 0,37,38
 202 278 202 278 266 195 c 1,39,40
 346 97 346 97 479 92 c 1,41,-1
 485 92 l 2,42,43
 501 92 501 92 531 96 c 128,-1,44
 561 100 561 100 602 112.5 c 128,-1,45
 643 125 643 125 693 150.5 c 128,-1,46
 743 176 743 176 803 219 c 1,47,-1
 811 225 l 1,48,-1
 821 926 l 1,49,-1
 807 930 l 1,50,51
 787 940 787 940 755 950.5 c 128,-1,52
 723 961 723 961 682 969 c 0,53,54
 659 973 659 973 638.5 975 c 128,-1,55
 618 977 618 977 600 979 c 1,56,-1
 590 979 l 2,57,58
 475 979 475 979 393 918 c 0,59,60
 270 826 270 826 217 662 c 1,61,62
 194 596 194 596 187 528 c 0,63,64
 183 491 183 491 183 456 c 0,65,66
 183 427 183 427 186 399 c 0,37,38
EndSplineSet
EndChar
StartChar: b
Encoding: 98 98 4
Width: 514
Flags: MW
HStem: 0 21G<81 91> 7 35<230.5 318> 453 38<267.5 357.5> 678 20G<81 91>
VStem: 67 37<17 42 74 296 388 683> 438 35<202.5 310>
LayerCount: 2
Back
Fore
SplineSet
302 491 m 0xbc
 428 491 473 374 473 272 c 0
 473 126 410 7 257 7 c 0
 204 7 143 26 104 42 c 1x7c
 104 17 l 2
 104 8 96 0 86 0 c 0
 76 0 67 7 67 17 c 2
 67 683 l 2
 67 692 76 698 86 698 c 0
 96 698 104 692 104 683 c 2
 104 388 l 1
 158 451 233 491 302 491 c 0xbc
249 42 m 0
 387 42 438 133 438 272 c 0
 438 348 409 453 306 453 c 0
 190 453 104 383 104 296 c 2
 104 74 l 1
 125 65 188 42 249 42 c 0
EndSplineSet
EndChar
StartChar: c
Encoding: 99 99 68
Width: 1034
GlyphClass: 2
Flags: W
LayerCount: 2
Back
Fore
SplineSet
102 429 m 0,0,1
 102 437 102 437 102 445 c 0,2,3
 102 516 102 516 118 576 c 0,4,5
 136 644 136 644 152 684 c 0,6,7
 177 743 177 743 215.5 801.5 c 128,-1,8
 254 860 254 860 301 907 c 0,9,10
 342 948 342 948 406.5 986 c 128,-1,11
 471 1024 471 1024 555 1024 c 2,12,-1
 565 1024 l 2,13,14
 651 1024 651 1024 723 990 c 128,-1,15
 795 956 795 956 848 895 c 1,16,-1
 860 879 l 1,17,18
 868 871 868 871 868 856 c 0,19,20
 868 840 868 840 858 829.5 c 128,-1,21
 848 819 848 819 831 819 c 0,22,23
 815 819 815 819 803 831 c 1,24,-1
 801 836 l 1,25,26
 793 844 793 844 786.5 853 c 128,-1,27
 780 862 780 862 776 864 c 1,28,29
 692 954 692 954 559 954 c 2,30,-1
 555 954 l 2,31,32
 449 954 449 954 346 852 c 0,33,34
 305 811 305 811 272.5 761 c 128,-1,35
 240 711 240 711 219 659 c 0,36,37
 178 555 178 555 174 475 c 0,38,39
 173 460 173 460 173 446 c 0,40,41
 174 384 174 384 188 334 c 0,42,43
 206 274 206 274 236 233.5 c 128,-1,44
 266 193 266 193 295 168 c 0,45,46
 406 74 406 74 532 70 c 1,47,-1
 561 70 l 1,48,49
 655 74 655 74 733 117 c 0,50,51
 807 158 807 158 858 229 c 1,52,53
 858 231 858 231 862 236 c 0,54,55
 880 254 880 254 895 254 c 0,56,57
 909 254 909 254 920.5 243.5 c 128,-1,58
 932 233 932 233 932 217 c 0,59,60
 932 203 932 203 922 193 c 1,61,-1
 920 193 l 1,62,-1
 920 190 l 1,63,64
 891 149 891 149 853 115.5 c 128,-1,65
 815 82 815 82 770 57 c 0,66,67
 674 6 674 6 565 0 c 1,68,-1
 543 0 l 2,69,70
 383 0 383 0 248 117 c 0,71,72
 168 187 168 187 136 268.5 c 128,-1,73
 104 350 104 350 102 429 c 0,0,1
EndSplineSet
EndChar
StartChar: d
Encoding: 100 100 6
Width: 520
Flags: MW
HStem: 0 21G<422 433.5> 4 30<170 261> 463 35<193 294.5 188.5 299.5> 685 20G<440 464>
VStem: 53 37<188 275.5 188 296.5> 422 34
LayerCount: 2
Back
Fore
SplineSet
464 685 m 2x7c
 448 18 l 2
 448 7 439 0 428 0 c 0xbc
 416 0 410 9 410 22 c 2
 412 96 l 1
 368 55 300 4 222 4 c 0
 106 4 53 116 53 225 c 0
 53 368 111 498 266 498 c 0
 323 498 380 478 420 461 c 1
 425 686 l 2
 425 696 435 705 445 705 c 0
 456 705 464 695 464 685 c 2x7c
90 228 m 0
 90 148 118 34 222 34 c 0x7c
 336 34 413 122 414 157 c 2
 419 419 l 1
 397 430 331 463 268 463 c 0
 118 463 90 323 90 228 c 0
EndSplineSet
EndChar
StartChar: e
Encoding: 101 101 7
Width: 511
Flags: MW
HStem: 0 33<257 325 257 332.5> 465 34<220 317>
VStem: 53 32<231 300.5 231 307>
LayerCount: 2
Back
Fore
SplineSet
470 83 m 0
 470 79 468 75 465 72 c 0
 430 32 363 0 302 0 c 0
 149 0 53 114 53 238 c 0
 53 376 141 499 276 499 c 0
 403 499 461 413 461 371 c 0
 461 365 455 357 443 350 c 2
 102 155 l 1
 146 74 213 33 301 33 c 0
 349 33 414 60 443 95 c 0
 446 98 449 100 453 100 c 0
 463 100 470 93 470 83 c 0
276 465 m 0
 164 465 85 364 85 237 c 0
 85 225 85 216 91 188 c 1
 427 373 l 1
 404 432 358 465 276 465 c 0
EndSplineSet
EndChar
StartChar: f
Encoding: 102 102 8
Width: 361
Flags: MW
HStem: 0 21G<141 151.5> 468 32<165 323> 481 20G<37 128 128 128 165 165> 665 34<272.5 335 257 345>
VStem: 128 37<17 468 501 573.5>
LayerCount: 2
Back
Fore
SplineSet
37 501 m 2xb8
 128 501 l 1
 128 650 187 699 327 699 c 0
 343 699 357 696 357 683 c 0
 357 673 351 665 339 665 c 0
 206 665 165 646 165 501 c 1xb8
 319 500 l 2
 327 500 335 493 335 485 c 0
 335 475 328 468 319 468 c 2
 165 468 l 1
 165 17 l 2
 165 7 157 0 146 0 c 0
 136 0 128 7 128 17 c 2
 128 468 l 1
 39 468 l 2xd8
 30 468 22 475 22 485 c 0
 22 494 30 501 37 501 c 2xb8
EndSplineSet
EndChar
StartChar: g
Encoding: 103 103 9
Width: 511
Flags: MW
HStem: -193 38<216 297.5> -1 34<190.5 279 184.5 281> 464 36<236.5 313 222.5 315.5> 492 20G<428.5 454>
VStem: 53 32<197 302 197 307.5> 406 42
LayerCount: 2
Back
Fore
SplineSet
114 -177 m 0xdc
 105 -175 99 -168 99 -159 c 0
 99 -149 107 -141 118 -141 c 0
 121 -141 131 -143 139 -145 c 0
 156 -149 186 -155 239 -155 c 0
 361 -155 401 -89 405 14 c 2
 408 102 l 1
 380 51 313 -1 249 -1 c 0
 132 -1 53 105 53 241 c 0
 53 374 155 500 290 500 c 0xec
 336 500 384 481 416 458 c 1
 416 494 418 512 439 512 c 0
 445 512 454 507 454 492 c 2
 443 9 l 2
 440 -130 355 -193 240 -193 c 0
 192 -193 146 -184 114 -177 c 0xdc
412 268 m 2
 412 424 l 1
 386 447 337 464 294 464 c 0
 179 464 85 367 85 237 c 0
 85 157 128 33 241 33 c 0
 317 33 412 88 412 268 c 2
EndSplineSet
EndChar
StartChar: h
Encoding: 104 104 73
Width: 1017
GlyphClass: 2
Flags: W
LayerCount: 2
Back
Fore
SplineSet
133 37 m 2,0,-1
 133 41 l 1,1,-1
 133 1352 l 1,2,-1
 133 1374 l 1,3,-1
 133 1376 l 2,4,5
 133 1392 133 1392 144.5 1402.5 c 128,-1,6
 156 1413 156 1413 172 1413 c 256,7,8
 188 1413 188 1413 198.5 1403 c 128,-1,9
 209 1393 209 1393 209 1376 c 2,10,-1
 209 1374 l 1,11,-1
 209 1352 l 1,12,-1
 211 651 l 1,13,14
 225 684 225 684 265 745.5 c 128,-1,15
 305 807 305 807 363.5 868.5 c 128,-1,16
 422 930 422 930 495.5 975 c 128,-1,17
 569 1020 569 1020 651 1020 c 0,18,19
 774 1020 774 1020 838 889 c 0,20,21
 908 746 908 746 913 471 c 1,22,23
 916 367 916 367 916 284 c 0,24,25
 916 242 916 242 915 206 c 0,26,27
 913 98 913 98 911 49 c 1,28,-1
 911 43 l 1,29,-1
 911 35 l 1,30,31
 909 21 909 21 900 10.5 c 128,-1,32
 891 0 891 0 874 0 c 0,33,34
 858 0 858 0 848 10 c 128,-1,35
 838 20 838 20 838 35 c 2,36,-1
 838 37 l 1,37,-1
 838 39 l 1,38,-1
 838 47 l 1,39,40
 840 92 840 92 842 200 c 0,41,42
 843 236 843 236 843 279 c 0,43,44
 843 363 843 363 840 469 c 1,45,46
 836 690 836 690 791 809 c 1,47,48
 760 895 760 895 713 928 c 0,49,50
 693 942 693 942 676 944 c 128,-1,51
 659 946 659 946 649 946 c 0,52,53
 575 946 575 946 508.5 900 c 128,-1,54
 442 854 442 854 388 792.5 c 128,-1,55
 334 731 334 731 296 670.5 c 128,-1,56
 258 610 258 610 244 582 c 0,57,58
 221 535 221 535 215 482.5 c 128,-1,59
 209 430 209 430 209 383 c 2,60,-1
 209 39 l 1,61,-1
 209 37 l 2,62,63
 209 21 209 21 198.5 10.5 c 128,-1,64
 188 0 188 0 172 0 c 256,65,66
 156 0 156 0 144.5 10 c 128,-1,67
 133 20 133 20 133 37 c 2,0,-1
EndSplineSet
EndChar
StartChar: i
Encoding: 105 105 74
Width: 360
GlyphClass: 2
Flags: W
LayerCount: 2
Back
Fore
SplineSet
133 33 m 0,0,1
 133 35 133 35 134 97.5 c 128,-1,2
 135 160 135 160 136 253 c 128,-1,3
 137 346 137 346 138 457.5 c 128,-1,4
 139 569 139 569 141 670.5 c 128,-1,5
 143 772 143 772 144 850 c 128,-1,6
 145 928 145 928 145 954 c 2,7,-1
 145 967 l 2,8,9
 145 983 145 983 157.5 995.5 c 128,-1,10
 170 1008 170 1008 186 1008 c 256,11,12
 202 1008 202 1008 214.5 995.5 c 128,-1,13
 227 983 227 983 227 967 c 2,14,-1
 227 958 l 1,15,16
 223 727 223 727 221 569.5 c 128,-1,17
 219 412 219 412 218 308.5 c 128,-1,18
 217 205 217 205 216 149.5 c 128,-1,19
 215 94 215 94 215 68.5 c 128,-1,20
 215 43 215 43 215 38 c 2,21,-1
 215 33 l 2,22,23
 215 17 215 17 202.5 5.5 c 128,-1,24
 190 -6 190 -6 174 -6 c 256,25,26
 158 -6 158 -6 145.5 5 c 128,-1,27
 133 16 133 16 133 33 c 0,0,1
152 1272 m 2,28,-1
 154 1358 l 2,29,30
 154 1374 154 1374 164 1384.5 c 128,-1,31
 174 1395 174 1395 190 1395 c 256,32,33
 206 1395 206 1395 216.5 1383.5 c 128,-1,34
 227 1372 227 1372 227 1356 c 2,35,-1
 225 1270 l 2,36,37
 225 1254 225 1254 214.5 1243.5 c 128,-1,38
 204 1233 204 1233 188 1233 c 256,39,40
 172 1233 172 1233 162 1244 c 128,-1,41
 152 1255 152 1255 152 1272 c 2,28,-1
EndSplineSet
EndChar
StartChar: j
Encoding: 106 106 75
Width: 661
GlyphClass: 2
Flags: W
LayerCount: 2
Back
Fore
SplineSet
-18 -92 m 1,0,1
 -20 -86 -20 -86 -20 -81 c 0,2,3
 -20 -72 -20 -72 -16 -64 c 0,4,5
 -10 -49 -10 -49 6 -45 c 0,6,7
 10 -43 10 -43 18 -43 c 0,8,9
 45 -43 45 -43 55 -70 c 1,10,-1
 55 -72 l 1,11,-1
 55 -74 l 1,12,-1
 59 -84 l 1,13,14
 157 -319 157 -319 284 -319 c 2,15,16
 284 -319 284 -319 285 -319 c 0,17,18
 320 -319 320 -319 359.5 -294.5 c 128,-1,19
 399 -270 399 -270 424 -190 c 0,20,21
 438 -143 438 -143 441 -99 c 128,-1,22
 444 -55 444 -55 444 -37 c 0,23,24
 444 -25 444 -25 443 30.5 c 128,-1,25
 442 86 442 86 441 167 c 128,-1,26
 440 248 440 248 438 346 c 128,-1,27
 436 444 436 444 435 542.5 c 128,-1,28
 434 641 434 641 433 731 c 128,-1,29
 432 821 432 821 430 887 c 1,30,-1
 430 987 l 1,31,-1
 430 989 l 1,32,-1
 430 991 l 2,33,34
 430 1007 430 1007 440.5 1016.5 c 128,-1,35
 451 1026 451 1026 467 1026 c 256,36,37
 483 1026 483 1026 494.5 1016 c 128,-1,38
 506 1006 506 1006 506 989 c 2,39,-1
 506 987 l 1,40,-1
 506 967 l 1,41,-1
 506 913 l 2,42,43
 506 858 506 858 508 771 c 128,-1,44
 510 684 510 684 511 584.5 c 128,-1,45
 512 485 512 485 514 382 c 128,-1,46
 516 279 516 279 517 192.5 c 128,-1,47
 518 106 518 106 519 47 c 128,-1,48
 520 -12 520 -12 520 -27 c 0,49,50
 520 -52 520 -52 515 -108 c 128,-1,51
 510 -164 510 -164 487 -223 c 1,52,53
 460 -301 460 -301 406 -344 c 0,54,55
 355 -385 355 -385 285 -385 c 0,56,57
 164 -385 164 -385 70 -256 c 1,58,59
 52 -233 52 -233 28 -193.5 c 128,-1,60
 4 -154 4 -154 -18 -94 c 1,61,-1
 -18 -92 l 1,0,1
438 1294 m 1,62,-1
 451 1384 l 1,63,64
 457 1413 457 1413 487 1413 c 0,65,66
 493 1413 493 1413 498 1411 c 0,67,68
 514 1407 514 1407 522 1394 c 0,69,70
 527 1386 527 1386 527 1376 c 0,71,72
 527 1371 527 1371 526 1366 c 0,73,74
 522 1343 522 1343 520 1325 c 1,75,76
 518 1317 518 1317 518 1310 c 128,-1,77
 518 1303 518 1303 518 1296 c 0,78,79
 518 1288 518 1288 516 1282 c 1,80,81
 512 1249 512 1249 477 1249 c 2,82,-1
 473 1249 l 1,83,84
 455 1253 455 1253 446 1264 c 0,85,86
 438 1274 438 1274 438 1294 c 1,62,-1
EndSplineSet
EndChar
StartChar: k
Encoding: 107 107 76
Width: 1042
GlyphClass: 2
Flags: W
LayerCount: 2
Back
Fore
SplineSet
133 1376 m 1,0,-1
 133 1378 l 1,1,2
 135 1394 135 1394 145.5 1404.5 c 128,-1,3
 156 1415 156 1415 172 1415 c 256,4,5
 188 1415 188 1415 199.5 1405 c 128,-1,6
 211 1395 211 1395 211 1378 c 2,7,-1
 211 1376 l 1,8,-1
 211 1374 l 1,9,-1
 213 498 l 1,10,-1
 248 520 l 1,11,12
 291 549 291 549 359.5 602 c 128,-1,13
 428 655 428 655 505 725 c 128,-1,14
 582 795 582 795 659.5 874.5 c 128,-1,15
 737 954 737 954 801 1036 c 1,16,-1
 803 1036 l 1,17,-1
 803 1038 l 1,18,19
 813 1054 813 1054 831 1055 c 0,20,21
 847 1055 847 1055 857.5 1044.5 c 128,-1,22
 868 1034 868 1034 868 1018 c 0,23,24
 868 1008 868 1008 860 995 c 1,25,-1
 846 979 l 1,26,-1
 848 979 l 1,27,28
 813 936 813 936 768 886 c 128,-1,29
 723 836 723 836 677 787.5 c 128,-1,30
 631 739 631 739 586 696 c 128,-1,31
 541 653 541 653 508 623 c 1,32,-1
 492 610 l 1,33,34
 592 487 592 487 678 379 c 0,35,36
 715 332 715 332 751.5 285 c 128,-1,37
 788 238 788 238 822 196 c 128,-1,38
 856 154 856 154 882.5 120 c 128,-1,39
 909 86 909 86 926 66 c 1,40,-1
 928 66 l 1,41,-1
 928 63 l 1,42,43
 938 53 938 53 938 41 c 1,44,45
 940 27 940 27 930 12 c 1,46,47
 922 2 922 2 903 -2 c 1,48,-1
 901 -2 l 2,49,50
 881 -2 881 -2 870 12 c 1,51,-1
 868 14 l 1,52,53
 848 39 848 39 819.5 77 c 128,-1,54
 791 115 791 115 756 158 c 128,-1,55
 721 201 721 201 684 248 c 128,-1,56
 647 295 647 295 610 340 c 0,57,58
 526 444 526 444 430 561 c 1,59,-1
 420 555 l 1,60,61
 359 508 359 508 308.5 474 c 128,-1,62
 258 440 258 440 225 420 c 2,63,-1
 215 414 l 1,64,-1
 215 45 l 1,65,-1
 215 37 l 1,66,-1
 215 35 l 2,67,68
 215 19 215 19 203.5 8.5 c 128,-1,69
 192 -2 192 -2 176 -2 c 256,70,71
 160 -2 160 -2 149.5 8 c 128,-1,72
 139 18 139 18 139 35 c 2,73,-1
 139 37 l 1,74,-1
 133 1376 l 1,0,-1
EndSplineSet
EndChar
StartChar: l
Encoding: 108 108 77
Width: 344
GlyphClass: 2
Flags: W
LayerCount: 2
Back
Fore
SplineSet
133 31 m 1,0,-1
 133 35 l 1,1,-1
 133 1374 l 1,2,-1
 133 1376 l 2,3,4
 133 1415 133 1415 172 1415 c 0,5,6
 207 1415 207 1415 211 1376 c 1,7,-1
 211 1374 l 1,8,-1
 211 35 l 1,9,-1
 209 31 l 1,10,11
 205 -2 205 -2 172 -2 c 0,12,13
 158 -2 158 -2 146.5 7 c 128,-1,14
 135 16 135 16 133 31 c 1,0,-1
EndSplineSet
EndChar
StartChar: m
Encoding: 109 109 78
Width: 1677
GlyphClass: 2
Flags: W
LayerCount: 2
Back
Fore
SplineSet
133 37 m 2,0,-1
 133 41 l 1,1,-1
 133 961 l 1,2,-1
 133 983 l 2,3,4
 133 999 133 999 144.5 1009.5 c 128,-1,5
 156 1020 156 1020 172 1020 c 256,6,7
 188 1020 188 1020 198.5 1008.5 c 128,-1,8
 209 997 209 997 209 981 c 2,9,-1
 209 961 l 1,10,-1
 209 711 l 1,11,12
 268 805 268 805 336 879 c 0,13,14
 395 942 395 942 472 994.5 c 128,-1,15
 549 1047 549 1047 637 1047 c 0,16,17
 840 1047 840 1047 889 827 c 1,18,-1
 895 799 l 1,19,20
 936 869 936 869 993 922 c 1,21,22
 1042 969 1042 969 1113 1008 c 128,-1,23
 1184 1047 1184 1047 1278 1047 c 0,24,25
 1389 1047 1389 1047 1456 979 c 0,26,27
 1544 889 1544 889 1544 674 c 2,28,-1
 1544 41 l 1,29,-1
 1544 37 l 2,30,31
 1544 21 1544 21 1532.5 10.5 c 128,-1,32
 1521 0 1521 0 1505 0 c 256,33,34
 1489 0 1489 0 1478.5 10 c 128,-1,35
 1468 20 1468 20 1468 37 c 2,36,-1
 1468 41 l 1,37,-1
 1468 680 l 2,38,39
 1468 852 1468 852 1405 924 c 0,40,41
 1360 975 1360 975 1278 975 c 0,42,43
 1225 975 1225 975 1161.5 946.5 c 128,-1,44
 1098 918 1098 918 1042 868 c 0,45,46
 976 809 976 809 940.5 733 c 128,-1,47
 905 657 905 657 905 571 c 2,48,-1
 905 41 l 1,49,-1
 903 37 l 1,50,51
 903 21 903 21 893 10.5 c 128,-1,52
 883 0 883 0 866 0 c 0,53,54
 850 0 850 0 838.5 10 c 128,-1,55
 827 20 827 20 827 37 c 2,56,-1
 827 41 l 1,57,-1
 827 678 l 2,58,59
 827 850 827 850 764 922 c 0,60,61
 719 973 719 973 637 973 c 0,62,63
 553 973 553 973 453 889 c 0,64,65
 398 844 398 844 343.5 778.5 c 128,-1,66
 289 713 289 713 238 633 c 1,67,68
 218 598 218 598 213.5 566.5 c 128,-1,69
 209 535 209 535 209 532 c 2,70,-1
 209 41 l 1,71,-1
 209 37 l 2,72,73
 209 21 209 21 198.5 10.5 c 128,-1,74
 188 0 188 0 172 0 c 256,75,76
 156 0 156 0 144.5 10 c 128,-1,77
 133 20 133 20 133 37 c 2,0,-1
EndSplineSet
EndChar
StartChar: n
Encoding: 110 110 79
Width: 1087
GlyphClass: 2
Flags: W
LayerCount: 2
Back
Fore
SplineSet
133 37 m 1,0,-1
 133 39 l 1,1,-1
 133 983 l 1,2,-1
 133 985 l 1,3,4
 137 1024 137 1024 172 1024 c 0,5,6
 188 1024 188 1024 199.5 1012.5 c 128,-1,7
 211 1001 211 1001 211 985 c 2,8,-1
 211 983 l 1,9,-1
 211 573 l 1,10,11
 250 698 250 698 315 797 c 1,12,13
 342 840 342 840 378 880 c 128,-1,14
 414 920 414 920 457 951.5 c 128,-1,15
 500 983 500 983 553 1002.5 c 128,-1,16
 606 1022 606 1022 668 1022 c 0,17,18
 766 1022 766 1022 829 971 c 1,19,20
 890 916 890 916 918 809 c 0,21,22
 943 715 943 715 947.5 574.5 c 128,-1,23
 952 434 952 434 952 223 c 0,24,25
 952 147 952 147 952 107.5 c 128,-1,26
 952 68 952 68 954 51 c 1,27,-1
 954 39 l 1,28,-1
 954 37 l 2,29,30
 954 23 954 23 944 12.5 c 128,-1,31
 934 2 934 2 918 2 c 256,32,33
 902 2 902 2 891.5 12.5 c 128,-1,34
 881 23 881 23 881 37 c 2,35,-1
 881 41 l 1,36,-1
 881 43 l 1,37,-1
 881 55 l 2,38,39
 881 75 881 75 880 112.5 c 128,-1,40
 879 150 879 150 879 221 c 0,41,42
 879 401 879 401 874.5 548.5 c 128,-1,43
 870 696 870 696 848 791 c 0,44,45
 828 875 828 875 784 911 c 1,46,47
 741 948 741 948 668 948 c 0,48,49
 578 948 578 948 502 897 c 1,50,51
 406 831 406 831 328 684 c 0,52,53
 275 582 275 582 243 457 c 128,-1,54
 211 332 211 332 211 217 c 1,55,-1
 209 43 l 1,56,-1
 209 41 l 1,57,-1
 209 39 l 2,58,59
 209 23 209 23 198.5 11.5 c 128,-1,60
 188 0 188 0 172 0 c 256,61,62
 156 0 156 0 145.5 10 c 128,-1,63
 135 20 135 20 133 37 c 1,0,-1
EndSplineSet
EndChar
StartChar: o
Encoding: 111 111 80
Width: 1091
GlyphClass: 2
Flags: W
LayerCount: 2
Back
Fore
SplineSet
104 514 m 0,0,1
 112 618 112 618 153.5 711.5 c 128,-1,2
 195 805 195 805 258.5 873.5 c 128,-1,3
 322 942 322 942 404.5 982 c 128,-1,4
 487 1022 487 1022 578 1022 c 0,5,6
 654 1022 654 1022 722.5 994.5 c 128,-1,7
 791 967 791 967 846 913 c 0,8,9
 922 839 922 839 958 734 c 0,10,11
 988 648 988 648 988 552 c 0,12,13
 988 531 988 531 987 510 c 0,14,15
 979 406 979 406 938 312.5 c 128,-1,16
 897 219 897 219 833.5 149.5 c 128,-1,17
 770 80 770 80 687 40 c 128,-1,18
 604 0 604 0 514 0 c 0,19,20
 360 0 360 0 246 111 c 0,21,22
 170 185 170 185 133 290 c 0,23,24
 103 376 103 376 103 472 c 0,25,26
 103 493 103 493 104 514 c 0,0,1
184 510 m 0,27,28
 183 493 183 493 183 476 c 0,29,30
 183 388 183 388 209 307 c 0,31,32
 225 260 225 260 249.5 218 c 128,-1,33
 274 176 274 176 305 145 c 1,34,35
 397 59 397 59 512 59 c 0,36,37
 586 59 586 59 654.5 95 c 128,-1,38
 723 131 723 131 780 197 c 1,39,40
 835 263 835 263 868 343.5 c 128,-1,41
 901 424 901 424 907 514 c 0,42,43
 908 530 908 530 908 547 c 0,44,45
 908 580 908 580 903 616 c 0,46,47
 895 668 895 668 877 717 c 1,48,49
 838 815 838 815 774 877 c 1,50,51
 686 965 686 965 567 965 c 0,52,53
 495 965 495 965 426.5 929 c 128,-1,54
 358 893 358 893 305 825 c 1,55,56
 252 762 252 762 221 681 c 128,-1,57
 190 600 190 600 184 510 c 0,27,28
EndSplineSet
EndChar
StartChar: p
Encoding: 112 112 81
Width: 1064
GlyphClass: 2
Flags: W
LayerCount: 2
Back
Fore
SplineSet
133 -377 m 1,0,-1
 133 958 l 1,1,-1
 133 979 l 1,2,-1
 133 981 l 1,3,4
 135 997 135 997 145.5 1008.5 c 128,-1,5
 156 1020 156 1020 172 1020 c 256,6,7
 188 1020 188 1020 199.5 1008.5 c 128,-1,8
 211 997 211 997 213 981 c 1,9,-1
 213 979 l 1,10,-1
 213 958 l 1,11,-1
 213 848 l 1,12,-1
 248 879 l 2,13,14
 316 940 316 940 395 977 c 1,15,16
 495 1020 495 1020 608 1020 c 2,17,-1
 633 1020 l 1,18,19
 715 1016 715 1016 777.5 975 c 128,-1,20
 840 934 840 934 881 869.5 c 128,-1,21
 922 805 922 805 942.5 725 c 128,-1,22
 963 645 963 645 963 565 c 0,23,24
 963 522 963 522 958.5 455.5 c 128,-1,25
 954 389 954 389 932 317 c 0,26,27
 905 231 905 231 848 165.5 c 128,-1,28
 791 100 791 100 713 59 c 1,29,30
 623 14 623 14 516 14 c 0,31,32
 436 14 436 14 363.5 33.5 c 128,-1,33
 291 53 291 53 242 74 c 2,34,-1
 213 86 l 1,35,-1
 213 -377 l 1,36,-1
 213 -379 l 1,37,38
 211 -395 211 -395 199.5 -406.5 c 128,-1,39
 188 -418 188 -418 172 -418 c 256,40,41
 156 -418 156 -418 145.5 -406.5 c 128,-1,42
 135 -395 135 -395 133 -379 c 1,43,-1
 133 -377 l 1,0,-1
213 172 m 1,44,-1
 223 166 l 1,45,46
 241 158 241 158 272 145.5 c 128,-1,47
 303 133 303 133 342 121 c 128,-1,48
 381 109 381 109 427 100.5 c 128,-1,49
 473 92 473 92 522 92 c 0,50,51
 614 92 614 92 686 129 c 0,52,53
 811 195 811 195 856 322 c 1,54,55
 879 381 879 381 885 446.5 c 128,-1,56
 891 512 891 512 891 565 c 0,57,58
 891 612 891 612 880.5 676.5 c 128,-1,59
 870 741 870 741 842 801 c 0,60,61
 807 877 807 877 756 909.5 c 128,-1,62
 705 942 705 942 639 946 c 1,63,-1
 614 946 l 2,64,65
 518 946 518 946 447.5 919.5 c 128,-1,66
 377 893 377 893 328 859 c 128,-1,67
 279 825 279 825 251 792.5 c 128,-1,68
 223 760 223 760 215 748 c 1,69,-1
 213 743 l 1,70,-1
 213 172 l 1,44,-1
EndSplineSet
EndChar
StartChar: q
Encoding: 113 113 18
Width: 504
Flags: MW
HStem: -197 21G<388 409.5> -6 31<205.5 295.5 205.5 306.5> 457 32<253.5 335.5 243 336.5> 499 20G<424.5 434>
VStem: 52 32<153.5 287 153.5 294.5> 392 43 405 30
LayerCount: 2
Back
Fore
SplineSet
388 -176 m 2xfc
 396 56 l 1
 396 56 352 -6 261 -6 c 0
 136 -6 52 88 52 209 c 0
 52 380 162 489 324 489 c 0
 347 489 375 486 412 479 c 1
 412 501 l 2
 412 511 420 519 429 519 c 0
 439 519 447 511 447 501 c 2
 423 -177 l 2
 423 -190 414 -197 405 -197 c 0xfa
 394 -197 387 -191 388 -176 c 2xfc
251 25 m 0
 340 25 398 73 401 159 c 2
 410 450 l 1
 377 455 349 457 324 457 c 0
 183 457 84 367 84 207 c 0
 84 100 160 25 251 25 c 0
EndSplineSet
EndChar
StartChar: r
Encoding: 114 114 83
Width: 835
GlyphClass: 2
Flags: W
LayerCount: 2
Back
Fore
SplineSet
133 35 m 1,0,-1
 133 37 l 1,1,-1
 133 981 l 1,2,-1
 133 983 l 1,3,4
 137 1022 137 1022 172 1022 c 0,5,6
 211 1022 211 1022 211 983 c 2,7,-1
 211 981 l 1,8,-1
 211 748 l 1,9,10
 240 801 240 801 281 852 c 0,11,12
 316 895 316 895 370 939 c 128,-1,13
 424 983 424 983 496 1010 c 0,14,15
 525 1020 525 1020 549 1024 c 128,-1,16
 573 1028 573 1028 598 1028 c 0,17,18
 661 1028 661 1028 702 995 c 1,19,20
 751 958 751 958 752 897 c 0,21,22
 752 879 752 879 753 858.5 c 128,-1,23
 754 838 754 838 754 815 c 2,24,-1
 754 809 l 1,25,-1
 754 807 l 1,26,27
 752 791 752 791 741.5 780.5 c 128,-1,28
 731 770 731 770 715 770 c 0,29,30
 701 770 701 770 689.5 780.5 c 128,-1,31
 678 791 678 791 678 807 c 2,32,-1
 678 811 l 1,33,-1
 678 823 l 1,34,-1
 678 881 l 2,35,36
 678 916 678 916 652.5 935 c 128,-1,37
 627 954 627 954 586 954 c 0,38,39
 553 954 553 954 516 942 c 1,40,41
 416 915 416 915 291 754 c 1,42,43
 262 715 262 715 245.5 674 c 128,-1,44
 229 633 229 633 221 599 c 128,-1,45
 213 565 213 565 212 542.5 c 128,-1,46
 211 520 211 520 211 518 c 2,47,-1
 211 37 l 1,48,-1
 211 35 l 1,49,50
 207 0 207 0 172 0 c 0,51,52
 139 0 139 0 133 35 c 1,0,-1
EndSplineSet
EndChar
StartChar: s
Encoding: 115 115 20
Width: 448
Flags: MW
HStem: -2 34<197 283.5 197 284.5> 468 31<216 293.5>
VStem: 84 33<352.5 411.5 351 431> 366 36
LayerCount: 2
Back
Fore
SplineSet
365 373 m 0
 365 378 367 382 367 394 c 0
 367 439 333 468 254 468 c 0
 173 468 117 438 117 385 c 0
 117 317 191 296 236 282 c 0
 329 252 401 230 401 134 c 0
 401 70 336 -2 233 -2 c 0
 112 -2 54 91 54 123 c 0
 54 132 62 141 71 141 c 0
 80 141 85 135 87 128 c 0
 107 69 161 32 233 32 c 0
 334 32 366 102 366 135 c 0
 366 188 341 217 236 249 c 0
 134 280 84 319 84 386 c 0
 84 476 181 499 251 499 c 0
 348 499 402 457 402 393 c 0
 402 369 396 355 383 355 c 0
 371 355 365 364 365 373 c 0
EndSplineSet
EndChar
StartChar: t
Encoding: 116 116 85
Width: 778
GlyphClass: 2
Flags: W
LayerCount: 2
Back
Fore
SplineSet
41 985 m 256,0,1
 41 1001 41 1001 51 1012.5 c 128,-1,2
 61 1024 61 1024 78 1024 c 0,3,4
 80 1024 80 1024 82 1022 c 1,5,-1
 84 1022 l 1,6,-1
 348 1022 l 1,7,-1
 348 1321 l 1,8,-1
 348 1341 l 1,9,-1
 348 1343 l 1,10,11
 350 1359 350 1359 360.5 1370.5 c 128,-1,12
 371 1382 371 1382 387 1382 c 256,13,14
 403 1382 403 1382 414.5 1371 c 128,-1,15
 426 1360 426 1360 426 1343 c 2,16,-1
 426 1341 l 1,17,-1
 426 1321 l 1,18,-1
 426 1022 l 1,19,-1
 694 1022 l 1,20,21
 694 1022 694 1022 698 1024 c 1,22,23
 714 1024 714 1024 725.5 1012.5 c 128,-1,24
 737 1001 737 1001 737 985 c 256,25,26
 737 969 737 969 726 957.5 c 128,-1,27
 715 946 715 946 698 946 c 2,28,-1
 676 946 l 1,29,-1
 426 946 l 1,30,-1
 426 39 l 1,31,-1
 426 35 l 2,32,33
 426 19 426 19 414.5 8.5 c 128,-1,34
 403 -2 403 -2 387 -2 c 256,35,36
 371 -2 371 -2 360.5 8 c 128,-1,37
 350 18 350 18 348 35 c 1,38,-1
 348 39 l 1,39,-1
 348 946 l 1,40,-1
 94 946 l 1,41,-1
 78 946 l 2,42,43
 62 946 62 946 51.5 957.5 c 128,-1,44
 41 969 41 969 41 985 c 256,0,1
EndSplineSet
EndChar
StartChar: u
Encoding: 117 117 22
Width: 502
Flags: MW
HStem: -3 30<159 254.5> 0 21G<417.5 430> 480 20G<95.5 105 421.5 431>
VStem: 68 35<293 293> 407 38
LayerCount: 2
Back
Fore
SplineSet
391 115 m 0xb8
 402 127 406 143 406 167 c 2
 408 483 l 2
 408 492 417 500 426 500 c 0
 436 500 445 492 445 483 c 2
 445 19 l 2
 445 8 436 0 424 0 c 0x78
 411 0 402 10 402 24 c 2
 402 82 l 1
 369 34 293 -3 216 -3 c 0
 68 -3 69 144 68 293 c 0
 67 372 76 435 81 474 c 0
 84 496 91 500 100 500 c 0
 110 500 119 493 118 483 c 0
 118 479 117 471 116 462 c 0
 112 427 103 370 103 294 c 0
 103 162 102 27 216 27 c 0
 313 27 368 89 391 115 c 0xb8
EndSplineSet
EndChar
StartChar: v
Encoding: 118 118 87
Width: 882
GlyphClass: 2
Flags: W
LayerCount: 2
Back
Fore
SplineSet
20 973 m 1,0,-1
 20 983 l 2,1,2
 20 999 20 999 30.5 1010.5 c 128,-1,3
 41 1022 41 1022 57 1022 c 0,4,5
 86 1022 86 1022 96 993 c 1,6,-1
 96 991 l 1,7,-1
 440 121 l 1,8,-1
 786 993 l 1,9,-1
 788 999 l 1,10,11
 798 1022 798 1022 823 1022 c 0,12,13
 839 1022 839 1022 850.5 1011.5 c 128,-1,14
 862 1001 862 1001 862 985 c 0,15,16
 862 977 862 977 858 969 c 1,17,-1
 858 967 l 1,18,-1
 479 27 l 2,19,20
 469 0 469 0 440 0 c 0,21,22
 428 0 428 0 418 8 c 128,-1,23
 408 16 408 16 403 27 c 1,24,-1
 399 41 l 1,25,-1
 20 973 l 1,0,-1
EndSplineSet
EndChar
StartChar: w
Encoding: 119 119 24
Width: 584
Flags: MW
HStem: 0 21G<122.5 131.5 415.5 424> 479 20G<564 573.5> 480 20G<22.5 32 292.5 303>
LayerCount: 2
Back
Fore
SplineSet
129 61 m 1xa0
 277 486 l 2
 280 494 287 500 298 500 c 0xa0
 308 500 315 495 318 481 c 2
 421 61 l 1
 550 483 l 2
 553 493 560 499 568 499 c 0xc0
 579 499 587 493 587 484 c 0
 587 480 586 477 585 474 c 2
 438 16 l 2
 435 6 428 0 420 0 c 0
 411 0 404 6 402 15 c 2
 295 433 l 1
 145 15 l 2
 142 6 136 0 127 0 c 0
 118 0 111 5 108 17 c 2
 12 469 l 2
 11 473 10 479 10 481 c 0
 10 492 18 500 27 500 c 0
 37 500 44 494 46 483 c 2
 129 61 l 1xa0
EndSplineSet
EndChar
StartChar: x
Encoding: 120 120 89
Width: 1042
GlyphClass: 2
Flags: W
LayerCount: 2
Back
Fore
SplineSet
23 40.5 m 128,-1,1
 23 57 23 57 33 68 c 0,2,3
 66 103 66 103 102 139 c 0,4,5
 135 172 135 172 175 214 c 128,-1,6
 215 256 215 256 258 299 c 2,7,-1
 483 528 l 1,8,-1
 121 958 l 1,9,10
 111 968 111 968 111 985 c 0,11,12
 111 1001 111 1001 121 1012 c 0,13,14
 133 1024 133 1024 150 1024 c 0,15,16
 164 1024 164 1024 176 1012 c 1,17,18
 176 1012 176 1012 192 992 c 0,19,20
 207 973 207 973 232.5 942 c 128,-1,21
 258 911 258 911 290 871 c 128,-1,22
 322 831 322 831 356 791 c 1,23,24
 436 693 436 693 537 571 c 1,25,26
 654 692 654 692 745 791 c 0,27,28
 784 832 784 832 822 870.5 c 128,-1,29
 860 909 860 909 890 940 c 128,-1,30
 920 971 920 971 938 990 c 2,31,-1
 956 1010 l 2,32,33
 966 1020 966 1020 983 1020 c 0,34,35
 997 1020 997 1020 1010 1008 c 0,36,37
 1022 996 1022 996 1022 982 c 128,-1,38
 1022 968 1022 968 1010 954 c 1,39,-1
 586 524 l 1,40,-1
 971 63 l 2,41,42
 981 51 981 51 980 37 c 128,-1,43
 979 23 979 23 969 12 c 1,44,45
 956 0 956 0 942 0 c 0,46,47
 926 0 926 0 913 12 c 1,48,49
 884 47 884 47 854 86 c 1,50,51
 825 121 825 121 791.5 162 c 128,-1,52
 758 203 758 203 723 248 c 1,53,54
 639 350 639 350 532 481 c 1,55,-1
 311 248 l 1,56,57
 270 203 270 203 229 162 c 128,-1,58
 188 121 188 121 158 88 c 1,59,60
 121 51 121 51 88 14 c 0,61,62
 78 2 78 2 61 2 c 0,63,64
 43 2 43 2 35 14 c 1,65,0
 23 24 23 24 23 40.5 c 128,-1,1
EndSplineSet
EndChar
StartChar: y
Encoding: 121 121 90
Width: 997
GlyphClass: 2
Flags: W
LayerCount: 2
Back
Fore
SplineSet
41 985 m 0,0,1
 41 1001 41 1001 52 1012.5 c 128,-1,2
 63 1024 63 1024 80 1024 c 0,3,4
 92 1024 92 1024 102.5 1017 c 128,-1,5
 113 1010 113 1010 117 999 c 1,6,-1
 512 203 l 1,7,-1
 879 1001 l 1,8,-1
 881 1001 l 1,9,10
 887 1028 887 1028 915 1028 c 0,11,12
 931 1028 931 1028 943.5 1016 c 128,-1,13
 956 1004 956 1004 956 987 c 0,14,15
 956 981 956 981 952 973 c 2,16,-1
 948 963 l 1,17,-1
 328 -391 l 1,18,-1
 326 -391 l 1,19,20
 322 -403 322 -403 311.5 -409.5 c 128,-1,21
 301 -416 301 -416 291 -416 c 0,22,23
 275 -416 275 -416 262.5 -404.5 c 128,-1,24
 250 -393 250 -393 250 -377 c 0,25,26
 250 -373 250 -373 254 -360 c 1,27,-1
 262 -342 l 1,28,-1
 471 111 l 1,29,-1
 47 965 l 1,30,31
 41 973 41 973 41 985 c 0,0,1
EndSplineSet
EndChar
StartChar: z
Encoding: 122 122 27
Width: 499
Flags: MW
HStem: -1 37<66 439 104 439 104 439> 463 37<77 434 82 400>
LayerCount: 2
Back
Fore
SplineSet
57 30 m 2
 400 463 l 1
 82 463 l 2
 72 463 64 471 64 481 c 0
 64 492 72 500 82 500 c 2
 434 500 l 2
 444 500 452 492 452 481 c 0
 452 477 451 473 448 470 c 2
 104 36 l 1
 439 36 l 2
 449 36 458 28 458 18 c 0
 458 7 449 -1 439 -1 c 2
 71 -1 l 2
 61 -1 52 7 52 18 c 0
 52 22 53 24 57 30 c 2
EndSplineSet
EndChar
StartChar: braceleft
Encoding: 123 123 92
Width: 749
GlyphClass: 2
Flags: W
LayerCount: 2
Back
Fore
SplineSet
111 717 m 0,0,1
 111 737 111 737 127 748 c 1,2,3
 127 748 127 748 135 752 c 0,4,5
 196 777 196 777 229 814.5 c 128,-1,6
 262 852 262 852 276.5 887 c 128,-1,7
 291 922 291 922 292 948.5 c 128,-1,8
 293 975 293 975 293 977 c 2,9,-1
 293 979 l 1,10,-1
 293 1362 l 2,11,12
 293 1487 293 1487 385 1567 c 1,13,14
 457 1626 457 1626 571 1649 c 1,15,-1
 582 1651 l 1,16,-1
 588 1651 l 2,17,18
 604 1651 604 1651 614.5 1640.5 c 128,-1,19
 625 1630 625 1630 625 1614 c 0,20,21
 625 1602 625 1602 615.5 1591.5 c 128,-1,22
 606 1581 606 1581 594 1579 c 2,23,-1
 586 1577 l 1,24,25
 557 1573 557 1573 519 1560.5 c 128,-1,26
 481 1548 481 1548 446 1524 c 0,27,28
 364 1465 364 1465 365 1362 c 1,29,-1
 365 981 l 1,30,-1
 365 979 l 1,31,32
 367 959 367 959 362.5 929 c 128,-1,33
 358 899 358 899 345 866.5 c 128,-1,34
 332 834 332 834 308.5 799 c 128,-1,35
 285 764 285 764 248 735 c 1,36,-1
 227 717 l 1,37,-1
 248 700 l 1,38,39
 316 647 316 647 344 569 c 1,40,41
 360 528 360 528 362.5 496.5 c 128,-1,42
 365 465 365 465 365 455 c 2,43,-1
 365 29 l 2,44,45
 365 -73 365 -73 446 -133 c 0,46,47
 481 -158 481 -158 519 -170 c 128,-1,48
 557 -182 557 -182 586 -186 c 1,49,-1
 594 -188 l 2,50,51
 606 -190 606 -190 615.5 -200.5 c 128,-1,52
 625 -211 625 -211 625 -223 c 0,53,54
 625 -239 625 -239 614.5 -249.5 c 128,-1,55
 604 -260 604 -260 588 -260 c 2,56,-1
 582 -260 l 1,57,-1
 571 -258 l 1,58,59
 456 -235 456 -235 385 -176 c 1,60,61
 293 -96 293 -96 293 29 c 2,62,-1
 293 457 l 1,63,-1
 293 459 l 2,64,65
 293 461 293 461 292 486.5 c 128,-1,66
 291 512 291 512 276.5 548 c 128,-1,67
 262 584 262 584 229.5 620.5 c 128,-1,68
 197 657 197 657 135 684 c 1,69,70
 131 684 131 684 127 688 c 1,71,72
 111 698 111 698 111 717 c 0,0,1
EndSplineSet
EndChar
StartChar: bar
Encoding: 124 124 93
Width: 356
GlyphClass: 2
Flags: W
LayerCount: 2
Back
Fore
SplineSet
139 -283 m 2,0,-1
 139 1700 l 2,1,2
 139 1716 139 1716 150.5 1727.5 c 128,-1,3
 162 1739 162 1739 176 1739 c 0,4,5
 215 1739 215 1739 215 1700 c 2,6,-1
 215 -283 l 2,7,8
 215 -299 215 -299 203.5 -309 c 128,-1,9
 192 -319 192 -319 176 -319 c 256,10,11
 160 -319 160 -319 149.5 -309 c 128,-1,12
 139 -299 139 -299 139 -283 c 2,0,-1
EndSplineSet
EndChar
StartChar: braceright
Encoding: 125 125 82
Width: 366
Flags: MW
VStem: 58 163<-118 13> 185 36<13 209 209 210 467 679>
LayerCount: 2
Back
Fore
SplineSet
185 467 m 2x40
 185 679 l 2x40
 185 754 116 778 77 786 c 0
 64 788 58 793 58 804 c 0
 58 816 68 823 79 821 c 0
 139 810 221 769 221 679 c 2
 221 466 l 2
 221 409 255 370 297 354 c 0
 306 350 309 345 309 338 c 0
 309 330 306 326 298 322 c 0
 236 292 221 256 221 210 c 2
 221 13 l 2
 221 -77 139 -118 79 -129 c 0
 68 -131 58 -124 58 -112 c 0x80
 58 -101 64 -96 77 -94 c 0
 116 -86 185 -62 185 13 c 2
 185 209 l 2
 185 262 212 305 253 338 c 1
 215 366 185 412 185 467 c 2x40
EndSplineSet
EndChar
StartChar: asciitilde
Encoding: 126 126 95
Width: 1310
GlyphClass: 2
Flags: W
LayerCount: 2
Back
Fore
SplineSet
133 428 m 0,0,1
 133 434 133 434 137 442 c 1,2,-1
 139 449 l 1,3,4
 149 476 149 476 158.5 498 c 128,-1,5
 168 520 168 520 180 543 c 0,6,7
 274 709 274 709 428 709 c 0,8,9
 473 709 473 709 509 693.5 c 128,-1,10
 545 678 545 678 573.5 653.5 c 128,-1,11
 602 629 602 629 626.5 598 c 128,-1,12
 651 567 651 567 674 537 c 1,13,14
 721 471 721 471 763 431 c 128,-1,15
 805 391 805 391 864 391 c 0,16,17
 911 391 911 391 949 415.5 c 128,-1,18
 987 440 987 440 1015.5 477 c 128,-1,19
 1044 514 1044 514 1063.5 555 c 128,-1,20
 1083 596 1083 596 1096 629 c 1,21,-1
 1102 643 l 1,22,23
 1108 668 1108 668 1135 668 c 0,24,25
 1151 668 1151 668 1161 657.5 c 128,-1,26
 1171 647 1171 647 1171 631 c 0,27,28
 1171 623 1171 623 1169 618 c 2,29,-1
 1165 606 l 1,30,31
 1151 569 1151 569 1127.5 520 c 128,-1,32
 1104 471 1104 471 1067 424 c 1,33,34
 977 319 977 319 864 319 c 0,35,36
 819 319 819 319 783.5 334.5 c 128,-1,37
 748 350 748 350 718 374.5 c 128,-1,38
 688 399 688 399 663.5 430 c 128,-1,39
 639 461 639 461 616 494 c 0,40,41
 569 560 569 560 528 598.5 c 128,-1,42
 487 637 487 637 428 637 c 0,43,44
 379 637 379 637 343 615.5 c 128,-1,45
 307 594 307 594 280.5 561 c 128,-1,46
 254 528 254 528 235.5 492.5 c 128,-1,47
 217 457 217 457 207 426 c 2,48,-1
 205 420 l 1,49,50
 199 393 199 393 170 393 c 0,51,52
 154 393 154 393 143.5 402.5 c 128,-1,53
 133 412 133 412 133 428 c 0,0,1
EndSplineSet
EndChar
StartChar: exclamdown
Encoding: 161 161 145
Width: 186
Flags: MW
HStem: -205 21G<63 88> 430 66<84.5 92.5>
VStem: 63 40<-184 318> 63 52
LayerCount: 2
Back
Fore
SplineSet
103 318 m 2xe0
 103 -184 l 2
 103 -196 93 -205 83 -205 c 0
 72 -205 63 -196 63 -184 c 2
 63 318 l 2
 63 328 72 338 83 338 c 0
 93 338 103 328 103 318 c 2xe0
61 457 m 0
 61 479 77 496 92 496 c 0
 106 496 115 483 115 468 c 0xd0
 115 448 101 430 84 430 c 0
 70 430 61 443 61 457 c 0
EndSplineSet
EndChar
StartChar: cent
Encoding: 162 162 99
Width: 546
Flags: MW
HStem: 0 21G<267.5 276> 104 31<291 291 291 329> 679 20G<287 295.5>
VStem: 77 34<284.5 353 273.5 378.5> 257 39 265 186
LayerCount: 2
Back
Fore
SplineSet
463 227 m 0xf8
 473 227 481 219 481 208 c 0
 481 204 479 200 476 196 c 0
 438 143 369 104 289 104 c 1
 287 15 l 2
 287 6 280 0 272 0 c 0
 263 0 256 7 256 17 c 2
 258 105 l 1
 109 142 77 252 77 317 c 0
 77 440 149 563 273 601 c 1
 275 684 l 2
 275 694 283 699 291 699 c 0
 300 699 306 692 306 683 c 2
 304 602 l 1
 361 604 451 553 451 521 c 0xf4
 451 512 443 504 434 504 c 0
 429 504 425 505 421 510 c 0
 391 547 351 568 302 572 c 1
 291 135 l 1
 358 139 412 169 446 214 c 0
 450 219 456 227 463 227 c 0xf8
111 319 m 0
 111 228 175 158 260 138 c 1
 271 568 l 1
 153 529 111 387 111 319 c 0
EndSplineSet
EndChar
StartChar: sterling
Encoding: 163 163 98
Width: 734
Flags: MW
HStem: -10 35<513.5 557.5> 0 21G<141.5 149> 74 35<295.5 315> 341 35<77.5 189 82 189 82 196 232 232 232 480> 701 35<355 473.5>
VStem: 178 34<476.5 565 476.5 572.5> 224 35<195 222 195 225.5>
LayerCount: 2
Back
Fore
SplineSet
670 143 m 0xbe
 683 143 688 129 685 116 c 0
 659 6 580 -10 535 -10 c 0xbe
 483 -10 424 10 371 51 c 0
 349 67 326 74 304 74 c 0
 247 74 203 40 173 17 c 0
 160 6 152 0 146 0 c 0x7e
 137 0 129 8 129 18 c 0
 129 24 132 29 136 32 c 0
 196 78 224 152 224 209 c 0
 224 242 214 274 206 303 c 2
 196 341 l 1
 82 341 l 2
 73 341 64 349 64 358 c 0
 64 368 73 376 82 376 c 2
 189 376 l 1
 182 422 178 461 178 492 c 0
 178 653 261 736 431 736 c 0
 560 736 611 636 629 557 c 0
 632 543 627 531 613 531 c 0
 602 531 597 539 595 551 c 0
 577 645 515 701 432 701 c 0
 278 701 212 638 212 492 c 0
 212 461 215 422 224 376 c 1
 480 376 l 2
 489 376 498 368 498 358 c 0
 498 349 489 341 480 341 c 2
 232 341 l 1
 232 341 240 304 244 293 c 0
 251 267 259 235 259 209 c 0
 259 181 255 133 229 93 c 1
 261 107 287 109 304 109 c 0
 335 109 366 98 393 79 c 0
 437 45 492 25 535 25 c 0
 595 25 636 57 651 123 c 0
 654 137 661 143 670 143 c 0xbe
EndSplineSet
EndChar
StartChar: currency
Encoding: 164 164 205
Width: 507
Flags: MW
HStem: 46 21G<64.5 71 448 455> 95 32<242.5 277> 374 32<242.5 276.5 242.5 293.5> 440 20G<64 71 448 454>
VStem: 104 33<234.5 268.5> 383 33<234.5 267.5 234.5 285.5>
LayerCount: 2
Back
Fore
SplineSet
382 154 m 1
 462 74 l 2
 465 71 466 67 466 63 c 0
 466 54 460 46 450 46 c 0
 446 46 442 48 439 51 c 2
 359 130 l 1
 329 108 295 95 259 95 c 0
 226 95 191 108 160 130 c 1
 79 50 l 2
 76 47 73 46 69 46 c 0
 60 46 52 53 52 63 c 0
 52 67 54 71 57 74 c 2
 138 154 l 1
 117 184 104 218 104 251 c 0
 104 286 117 320 140 350 c 1
 57 432 l 2
 53 436 52 440 52 444 c 0
 52 452 59 460 69 460 c 0
 73 460 77 458 80 455 c 2
 163 373 l 1
 193 395 226 406 259 406 c 0
 294 406 327 395 357 373 c 1
 439 455 l 2
 442 458 446 460 450 460 c 0
 458 460 466 452 466 444 c 0
 466 440 466 436 462 432 c 2
 380 350 l 1
 402 320 416 284 416 251 c 0
 416 218 403 184 382 154 c 1
137 251 m 0
 137 182 193 127 259 127 c 0
 328 127 383 182 383 251 c 0
 383 320 328 374 259 374 c 0
 193 374 137 320 137 251 c 0
EndSplineSet
EndChar
StartChar: yen
Encoding: 165 165 99
Width: 1167
GlyphClass: 2
Flags: W
LayerCount: 2
Back
Fore
SplineSet
144.5 1392.5 m 128,-1,1
 150 1407 150 1407 164 1415 c 1,2,3
 176 1419 176 1419 182 1419 c 0,4,5
 205 1419 205 1419 217 1397 c 2,6,-1
 563 702 l 1,7,-1
 942 1401 l 2,8,9
 952 1421 952 1421 975 1421 c 0,10,11
 985 1421 985 1421 993 1417 c 0,12,13
 1007 1409 1007 1409 1012 1395 c 0,14,15
 1016 1383 1016 1383 1010 1364 c 1,16,-1
 635 674 l 1,17,-1
 868 674 l 2,18,19
 884 674 884 674 894.5 663.5 c 128,-1,20
 905 653 905 653 905 637 c 256,21,22
 905 621 905 621 895 610.5 c 128,-1,23
 885 600 885 600 868 600 c 2,24,-1
 600 600 l 1,25,-1
 600 344 l 1,26,-1
 868 344 l 2,27,28
 884 344 884 344 894.5 334 c 128,-1,29
 905 324 905 324 905 309 c 0,30,31
 905 293 905 293 895 282.5 c 128,-1,32
 885 272 885 272 868 272 c 2,33,-1
 600 272 l 1,34,-1
 600 39 l 2,35,36
 600 23 600 23 588.5 11.5 c 128,-1,37
 577 0 577 0 561 0 c 256,38,39
 545 0 545 0 533.5 11.5 c 128,-1,40
 522 23 522 23 522 39 c 2,41,-1
 522 272 l 1,42,-1
 252 272 l 2,43,44
 238 272 238 272 227.5 282.5 c 128,-1,45
 217 293 217 293 217 309 c 0,46,47
 217 323 217 323 227.5 333.5 c 128,-1,48
 238 344 238 344 252 344 c 2,49,-1
 522 344 l 1,50,-1
 522 600 l 1,51,-1
 252 600 l 2,52,53
 238 600 238 600 227.5 610.5 c 128,-1,54
 217 621 217 621 217 637 c 256,55,56
 217 653 217 653 227.5 663.5 c 128,-1,57
 238 674 238 674 252 674 c 2,58,-1
 492 674 l 1,59,-1
 147 1364 l 2,60,0
 139 1378 139 1378 144.5 1392.5 c 128,-1,1
EndSplineSet
EndChar
StartChar: section
Encoding: 167 167 125
Width: 447
Flags: MW
HStem: 0 34<197 283.5 197 284.5> 619 31<216 292.5>
VStem: 83 34 365 36
LayerCount: 2
Back
Fore
SplineSet
222 404 m 0
 201 411 177 421 141 440 c 1
 125 422 117 405 117 386 c 0
 117 321 191 298 236 284 c 0
 275 273 317 257 351 239 c 1
 361 260 365 277 365 293 c 0
 365 354 311 376 222 404 c 0
366 545 m 0
 366 590 332 619 253 619 c 0
 173 619 116 589 116 535 c 0
 116 468 190 447 235 433 c 0
 328 403 400 381 400 285 c 0
 400 265 392 241 376 217 c 1
 391 195 401 169 401 136 c 0
 401 72 336 0 233 0 c 0
 112 0 54 93 54 125 c 0
 54 134 61 143 71 143 c 0
 80 143 85 137 87 130 c 0
 107 71 161 34 233 34 c 0
 334 34 366 100 366 143 c 0
 366 191 345 218 236 251 c 0
 131 282 84 320 84 388 c 0
 84 416 95 440 113 460 c 1
 93 483 83 508 83 537 c 0
 83 627 181 650 251 650 c 0
 349 650 401 608 401 544 c 0
 401 520 395 506 382 506 c 0
 370 506 364 515 364 524 c 0
 364 529 366 533 366 545 c 0
EndSplineSet
EndChar
StartChar: dieresis
Encoding: 168 168 208
Width: 490
Flags: MW
HStem: 600 66<158 176 324 341>
VStem: 127 80<626 639.5> 293 79<626 639.5>
LayerCount: 2
Back
Fore
SplineSet
207 636 m 0
 207 616 188 600 164 600 c 0
 144 600 127 613 127 630 c 0
 127 649 146 666 170 666 c 0
 189 666 207 652 207 636 c 0
372 636 m 0
 372 616 353 600 329 600 c 0
 310 600 293 613 293 630 c 0
 293 649 312 666 336 666 c 0
 354 666 372 652 372 636 c 0
EndSplineSet
EndChar
StartChar: copyright
Encoding: 169 169 100
Width: 1173
GlyphClass: 2
Flags: W
LayerCount: 2
Back
Fore
SplineSet
131 950 m 256,0,1
 131 1046 131 1046 167 1130 c 128,-1,2
 203 1214 203 1214 264.5 1277.5 c 128,-1,3
 326 1341 326 1341 407.5 1377 c 128,-1,4
 489 1413 489 1413 584 1413 c 0,5,6
 678 1413 678 1413 760 1377 c 128,-1,7
 842 1341 842 1341 903.5 1277.5 c 128,-1,8
 965 1214 965 1214 999.5 1130.5 c 128,-1,9
 1034 1047 1034 1047 1034 950 c 0,10,11
 1034 854 1034 854 999.5 770 c 128,-1,12
 965 686 965 686 903.5 623.5 c 128,-1,13
 842 561 842 561 760 524 c 128,-1,14
 678 487 678 487 584 487 c 256,15,16
 490 487 490 487 408 524 c 128,-1,17
 326 561 326 561 264.5 623.5 c 128,-1,18
 203 686 203 686 167 770 c 128,-1,19
 131 854 131 854 131 950 c 256,0,1
188 950 m 256,20,21
 188 866 188 866 219 792.5 c 128,-1,22
 250 719 250 719 304 663.5 c 128,-1,23
 358 608 358 608 430 575.5 c 128,-1,24
 502 543 502 543 584 543 c 256,25,26
 666 543 666 543 737.5 575.5 c 128,-1,27
 809 608 809 608 863.5 663.5 c 128,-1,28
 918 719 918 719 948.5 792.5 c 128,-1,29
 979 866 979 866 979 950 c 256,30,31
 979 1034 979 1034 948.5 1109 c 128,-1,32
 918 1184 918 1184 863.5 1239 c 128,-1,33
 809 1294 809 1294 737.5 1326 c 128,-1,34
 666 1358 666 1358 584 1358 c 256,35,36
 502 1358 502 1358 430 1326 c 128,-1,37
 358 1294 358 1294 304 1239 c 128,-1,38
 250 1184 250 1184 219 1109 c 128,-1,39
 188 1034 188 1034 188 950 c 256,20,21
338 952 m 0,40,41
 338 1067 338 1067 406 1135 c 1,42,43
 478 1203 478 1203 590 1202 c 0,44,45
 637 1202 637 1202 674 1184.5 c 128,-1,46
 711 1167 711 1167 733 1149 c 1,47,-1
 739 1145 l 1,48,49
 751 1139 751 1139 752 1122 c 1,50,51
 752 1095 752 1095 723 1096 c 0,52,53
 713 1096 713 1096 707 1102 c 1,54,-1
 700 1104 l 1,55,56
 682 1120 682 1120 653.5 1133.5 c 128,-1,57
 625 1147 625 1147 590 1147 c 0,58,59
 477 1147 477 1147 424 1069 c 1,60,61
 406 1040 406 1040 399.5 1008.5 c 128,-1,62
 393 977 393 977 393 952 c 0,63,64
 393 913 393 913 408.5 882.5 c 128,-1,65
 424 852 424 852 448.5 829.5 c 128,-1,66
 473 807 473 807 505 794.5 c 128,-1,67
 537 782 537 782 567 782 c 0,68,69
 673 782 673 782 727 848 c 1,70,71
 735 856 735 856 737 862 c 1,72,-1
 739 862 l 1,73,-1
 745 872 l 1,74,75
 751 886 751 886 768 887 c 1,76,77
 797 887 797 887 797 858 c 0,78,79
 797 852 797 852 793 844 c 1,80,-1
 786 834 l 2,81,82
 776 818 776 818 758.5 799 c 128,-1,83
 741 780 741 780 714.5 765 c 128,-1,84
 688 750 688 750 651 738.5 c 128,-1,85
 614 727 614 727 567 727 c 0,86,87
 479 727 479 727 412 788 c 1,88,89
 338 851 338 851 338 952 c 0,40,41
EndSplineSet
EndChar
StartChar: ordfeminine
Encoding: 170 170 129
Width: 240
Flags: MW
HStem: 356 21G<222.5 231> 362 30<87 131.5> 644 31<108.5 159>
VStem: 3 31<472 525.5 472 535> 209 32
LayerCount: 2
Back
Fore
SplineSet
227 356 m 0xb8
 218 356 209 361 209 395 c 1
 174 372 148 362 115 362 c 0x78
 51 362 3 418 3 493 c 0
 3 577 53 675 146 675 c 0
 185 675 225 662 241 650 c 1
 242 372 l 2
 242 362 235 356 227 356 c 0xb8
150 644 m 0
 67 644 34 556 34 495 c 0
 34 449 58 392 116 392 c 0x78
 155 392 195 419 208 428 c 1
 211 630 l 1
 198 638 168 644 150 644 c 0
EndSplineSet
EndChar
StartChar: guillemotleft
Encoding: 171 171 101
Width: 1226
GlyphClass: 2
Flags: W
LayerCount: 2
Back
Fore
SplineSet
217 512 m 0,0,1
 217 496 217 496 231 481 c 1,2,-1
 577 172 l 1,3,4
 592 162 592 162 604 162 c 0,5,6
 620 162 620 162 633 174 c 1,7,8
 643 188 643 188 643 203 c 1,9,10
 641 217 641 217 629 229 c 2,11,-1
 313 510 l 1,12,-1
 663 813 l 1,13,14
 675 821 675 821 676 840 c 1,15,16
 678 852 678 852 667 866 c 1,17,18
 653 880 653 880 639 881 c 0,19,20
 627 881 627 881 612 870 c 1,21,-1
 231 541 l 1,22,23
 217 527 217 527 217 512 c 0,0,1
598 512 m 1,24,25
 596 496 596 496 610 481 c 1,26,-1
 958 172 l 2,27,28
 969 162 969 162 983 162 c 0,29,30
 1003 162 1003 162 1012 174 c 0,31,32
 1022 188 1022 188 1022 203 c 0,33,34
 1022 213 1022 213 1009 229 c 1,35,-1
 694 510 l 1,36,-1
 1042 813 l 1,37,38
 1054 821 1054 821 1055 840 c 1,39,40
 1057 852 1057 852 1046 866 c 1,41,42
 1032 880 1032 880 1018 881 c 0,43,44
 1006 881 1006 881 991 870 c 1,45,-1
 610 541 l 1,46,47
 598 529 598 529 598 512 c 1,24,25
EndSplineSet
EndChar
StartChar: logicalnot
Encoding: 172 172 139
Width: 470
Flags: MW
HStem: 130 21G<396 405> 290 32<54 401 58 385>
VStem: 384 32<142 146>
LayerCount: 2
Back
Fore
SplineSet
401 130 m 0
 391 130 384 138 384 146 c 2
 385 290 l 1
 58 290 l 2
 50 290 42 297 42 305 c 0
 42 315 50 322 58 322 c 2
 401 322 l 2
 409 322 417 316 417 305 c 2
 416 146 l 2
 416 138 409 130 401 130 c 0
EndSplineSet
EndChar
StartChar: uni00AD
Encoding: 173 173 141
Width: 431
Flags: MW
HStem: 232 36<87.5 350 92 350>
LayerCount: 2
Back
Fore
SplineSet
350 232 m 2
 92 232 l 2
 83 232 75 241 75 250 c 0
 75 259 83 268 92 268 c 2
 350 268 l 2
 359 268 368 259 368 250 c 0
 368 241 359 232 350 232 c 2
EndSplineSet
EndChar
StartChar: registered
Encoding: 174 174 103
Width: 1173
GlyphClass: 2
Flags: W
LayerCount: 2
Back
Fore
SplineSet
131 952 m 0,0,1
 131 1046 131 1046 167 1130 c 128,-1,2
 203 1214 203 1214 264.5 1277.5 c 128,-1,3
 326 1341 326 1341 407.5 1377 c 128,-1,4
 489 1413 489 1413 584 1413 c 0,5,6
 676 1413 676 1413 758 1377 c 128,-1,7
 840 1341 840 1341 901.5 1277.5 c 128,-1,8
 963 1214 963 1214 998.5 1130.5 c 128,-1,9
 1034 1047 1034 1047 1034 952 c 0,10,11
 1034 856 1034 856 998.5 772 c 128,-1,12
 963 688 963 688 901.5 624.5 c 128,-1,13
 840 561 840 561 758 525 c 128,-1,14
 676 489 676 489 584 489 c 0,15,16
 490 489 490 489 408 525 c 128,-1,17
 326 561 326 561 264.5 624.5 c 128,-1,18
 203 688 203 688 167 772 c 128,-1,19
 131 856 131 856 131 952 c 0,0,1
188 952 m 256,20,21
 188 868 188 868 219 793.5 c 128,-1,22
 250 719 250 719 304 663.5 c 128,-1,23
 358 608 358 608 430 576.5 c 128,-1,24
 502 545 502 545 584 545 c 256,25,26
 666 545 666 545 737.5 576.5 c 128,-1,27
 809 608 809 608 862 663.5 c 128,-1,28
 915 719 915 719 947 793.5 c 128,-1,29
 979 868 979 868 979 952 c 256,30,31
 979 1036 979 1036 947 1110 c 128,-1,32
 915 1184 915 1184 862 1239 c 128,-1,33
 809 1294 809 1294 737.5 1326 c 128,-1,34
 666 1358 666 1358 584 1358 c 256,35,36
 502 1358 502 1358 430 1326 c 128,-1,37
 358 1294 358 1294 304 1239 c 128,-1,38
 250 1184 250 1184 219 1110 c 128,-1,39
 188 1036 188 1036 188 952 c 256,20,21
381 784 m 0,40,41
 381 786 381 786 382 788.5 c 128,-1,42
 383 791 383 791 383 795 c 2,43,-1
 385 813 l 1,44,-1
 444 1171 l 1,45,46
 448 1189 448 1189 467 1194 c 0,47,48
 469 1194 469 1194 499.5 1198 c 128,-1,49
 530 1202 530 1202 573 1202 c 0,50,51
 581 1202 581 1202 586 1200 c 1,52,53
 719 1200 719 1200 774 1151 c 0,54,55
 811 1118 811 1118 811 1073 c 0,56,57
 811 1024 811 1024 752 989 c 1,58,59
 705 958 705 958 614 940 c 2,60,-1
 565 930 l 1,61,-1
 729 817 l 1,62,-1
 739 809 l 1,63,64
 751 803 751 803 752 786 c 1,65,66
 752 758 752 758 725 758 c 0,67,68
 715 758 715 758 709 764 c 1,69,-1
 692 774 l 1,70,-1
 461 934 l 1,71,-1
 440 803 l 1,72,-1
 436 786 l 1,73,74
 432 761 432 761 410 762 c 0,75,76
 390 762 390 762 381 784 c 0,40,41
467 977 m 1,77,-1
 496 979 l 2,78,79
 543 983 543 983 588 991 c 128,-1,80
 633 999 633 999 670 1012 c 1,81,82
 727 1030 727 1030 740.5 1045.5 c 128,-1,83
 754 1061 754 1061 754 1073 c 0,84,85
 754 1096 754 1096 737 1110 c 0,86,87
 710 1133 710 1133 662 1140 c 128,-1,88
 614 1147 614 1147 573 1147 c 0,89,90
 557 1147 557 1147 542.5 1146 c 128,-1,91
 528 1145 528 1145 512 1143 c 1,92,-1
 496 1143 l 1,93,-1
 467 977 l 1,77,-1
EndSplineSet
EndChar
StartChar: macron
Encoding: 175 175 146
Width: 490
Flags: MW
HStem: 625 33<137 359 141 359>
LayerCount: 2
Back
Fore
SplineSet
359 625 m 2
 141 625 l 2
 133 625 125 633 125 642 c 0
 125 650 133 658 141 658 c 2
 359 658 l 2
 367 658 374 650 374 642 c 0
 374 633 367 625 359 625 c 2
EndSplineSet
EndChar
StartChar: degree
Encoding: 176 176 70
Width: 233
Flags: MW
HStem: 483 28<95.5 145 95.5 151.5> 690 27<95.5 145>
VStem: 3 26<575 625 575 632.5> 209 26<575 625>
LayerCount: 2
Back
Fore
SplineSet
120 483 m 0
 55 483 3 536 3 600 c 0
 3 665 55 717 120 717 c 0
 183 717 235 665 235 600 c 0
 235 536 183 483 120 483 c 0
120 690 m 0
 71 690 29 650 29 600 c 0
 29 550 71 511 120 511 c 0
 170 511 209 550 209 600 c 0
 209 650 170 690 120 690 c 0
EndSplineSet
EndChar
StartChar: plusminus
Encoding: 177 177 140
Width: 431
Flags: MW
HStem: -1 34<90.5 344 95 344> 281 35<73.5 202 78 202 78 236 236 361> 425 20G<214 224.5>
VStem: 202 34<158 281 316 428>
LayerCount: 2
Back
Fore
SplineSet
78 281 m 2
 69 281 61 289 61 298 c 0
 61 307 69 316 78 316 c 2
 202 316 l 1
 202 428 l 2
 202 437 208 445 220 445 c 0
 229 445 236 437 236 428 c 2
 236 316 l 1
 361 316 l 2
 370 316 378 307 378 298 c 0
 378 289 370 281 361 281 c 2
 236 281 l 1
 236 158 l 2
 236 149 228 142 220 142 c 0
 210 142 202 150 202 158 c 2
 202 281 l 1
 78 281 l 2
78 17 m 0
 78 26 86 33 95 33 c 2
 344 33 l 2
 353 33 360 26 360 17 c 0
 360 6 353 -1 344 -1 c 2
 95 -1 l 2
 86 -1 78 5 78 17 c 0
EndSplineSet
EndChar
StartChar: twosuperior
Encoding: 178 178 142
Width: 230
Flags: MW
HStem: 462 28<35 213 35 213> 813 27<100.5 141>
VStem: 6 29<462 523.5 490 523.5 490 523.5> 194 28<730 764.5>
LayerCount: 2
Back
Fore
SplineSet
213 462 m 2
 6 462 l 1
 6 475 l 2
 6 572 54 613 148 672 c 0
 175 690 194 713 194 747 c 0
 194 782 164 813 118 813 c 0
 83 813 51 789 37 776 c 0
 26 766 23 761 17 761 c 0
 10 761 3 767 3 775 c 0
 3 779 4 782 8 786 c 0
 25 805 64 840 117 840 c 0
 171 840 222 807 222 747 c 0
 222 688 178 655 135 630 c 0
 89 602 35 557 35 490 c 1
 213 490 l 2
 220 490 227 485 227 475 c 0
 227 468 220 462 213 462 c 2
EndSplineSet
EndChar
StartChar: threesuperior
Encoding: 179 179 143
Width: 226
Flags: MW
HStem: 458 28<95.5 130 95.5 143.5> 458 232 816 28<92 127.5>
VStem: 20 208<538.5 811.5> 192 36
LayerCount: 2
Back
Fore
SplineSet
45 794 m 0x68
 40 790 36 789 33 789 c 0
 27 789 20 794 20 802 c 0
 20 821 63 844 114 844 c 0
 167 844 219 814 219 761 c 0
 219 728 195 696 157 677 c 1
 208 655 228 617 228 573 c 0
 228 504 174 458 113 458 c 0
 54 458 21 493 6 518 c 0
 4 522 3 525 3 529 c 0
 3 537 8 543 17 543 c 0
 22 543 26 541 28 537 c 0
 49 503 78 486 113 486 c 0xb0
 147 486 200 509 200 573 c 0
 200 619 175 656 103 662 c 0
 95 663 89 667 89 675 c 0
 89 686 95 689 103 690 c 0
 140 692 192 715 192 761 c 0
 192 800 143 816 112 816 c 0
 72 816 57 804 45 794 c 0x68
EndSplineSet
EndChar
StartChar: acute
Encoding: 180 180 216
Width: 490
Flags: MW
HStem: 587 21G<165.5 172> 715 20G<308 318.5>
LayerCount: 2
Back
Fore
SplineSet
329 692 m 2
 186 594 l 2
 179 589 174 587 170 587 c 0
 161 587 153 595 153 604 c 0
 153 607 153 612 159 617 c 2
 287 721 l 2
 296 728 303 735 313 735 c 0
 324 735 337 722 337 708 c 0
 337 701 336 697 329 692 c 2
EndSplineSet
EndChar
StartChar: mu
Encoding: 181 181 148
Width: 490
Flags: MW
HStem: -189 21G<115 126.5> -3 30<199 251.5> 0 21G<414.5 427> 480 20G<94.5 104 418.5 428>
VStem: 66 38<193 296> 404 38
LayerCount: 2
Back
Fore
SplineSet
215 27 m 0xdc
 312 27 365 89 388 115 c 0
 399 127 403 143 403 167 c 2
 405 483 l 2
 405 492 414 500 423 500 c 0
 433 500 442 492 442 483 c 2
 442 19 l 2
 442 8 433 0 421 0 c 0xbc
 408 0 399 10 399 24 c 2
 399 82 l 1
 366 34 290 -3 213 -3 c 0
 185 -3 142 7 115 28 c 1
 118 -35 129 -120 137 -168 c 0
 139 -177 134 -189 119 -189 c 0
 111 -189 103 -185 102 -176 c 0
 81 -35 66 104 66 256 c 0
 66 336 74 435 79 474 c 0
 82 496 89 500 100 500 c 0
 108 500 116 494 116 483 c 0
 116 479 115 471 114 462 c 0
 110 427 104 370 104 294 c 0
 104 92 126 27 215 27 c 0xdc
EndSplineSet
EndChar
StartChar: paragraph
Encoding: 182 182 106
Width: 549
Flags: MW
HStem: -84 21G<265.5 277.5 382.5 394.5>
VStem: 315 49 445 37<526 663.5 526 663.5>
LayerCount: 2
Back
Fore
SplineSet
409 -68 m 0
 407 -79 399 -84 390 -84 c 0
 375 -84 372 -71 374 -61 c 0
 411 139 445 377 445 650 c 0
 445 677 445 704 444 731 c 0
 444 742 452 751 462 751 c 0
 472 751 480 743 481 734 c 0
 483 705 482 677 482 650 c 0
 482 402 451 152 409 -68 c 0
390 763 m 2
 362 756 l 1
 363 720 364 675 364 639 c 0
 364 394 330 138 292 -69 c 0
 290 -80 282 -84 273 -84 c 0
 258 -84 253 -71 256 -61 c 0
 278 22 310 278 315 364 c 1
 284 364 l 2
 175 364 72 413 72 538 c 0
 72 683 227 768 388 798 c 0
 397 800 405 793 405 782 c 0
 405 774 403 766 390 763 c 2
EndSplineSet
EndChar
StartChar: periodcentered
Encoding: 183 183 149
Width: 162
Flags: MW
HStem: 219 21G<72 87> 264 20G<78.5 93>
VStem: 56 54<247 257.5>
LayerCount: 2
Back
Fore
SplineSet
79 219 m 0
 65 219 56 232 56 248 c 0
 56 267 70 284 87 284 c 0
 99 284 110 272 110 257 c 0
 110 237 95 219 79 219 c 0
EndSplineSet
EndChar
StartChar: cedilla
Encoding: 184 184 220
Width: 490
Flags: MW
HStem: -209 22<229.5 261 229.5 267.5> -64 23<235 257.5 222 261> 3 20G<219.5 222>
VStem: 172 156<-176 -100.5> 305 23<-142 -108>
LayerCount: 2
Back
Fore
SplineSet
206 -9 m 0xe8
 216 17 218 23 221 23 c 0
 223 23 224 21 224 13 c 2
 222 -41 l 1
 293 -41 328 -78 328 -123 c 0
 328 -170 291 -209 244 -209 c 0
 213 -209 172 -189 172 -163 c 0xf0
 172 -157 177 -154 182 -154 c 0
 187 -154 190 -159 194 -164 c 0
 203 -174 215 -187 244 -187 c 0
 278 -187 305 -159 305 -125 c 0
 305 -91 278 -64 244 -64 c 0
 226 -64 215 -70 208 -75 c 0
 204 -78 201 -79 199 -79 c 0
 193 -79 188 -75 188 -69 c 0
 188 -65 203 -18 206 -9 c 0xe8
EndSplineSet
EndChar
StartChar: onesuperior
Encoding: 185 185 147
Width: 156
Flags: MW
HStem: 463 27<14.5 71 19 71 98 142> 823 20G<88.5 94>
VStem: 4 97 73 28
LayerCount: 2
Back
Fore
SplineSet
8 761 m 2xd0
 79 838 l 2
 83 842 87 843 90 843 c 0
 98 843 104 838 104 828 c 2
 98 490 l 1
 142 490 l 2
 150 490 156 483 156 476 c 0
 156 468 149 463 142 463 c 2
 19 463 l 2
 10 463 6 469 6 476 c 0
 6 485 12 490 19 490 c 2
 71 490 l 1
 76 793 l 1
 30 743 l 2
 25 737 20 737 16 737 c 0
 11 737 4 742 4 750 c 0xe0
 4 754 5 758 8 761 c 2xd0
EndSplineSet
EndChar
StartChar: ordmasculine
Encoding: 186 186 128
Width: 267
Flags: MW
HStem: 362 26<100 154 100 175> 644 26<115.5 170>
VStem: 3 32<473 540.5> 238 32<494 556>
LayerCount: 2
Back
Fore
SplineSet
127 362 m 0
 60 362 3 422 3 501 c 0
 3 580 57 670 146 670 c 0
 213 670 270 613 270 526 c 0
 270 462 223 362 127 362 c 0
143 644 m 0
 88 644 35 580 35 504 c 0
 35 442 73 388 127 388 c 0
 181 388 238 446 238 526 c 0
 238 586 197 644 143 644 c 0
EndSplineSet
EndChar
StartChar: guillemotright
Encoding: 187 187 88
Width: 581
Flags: MW
HStem: 78 21G<101 108 311 318> 410 20G<84.5 90.5 294.5 300.5>
LayerCount: 2
Back
Fore
SplineSet
316 78 m 0
 306 78 297 87 297 96 c 0
 297 101 299 105 304 110 c 2
 458 249 l 1
 288 397 l 2
 284 401 281 406 281 412 c 0
 281 422 290 430 299 430 c 0
 302 430 307 429 312 425 c 2
 499 264 l 2
 505 259 506 254 506 249 c 0
 506 243 503 238 499 235 c 2
 329 83 l 2
 324 79 320 78 316 78 c 0
106 78 m 0
 96 78 87 87 87 96 c 0
 87 101 89 105 94 110 c 2
 248 249 l 1
 78 397 l 2
 74 401 71 406 71 412 c 0
 71 422 80 430 89 430 c 0
 92 430 97 429 102 425 c 2
 289 264 l 2
 295 259 296 254 296 249 c 0
 296 243 293 238 289 235 c 2
 119 83 l 2
 114 79 110 78 106 78 c 0
EndSplineSet
EndChar
StartChar: questiondown
Encoding: 191 191 115
Width: 523
Flags: MW
HStem: -195 35<216.5 319 214 320> 481 20G<354.5 369.5>
VStem: 62 35<-31.5 48.5 -31.5 64.5> 331 55<462.5 472.5>
LayerCount: 2
Back
Fore
SplineSet
199 229 m 2
 321 337 l 2
 325 340 329 343 333 343 c 0
 343 343 351 334 351 325 c 0
 351 320 349 316 345 312 c 2
 219 199 l 2
 155 142 97 88 97 9 c 0
 97 -72 146 -160 282 -160 c 0
 356 -160 403 -115 435 -78 c 0
 437 -76 441 -73 447 -73 c 0
 457 -73 465 -81 465 -89 c 0
 465 -98 456 -109 446 -120 c 0
 414 -155 358 -195 282 -195 c 0
 151 -195 62 -113 62 9 c 0
 62 120 147 183 199 229 c 2
363 501 m 0
 376 501 386 487 386 472 c 0
 386 453 371 435 354 435 c 0
 342 435 331 448 331 462 c 0
 331 483 346 501 363 501 c 0
EndSplineSet
EndChar
StartChar: Agrave
Encoding: 192 192 152
Width: 614
Flags: MW
HStem: -1 21G<546 555.5> 0 21G<66 76> 669 20G<323.5 333> 892 20G<245 256>
LayerCount: 2
Back
Fore
SplineSet
53 27 m 2x70
 122 203 l 1
 85 194 l 2
 73 192 65 202 65 212 c 0
 65 222 72 229 80 231 c 2
 139 244 l 1
 309 677 l 2
 312 684 319 689 328 689 c 0
 338 689 344 683 346 677 c 2
 568 32 l 2
 571 23 571 18 571 15 c 0
 571 4 561 -1 550 -1 c 0xb0
 542 -1 536 3 533 11 c 2
 444 272 l 1
 167 211 l 1
 89 11 l 2
 86 4 80 0 72 0 c 0
 60 0 51 8 51 18 c 0
 51 21 52 25 53 27 c 2x70
184 253 m 1
 431 307 l 1
 325 614 l 1
 184 253 l 1
273 901 m 2
 382 765 l 2
 386 760 388 756 388 752 c 0
 388 742 378 736 369 736 c 0
 365 736 360 738 356 742 c 2
 233 868 l 2
 228 874 225 880 225 887 c 0
 225 901 238 912 252 912 c 0
 260 912 267 909 273 901 c 2
EndSplineSet
EndChar
StartChar: Aacute
Encoding: 193 193 153
Width: 614
Flags: MW
HStem: -1 21G<546 555.5> 0 21G<66 76> 669 20G<323.5 333> 880 20G<407 417.5>
LayerCount: 2
Back
Fore
SplineSet
53 27 m 2x70
 122 203 l 1
 85 194 l 2
 73 192 65 202 65 212 c 0
 65 222 72 229 80 231 c 2
 139 244 l 1
 309 677 l 2
 312 684 319 689 328 689 c 0
 338 689 344 683 346 677 c 2
 568 32 l 2
 571 23 571 18 571 15 c 0
 571 4 561 -1 550 -1 c 0xb0
 542 -1 536 3 533 11 c 2
 444 272 l 1
 167 211 l 1
 89 11 l 2
 86 4 80 0 72 0 c 0
 60 0 51 8 51 18 c 0
 51 21 52 25 53 27 c 2x70
184 253 m 1
 431 307 l 1
 325 614 l 1
 184 253 l 1
428 857 m 2
 285 759 l 2
 278 754 273 752 269 752 c 0
 260 752 252 760 252 769 c 0
 252 772 252 777 258 782 c 2
 386 886 l 2
 395 893 402 900 412 900 c 0
 423 900 436 887 436 873 c 0
 436 866 435 862 428 857 c 2
EndSplineSet
EndChar
StartChar: Acircumflex
Encoding: 194 194 154
Width: 614
Flags: MW
HStem: -1 21G<546 555.5> 0 21G<66 76> 669 20G<323.5 333> 882 20G<334 338.5>
LayerCount: 2
Back
Fore
SplineSet
336 902 m 0x70
 341 902 347 900 351 896 c 2
 463 783 l 2
 467 779 469 776 469 771 c 0
 469 762 461 753 452 753 c 0
 447 753 443 755 439 758 c 2
 334 853 l 1
 210 757 l 2
 207 755 203 753 199 753 c 0
 189 753 181 762 181 771 c 0
 181 776 184 781 188 784 c 2
 323 897 l 2
 327 900 332 902 336 902 c 0x70
53 27 m 2
 122 203 l 1
 85 194 l 2
 73 192 65 202 65 212 c 0
 65 222 72 229 80 231 c 2
 139 244 l 1
 309 677 l 2
 312 684 319 689 328 689 c 0
 338 689 344 683 346 677 c 2
 568 32 l 2
 571 23 571 18 571 15 c 0
 571 4 561 -1 550 -1 c 0xb0
 542 -1 536 3 533 11 c 2
 444 272 l 1
 167 211 l 1
 89 11 l 2
 86 4 80 0 72 0 c 0
 60 0 51 8 51 18 c 0
 51 21 52 25 53 27 c 2
184 253 m 1
 431 307 l 1
 325 614 l 1
 184 253 l 1
EndSplineSet
EndChar
StartChar: Atilde
Encoding: 195 195 155
Width: 614
Flags: MW
HStem: -1 21G<546 555.5> 0 21G<66 76> 669 20G<323.5 333> 735 26<385.5 415 385.5 421> 842 27<248 266>
LayerCount: 2
Back
Fore
SplineSet
467 844 m 0x78
 469 850 474 855 483 855 c 0
 492 855 497 849 497 841 c 0
 497 803 448 735 394 735 c 0
 353 735 332 766 313 792 c 0
 287 829 276 842 256 842 c 0
 240 842 200 829 183 771 c 0
 180 762 175 758 168 758 c 0
 158 758 155 766 155 774 c 0
 155 816 209 869 256 869 c 0
 297 869 318 839 337 811 c 0
 354 786 375 761 396 761 c 0
 434 761 455 812 467 844 c 0x78
53 27 m 2
 122 203 l 1
 85 194 l 2
 73 192 65 202 65 212 c 0
 65 222 72 229 80 231 c 2
 139 244 l 1
 309 677 l 2
 312 684 319 689 328 689 c 0
 338 689 344 683 346 677 c 2
 568 32 l 2
 571 23 571 18 571 15 c 0
 571 4 561 -1 550 -1 c 0xb8
 542 -1 536 3 533 11 c 2
 444 272 l 1
 167 211 l 1
 89 11 l 2
 86 4 80 0 72 0 c 0
 60 0 51 8 51 18 c 0
 51 21 52 25 53 27 c 2
184 253 m 1
 431 307 l 1
 325 614 l 1
 184 253 l 1
EndSplineSet
EndChar
StartChar: Adieresis
Encoding: 196 196 156
Width: 614
Flags: MW
HStem: -1 21G<546 555.5> 0 21G<66 76> 669 20G<323.5 333> 755 65<235 252.5 399 416>
VStem: 205 78<780.5 794.5> 368 79<780.5 794.5>
LayerCount: 2
Back
Fore
SplineSet
283 790 m 0x7c
 283 771 264 755 241 755 c 0
 221 755 205 768 205 785 c 0
 205 804 223 820 247 820 c 0
 265 820 283 807 283 790 c 0x7c
447 790 m 0
 447 771 428 755 404 755 c 0
 385 755 368 768 368 785 c 0
 368 804 387 820 411 820 c 0
 429 820 447 807 447 790 c 0
53 27 m 2
 122 203 l 1
 85 194 l 2
 73 192 65 202 65 212 c 0
 65 222 72 229 80 231 c 2
 139 244 l 1
 309 677 l 2
 312 684 319 689 328 689 c 0
 338 689 344 683 346 677 c 2
 568 32 l 2
 571 23 571 18 571 15 c 0
 571 4 561 -1 550 -1 c 0xbc
 542 -1 536 3 533 11 c 2
 444 272 l 1
 167 211 l 1
 89 11 l 2
 86 4 80 0 72 0 c 0
 60 0 51 8 51 18 c 0
 51 21 52 25 53 27 c 2
184 253 m 1
 431 307 l 1
 325 614 l 1
 184 253 l 1
EndSplineSet
EndChar
StartChar: Aring
Encoding: 197 197 157
Width: 614
Flags: MW
HStem: -1 21G<546 555.5> 0 21G<66 76> 669 20G<323.5 333> 743 27<304.5 351 304.5 354> 920 28<312.5 366>
VStem: 215 23<816.5 855.5 816.5 870> 428 23<825.5 867.5>
LayerCount: 2
Back
Fore
SplineSet
322 743 m 0x7e
 263 743 215 785 215 838 c 0
 215 902 280 948 345 948 c 0
 401 948 451 906 451 852 c 0
 451 787 386 743 322 743 c 0x7e
341 920 m 0
 279 920 238 873 238 838 c 0
 238 795 278 770 331 770 c 0
 371 770 428 801 428 850 c 0
 428 885 391 920 341 920 c 0
53 27 m 2
 122 203 l 1
 85 194 l 2
 73 192 65 202 65 212 c 0
 65 222 72 229 80 231 c 2
 139 244 l 1
 309 677 l 2
 312 684 319 689 328 689 c 0
 338 689 344 683 346 677 c 2
 568 32 l 2
 571 23 571 18 571 15 c 0
 571 4 561 -1 550 -1 c 0xbe
 542 -1 536 3 533 11 c 2
 444 272 l 1
 167 211 l 1
 89 11 l 2
 86 4 80 0 72 0 c 0
 60 0 51 8 51 18 c 0
 51 21 52 25 53 27 c 2
184 253 m 1
 431 307 l 1
 325 614 l 1
 184 253 l 1
EndSplineSet
EndChar
StartChar: AE
Encoding: 198 198 120
Width: 1030
Flags: MW
HStem: -3 21G 0 35<522.5 969 545 969 545 969> 318 36<918 922.5> 646 35<545 969 545 545>
VStem: 510 35<35 35 35 315 315 315 354 608 608 608>
LayerCount: 2
Back
Fore
SplineSet
545 35 m 1x78
 969 35 l 2x78
 979 35 987 28 987 18 c 0xb8
 987 8 979 0 969 0 c 2
 527 0 l 2x78
 518 0 510 8 510 18 c 2
 510 315 l 1
 266 265 l 1
 81 4 l 2
 77 -1 72 -3 67 -3 c 0xb8
 57 -3 49 5 49 13 c 0
 49 18 50 21 52 24 c 2
 217 255 l 1
 171 246 l 2
 161 244 154 254 154 262 c 0
 154 272 159 279 170 281 c 2
 246 297 l 1
 513 674 l 2
 515 677 519 681 524 681 c 2
 969 681 l 2
 979 681 987 674 987 664 c 0
 987 654 979 646 969 646 c 2
 545 646 l 1
 545 354 l 1
 918 354 l 2
 927 354 935 346 935 337 c 0
 935 327 927 318 918 318 c 2
 545 319 l 1
 545 35 l 1x78
296 307 m 1
 510 351 l 1
 510 608 l 1
 296 307 l 1
EndSplineSet
EndChar
StartChar: Ccedilla
Encoding: 199 199 158
Width: 622
Flags: MW
HStem: -209 22<307.5 339 307.5 345.5> -64 23<313 335.5 300 339> -2 38<331.5 376 290 386> 646 38<286.5 381.5 278.5 392.5>
VStem: 52 38<219.5 382 202.5 397.5> 250 156<-176 -100.5> 383 23<-142 -108>
LayerCount: 2
Back
Fore
SplineSet
288 2 m 1xfa
 155 26 52 144 52 295 c 0
 52 500 210 684 347 684 c 0
 416 684 466 661 501 639 c 1
 506 650 515 658 523 658 c 0
 533 658 541 650 541 640 c 2
 541 574 l 2
 541 564 532 554 522 554 c 0
 512 554 503 564 503 574 c 2
 503 583 l 1
 481 607 438 646 347 646 c 0
 226 646 90 469 90 295 c 0
 90 110 242 36 338 36 c 0
 414 36 489 68 545 138 c 0
 549 142 554 145 559 145 c 0
 569 145 579 139 579 127 c 0
 579 123 577 118 575 115 c 0
 519 40 434 -2 338 -2 c 0
 325 -2 313 -1 301 0 c 1
 300 -41 l 1
 371 -41 406 -78 406 -123 c 0
 406 -170 369 -209 322 -209 c 0
 291 -209 250 -189 250 -163 c 0xfc
 250 -157 255 -154 260 -154 c 0
 265 -154 268 -159 272 -164 c 0
 281 -174 293 -187 322 -187 c 0
 356 -187 383 -159 383 -125 c 0
 383 -91 356 -64 322 -64 c 0
 304 -64 293 -70 286 -75 c 0
 282 -78 279 -79 276 -79 c 0
 269 -79 266 -74 266 -70 c 0
 266 -64 284 -8 288 2 c 1xfa
EndSplineSet
EndChar
StartChar: Egrave
Encoding: 200 200 159
Width: 600
Flags: MW
HStem: 0 38<82 526 106 526 106 526> 334 38<106 478 106 478> 644 38<106 528 106 106> 892 20G<217 228>
VStem: 68 38<38 38 38 334 372 644>
LayerCount: 2
Back
Fore
SplineSet
106 38 m 1
 526 38 l 2
 536 38 545 30 545 20 c 0
 545 9 536 0 526 0 c 2
 87 0 l 2
 77 0 68 9 68 20 c 2
 68 664 l 2
 68 674 77 682 87 682 c 2
 528 682 l 2
 538 682 547 674 547 664 c 0
 547 653 538 644 528 644 c 2
 106 644 l 1
 106 372 l 1
 478 372 l 2
 488 372 496 364 496 353 c 0
 496 343 488 334 478 334 c 2
 106 334 l 1
 106 38 l 1
245 901 m 2
 354 765 l 2
 358 760 360 756 360 752 c 0
 360 742 350 736 341 736 c 0
 337 736 332 738 328 742 c 2
 205 868 l 2
 200 874 197 880 197 887 c 0
 197 901 210 912 224 912 c 0
 232 912 239 909 245 901 c 2
EndSplineSet
EndChar
StartChar: Eacute
Encoding: 201 201 160
Width: 600
Flags: MW
HStem: 0 38<82 526 106 526 106 526> 334 38<106 478 106 478> 644 38<106 528 106 106> 880 20G<373 383.5>
VStem: 68 38<38 38 38 334 372 644>
LayerCount: 2
Back
Fore
SplineSet
106 38 m 1
 526 38 l 2
 536 38 545 30 545 20 c 0
 545 9 536 0 526 0 c 2
 87 0 l 2
 77 0 68 9 68 20 c 2
 68 664 l 2
 68 674 77 682 87 682 c 2
 528 682 l 2
 538 682 547 674 547 664 c 0
 547 653 538 644 528 644 c 2
 106 644 l 1
 106 372 l 1
 478 372 l 2
 488 372 496 364 496 353 c 0
 496 343 488 334 478 334 c 2
 106 334 l 1
 106 38 l 1
394 857 m 2
 251 759 l 2
 244 754 239 752 235 752 c 0
 226 752 218 760 218 769 c 0
 218 772 218 777 224 782 c 2
 352 886 l 2
 361 893 368 900 378 900 c 0
 389 900 402 887 402 873 c 0
 402 866 401 862 394 857 c 2
EndSplineSet
EndChar
StartChar: Ecircumflex
Encoding: 202 202 161
Width: 600
Flags: MW
HStem: 0 38<82 526 106 526 106 526> 334 38<106 478 106 478> 644 38<106 528 106 106> 682 71<186 193 441.5 448.5> 882 20G<326 330.5>
VStem: 68 38<38 38 38 334 372 644>
LayerCount: 2
Back
Fore
SplineSet
328 902 m 0xdc
 333 902 339 900 343 896 c 2
 455 783 l 2
 459 779 461 776 461 771 c 0
 461 762 453 753 444 753 c 0
 439 753 435 755 431 758 c 2
 326 853 l 1
 202 757 l 2
 199 755 195 753 191 753 c 0
 181 753 173 762 173 771 c 0
 173 776 176 781 180 784 c 2
 315 897 l 2
 319 900 324 902 328 902 c 0xdc
106 38 m 1
 526 38 l 2
 536 38 545 30 545 20 c 0
 545 9 536 0 526 0 c 2
 87 0 l 2
 77 0 68 9 68 20 c 2
 68 664 l 2
 68 674 77 682 87 682 c 2
 528 682 l 2
 538 682 547 674 547 664 c 0
 547 653 538 644 528 644 c 2
 106 644 l 1xec
 106 372 l 1
 478 372 l 2
 488 372 496 364 496 353 c 0
 496 343 488 334 478 334 c 2
 106 334 l 1
 106 38 l 1
EndSplineSet
EndChar
StartChar: Edieresis
Encoding: 203 203 162
Width: 600
Flags: MW
HStem: 0 38<82 526 106 526 106 526> 334 38<106 478 106 478> 644 38<106 528 106 106> 755 65<221.5 239 385.5 403>
VStem: 68 38<38 38 38 334 372 644> 191 79<780.5 794.5> 355 78<780.5 794.5>
LayerCount: 2
Back
Fore
SplineSet
270 790 m 0
 270 771 251 755 227 755 c 0
 208 755 191 768 191 785 c 0
 191 804 210 820 233 820 c 0
 252 820 270 807 270 790 c 0
433 790 m 0
 433 771 415 755 391 755 c 0
 372 755 355 768 355 785 c 0
 355 804 374 820 397 820 c 0
 416 820 433 807 433 790 c 0
106 38 m 1
 526 38 l 2
 536 38 545 30 545 20 c 0
 545 9 536 0 526 0 c 2
 87 0 l 2
 77 0 68 9 68 20 c 2
 68 664 l 2
 68 674 77 682 87 682 c 2
 528 682 l 2
 538 682 547 674 547 664 c 0
 547 653 538 644 528 644 c 2
 106 644 l 1
 106 372 l 1
 478 372 l 2
 488 372 496 364 496 353 c 0
 496 343 488 334 478 334 c 2
 106 334 l 1
 106 38 l 1
EndSplineSet
EndChar
StartChar: Igrave
Encoding: 204 204 163
Width: 423
Flags: MW
HStem: -1 38<78 197 83 197 235 347> 643 38<78 347 83 197 235 235 235 347> 892 20G<147 158>
VStem: 64 171<13.5 37> 197 38<37 643> 197 169<13.5 643>
LayerCount: 2
Back
Fore
SplineSet
235 37 m 1xf0
 347 37 l 2
 359 37 366 29 366 19 c 0xe4
 366 8 357 -1 347 -1 c 2
 83 -1 l 2
 73 -1 64 8 64 19 c 0xf0
 64 29 73 37 83 37 c 2
 197 37 l 1
 197 643 l 1xe8
 83 643 l 2
 73 643 64 652 64 662 c 0xf0
 64 673 73 681 83 681 c 2
 347 681 l 2
 357 681 366 673 366 662 c 0xe4
 366 652 357 643 347 643 c 2
 235 643 l 1
 235 37 l 1xf0
175 901 m 2xf0
 284 765 l 2
 288 760 290 756 290 752 c 0
 290 742 280 736 271 736 c 0
 267 736 262 738 258 742 c 2
 135 868 l 2
 130 874 127 880 127 887 c 0
 127 901 140 912 154 912 c 0
 162 912 169 909 175 901 c 2xf0
EndSplineSet
EndChar
StartChar: Iacute
Encoding: 205 205 164
Width: 423
Flags: MW
HStem: -1 38<78 197 83 197 235 347> 643 38<78 347 83 197 235 235 235 347> 880 20G<297 307.5>
VStem: 197 38<37 643>
LayerCount: 2
Back
Fore
SplineSet
235 37 m 1
 347 37 l 2
 359 37 366 29 366 19 c 0
 366 8 357 -1 347 -1 c 2
 83 -1 l 2
 73 -1 64 8 64 19 c 0
 64 29 73 37 83 37 c 2
 197 37 l 1
 197 643 l 1
 83 643 l 2
 73 643 64 652 64 662 c 0
 64 673 73 681 83 681 c 2
 347 681 l 2
 357 681 366 673 366 662 c 0
 366 652 357 643 347 643 c 2
 235 643 l 1
 235 37 l 1
318 857 m 2
 175 759 l 2
 168 754 163 752 159 752 c 0
 150 752 142 760 142 769 c 0
 142 772 142 777 148 782 c 2
 276 886 l 2
 285 893 292 900 302 900 c 0
 313 900 326 887 326 873 c 0
 326 866 325 862 318 857 c 2
EndSplineSet
EndChar
StartChar: Icircumflex
Encoding: 206 206 165
Width: 423
Flags: MW
HStem: -1 38<78 197 83 197 235 347> 643 38<78 347 83 197 235 235 235 347> 681 72<90 97 345.5 347 347 352> 882 20G<230 234.5>
VStem: 64 171<13.5 37> 197 38<37 643> 197 168<37 773.5 643 773.5>
LayerCount: 2
Back
Fore
SplineSet
232 902 m 0xb2
 237 902 243 900 247 896 c 2
 359 783 l 2
 363 779 365 776 365 771 c 0
 365 762 357 753 348 753 c 0
 343 753 339 755 335 758 c 2
 230 853 l 1
 106 757 l 2
 103 755 99 753 95 753 c 0
 85 753 77 762 77 771 c 0
 77 776 80 781 84 784 c 2
 219 897 l 2
 223 900 228 902 232 902 c 0xb2
235 37 m 1xd8
 347 37 l 2
 359 37 366 29 366 19 c 0
 366 8 357 -1 347 -1 c 2
 83 -1 l 2
 73 -1 64 8 64 19 c 0xd8
 64 29 73 37 83 37 c 2
 197 37 l 1
 197 643 l 1xd4
 83 643 l 2
 73 643 64 652 64 662 c 0
 64 673 73 681 83 681 c 2
 347 681 l 2
 357 681 366 673 366 662 c 0
 366 652 357 643 347 643 c 2
 235 643 l 1
 235 37 l 1xd8
EndSplineSet
EndChar
StartChar: Idieresis
Encoding: 207 207 166
Width: 423
Flags: MW
HStem: -1 38<78 197 83 197 235 347> 643 38<78 347 83 197 235 235 235 347> 755 65<129 147 293 310.5>
VStem: 99 78<780.5 794.5> 197 38<37 643> 263 78<780.5 794.5>
LayerCount: 2
Back
Fore
SplineSet
177 790 m 0
 177 771 159 755 135 755 c 0
 115 755 99 768 99 785 c 0
 99 804 117 820 141 820 c 0
 160 820 177 807 177 790 c 0
341 790 m 0
 341 771 322 755 299 755 c 0
 279 755 263 768 263 785 c 0
 263 804 281 820 305 820 c 0
 323 820 341 807 341 790 c 0
235 37 m 1
 347 37 l 2
 359 37 366 29 366 19 c 0
 366 8 357 -1 347 -1 c 2
 83 -1 l 2
 73 -1 64 8 64 19 c 0
 64 29 73 37 83 37 c 2
 197 37 l 1
 197 643 l 1
 83 643 l 2
 73 643 64 652 64 662 c 0
 64 673 73 681 83 681 c 2
 347 681 l 2
 357 681 366 673 366 662 c 0
 366 652 357 643 347 643 c 2
 235 643 l 1
 235 37 l 1
EndSplineSet
EndChar
StartChar: Ntilde
Encoding: 209 209 167
Width: 609
Flags: MW
HStem: 0 21G<81 91 528.5 537.5> 662 20G 735 26<380.5 410 380.5 416> 842 27<243 261>
VStem: 68 37<13.5 19> 514 37<77 664>
LayerCount: 2
Back
Fore
SplineSet
517 7 m 2
 106 603 l 1
 105 19 l 2
 105 8 96 0 86 0 c 0
 76 0 68 8 68 19 c 2
 69 662 l 2
 69 673 76 681 86 681 c 0
 94 681 100 678 105 670 c 2
 514 77 l 1
 514 664 l 2
 514 674 522 682 532 682 c 0
 543 682 551 674 551 664 c 2
 551 19 l 2
 551 8 543 0 532 0 c 0
 525 0 520 2 517 7 c 2
462 844 m 0
 464 850 469 855 478 855 c 0
 487 855 492 849 492 841 c 0
 492 803 443 735 389 735 c 0
 348 735 327 766 308 792 c 0
 282 829 271 842 251 842 c 0
 235 842 195 829 178 771 c 0
 175 762 170 758 163 758 c 0
 153 758 150 766 150 774 c 0
 150 816 204 869 251 869 c 0
 292 869 313 839 332 811 c 0
 349 786 370 761 391 761 c 0
 429 761 450 812 462 844 c 0
EndSplineSet
EndChar
StartChar: Ograve
Encoding: 210 210 168
Width: 650
Flags: MW
HStem: -2 33<246.5 374 246.5 386> 649 33<278.5 408.5> 892 20G<287 298>
VStem: 62 34<235.5 406 235.5 412.5> 564 34<273.5 436>
LayerCount: 2
Back
Fore
SplineSet
308 -2 m 0
 165 -2 62 142 62 312 c 0
 62 513 196 682 352 682 c 0
 494 682 598 540 598 368 c 0
 598 167 464 -2 308 -2 c 0
344 649 m 0
 213 649 96 500 96 312 c 0
 96 159 185 31 308 31 c 0
 440 31 564 183 564 364 c 0
 564 508 473 649 344 649 c 0
315 901 m 2
 424 765 l 2
 428 760 430 756 430 752 c 0
 430 742 420 736 411 736 c 0
 407 736 402 738 398 742 c 2
 275 868 l 2
 270 874 267 880 267 887 c 0
 267 901 280 912 294 912 c 0
 302 912 309 909 315 901 c 2
EndSplineSet
EndChar
StartChar: Oacute
Encoding: 211 211 169
Width: 650
Flags: MW
HStem: -2 33<246.5 374 246.5 386> 649 33<278.5 408.5> 880 20G<430 440.5>
VStem: 62 34<235.5 406 235.5 412.5> 564 34<273.5 436>
LayerCount: 2
Back
Fore
SplineSet
308 -2 m 0
 165 -2 62 142 62 312 c 0
 62 513 196 682 352 682 c 0
 494 682 598 540 598 368 c 0
 598 167 464 -2 308 -2 c 0
344 649 m 0
 213 649 96 500 96 312 c 0
 96 159 185 31 308 31 c 0
 440 31 564 183 564 364 c 0
 564 508 473 649 344 649 c 0
451 857 m 2
 308 759 l 2
 301 754 296 752 292 752 c 0
 283 752 275 760 275 769 c 0
 275 772 275 777 281 782 c 2
 409 886 l 2
 418 893 425 900 435 900 c 0
 446 900 459 887 459 873 c 0
 459 866 458 862 451 857 c 2
EndSplineSet
EndChar
StartChar: Ocircumflex
Encoding: 212 212 170
Width: 650
Flags: MW
HStem: -2 33<246.5 374 246.5 386> 649 33<278.5 408.5> 682 71<228 423> 882 20G<368 372.5>
VStem: 62 34<235.5 406 235.5 412.5> 564 34<273.5 436>
LayerCount: 2
Back
Fore
SplineSet
308 -2 m 0xdc
 165 -2 62 142 62 312 c 0
 62 513 196 682 352 682 c 0
 494 682 598 540 598 368 c 0
 598 167 464 -2 308 -2 c 0xdc
344 649 m 0
 213 649 96 500 96 312 c 0
 96 159 185 31 308 31 c 0
 440 31 564 183 564 364 c 0
 564 508 473 649 344 649 c 0
370 902 m 0
 375 902 381 900 385 896 c 2
 497 783 l 2
 501 779 503 776 503 771 c 0
 503 762 495 753 486 753 c 0
 481 753 477 755 473 758 c 2
 368 853 l 1
 244 757 l 2
 241 755 237 753 233 753 c 0xbc
 223 753 215 762 215 771 c 0
 215 776 218 781 222 784 c 2
 357 897 l 2
 361 900 366 902 370 902 c 0
EndSplineSet
EndChar
StartChar: Otilde
Encoding: 213 213 171
Width: 650
Flags: MW
HStem: -2 33<246.5 374 246.5 386> 649 33<278.5 408.5> 735 26<428.5 458 428.5 464> 842 27<291 309>
VStem: 62 34<235.5 406 235.5 412.5> 564 34<273.5 436>
LayerCount: 2
Back
Fore
SplineSet
308 -2 m 0
 165 -2 62 142 62 312 c 0
 62 513 196 682 352 682 c 0
 494 682 598 540 598 368 c 0
 598 167 464 -2 308 -2 c 0
344 649 m 0
 213 649 96 500 96 312 c 0
 96 159 185 31 308 31 c 0
 440 31 564 183 564 364 c 0
 564 508 473 649 344 649 c 0
510 844 m 0
 512 850 517 855 526 855 c 0
 535 855 540 849 540 841 c 0
 540 803 491 735 437 735 c 0
 396 735 375 766 356 792 c 0
 330 829 319 842 299 842 c 0
 283 842 243 829 226 771 c 0
 223 762 218 758 211 758 c 0
 201 758 198 766 198 774 c 0
 198 816 252 869 299 869 c 0
 340 869 361 839 380 811 c 0
 397 786 418 761 439 761 c 0
 477 761 498 812 510 844 c 0
EndSplineSet
EndChar
StartChar: Odieresis
Encoding: 214 214 172
Width: 650
Flags: MW
HStem: -2 33<246.5 374 246.5 386> 649 33<278.5 408.5> 755 65<273 290 436.5 454>
VStem: 62 34<235.5 406 235.5 412.5> 242 79<780.5 794.5> 406 79<780.5 794.5> 564 34<273.5 436>
LayerCount: 2
Back
Fore
SplineSet
308 -2 m 0
 165 -2 62 142 62 312 c 0
 62 513 196 682 352 682 c 0
 494 682 598 540 598 368 c 0
 598 167 464 -2 308 -2 c 0
344 649 m 0
 213 649 96 500 96 312 c 0
 96 159 185 31 308 31 c 0
 440 31 564 183 564 364 c 0
 564 508 473 649 344 649 c 0
321 790 m 0
 321 771 302 755 278 755 c 0
 259 755 242 768 242 785 c 0
 242 804 261 820 285 820 c 0
 303 820 321 807 321 790 c 0
485 790 m 0
 485 771 466 755 442 755 c 0
 423 755 406 768 406 785 c 0
 406 804 425 820 448 820 c 0
 467 820 485 807 485 790 c 0
EndSplineSet
EndChar
StartChar: multiply
Encoding: 215 215 173
Width: 431
Flags: MW
HStem: 125 21G<114.5 122.5> 126 21G<317.5 324.5> 338 20G<316 324>
LayerCount: 2
Back
Fore
SplineSet
336 340 m 0xa0
 336 337 334 332 332 330 c 2
 245 243 l 1
 331 155 l 2
 334 152 336 148 336 144 c 0
 336 133 329 126 320 126 c 0x60
 315 126 310 128 307 131 c 2
 221 218 l 1
 132 130 l 2
 129 127 125 125 120 125 c 0
 109 125 103 134 103 142 c 0
 103 146 105 151 108 154 c 2
 197 243 l 1
 116 322 l 2
 113 325 111 329 111 334 c 0
 111 343 119 351 128 351 c 0
 133 351 137 349 140 346 c 2
 221 267 l 1
 308 354 l 2
 310 356 314 358 318 358 c 0
 330 358 336 351 336 340 c 0xa0
EndSplineSet
EndChar
StartChar: Oslash
Encoding: 216 216 127
Width: 650
Flags: MW
HStem: -33 21G<104 113> -2 33<285 374 285 386> 649 33<278.5 360.5> 725 20G<519.5 526.5>
VStem: 62 34<276 406 276 412.5> 564 34<273.5 406>
LayerCount: 2
Back
Fore
SplineSet
95 -6 m 2
 141 78 l 1
 92 139 62 223 62 312 c 0
 62 513 196 682 352 682 c 0
 387 682 424 671 461 650 c 1
 508 737 l 2
 511 742 516 745 523 745 c 0
 530 745 539 740 539 729 c 0
 539 726 538 722 537 720 c 2
 488 632 l 1
 556 570 598 474 598 368 c 0
 598 167 464 -2 308 -2 c 0
 258 -2 209 18 166 53 c 1
 123 -25 l 2
 120 -30 116 -33 110 -33 c 0
 98 -33 92 -26 92 -16 c 0
 92 -13 93 -9 95 -6 c 2
308 31 m 0
 440 31 564 183 564 364 c 0
 564 448 529 538 470 599 c 1
 183 82 l 1
 220 49 262 31 308 31 c 0
344 649 m 0
 213 649 96 500 96 312 c 0
 96 240 119 169 159 109 c 1
 443 619 l 1
 410 639 377 649 344 649 c 0
EndSplineSet
EndChar
StartChar: Ugrave
Encoding: 217 217 174
Width: 673
Flags: MW
HStem: 0 31<250 410 237.5 415.5> 892 20G<265 276>
VStem: 69 36 577 37<653 659>
LayerCount: 2
Back
Fore
SplineSet
614 653 m 0
 618 527 623 400 606 270 c 0
 585 110 502 0 329 0 c 0
 171 0 78 125 69 367 c 0
 65 474 67 570 68 655 c 0
 68 671 74 681 88 681 c 0
 103 681 106 670 106 654 c 0
 104 565 102 474 105 381 c 0
 110 236 145 31 330 31 c 0
 490 31 554 139 570 277 c 0
 583 397 577 518 577 651 c 0
 577 667 578 681 596 681 c 0
 611 681 614 668 614 653 c 0
293 901 m 2
 402 765 l 2
 406 760 408 756 408 752 c 0
 408 742 398 736 389 736 c 0
 385 736 380 738 376 742 c 2
 253 868 l 2
 248 874 245 880 245 887 c 0
 245 901 258 912 272 912 c 0
 280 912 287 909 293 901 c 2
EndSplineSet
EndChar
StartChar: Uacute
Encoding: 218 218 175
Width: 673
Flags: MW
HStem: 0 31<250 410 237.5 415.5> 880 20G<427 437.5>
VStem: 69 36 577 37<653 659>
LayerCount: 2
Back
Fore
SplineSet
614 653 m 0
 618 527 623 400 606 270 c 0
 585 110 502 0 329 0 c 0
 171 0 78 125 69 367 c 0
 65 474 67 570 68 655 c 0
 68 671 74 681 88 681 c 0
 103 681 106 670 106 654 c 0
 104 565 102 474 105 381 c 0
 110 236 145 31 330 31 c 0
 490 31 554 139 570 277 c 0
 583 397 577 518 577 651 c 0
 577 667 578 681 596 681 c 0
 611 681 614 668 614 653 c 0
448 857 m 2
 305 759 l 2
 298 754 293 752 289 752 c 0
 280 752 272 760 272 769 c 0
 272 772 272 777 278 782 c 2
 406 886 l 2
 415 893 422 900 432 900 c 0
 443 900 456 887 456 873 c 0
 456 866 455 862 448 857 c 2
EndSplineSet
EndChar
StartChar: Ucircumflex
Encoding: 219 219 176
Width: 673
Flags: MW
HStem: 0 31<250 410 237.5 415.5> 882 20G<361 365.5>
VStem: 69 36 577 37<653 659>
LayerCount: 2
Back
Fore
SplineSet
363 902 m 0
 368 902 374 900 378 896 c 2
 490 783 l 2
 494 779 496 776 496 771 c 0
 496 762 488 753 479 753 c 0
 474 753 470 755 466 758 c 2
 361 853 l 1
 237 757 l 2
 234 755 230 753 226 753 c 0
 216 753 208 762 208 771 c 0
 208 776 211 781 215 784 c 2
 350 897 l 2
 354 900 359 902 363 902 c 0
614 653 m 0
 618 527 623 400 606 270 c 0
 585 110 502 0 329 0 c 0
 171 0 78 125 69 367 c 0
 65 474 67 570 68 655 c 0
 68 671 74 681 88 681 c 0
 103 681 106 670 106 654 c 0
 104 565 102 474 105 381 c 0
 110 236 145 31 330 31 c 0
 490 31 554 139 570 277 c 0
 583 397 577 518 577 651 c 0
 577 667 578 681 596 681 c 0
 611 681 614 668 614 653 c 0
EndSplineSet
EndChar
StartChar: Udieresis
Encoding: 220 220 177
Width: 673
Flags: MW
HStem: 0 31<250 410 237.5 415.5> 755 65<253 270.5 417 434.5>
VStem: 69 36 223 78<780.5 794.5> 386 79<780.5 794.5> 577 37<653 659>
LayerCount: 2
Back
Fore
SplineSet
301 790 m 0
 301 771 282 755 259 755 c 0
 239 755 223 768 223 785 c 0
 223 804 241 820 265 820 c 0
 283 820 301 807 301 790 c 0
465 790 m 0
 465 771 446 755 423 755 c 0
 403 755 386 768 386 785 c 0
 386 804 405 820 429 820 c 0
 447 820 465 807 465 790 c 0
614 653 m 0
 618 527 623 400 606 270 c 0
 585 110 502 0 329 0 c 0
 171 0 78 125 69 367 c 0
 65 474 67 570 68 655 c 0
 68 671 74 681 88 681 c 0
 103 681 106 670 106 654 c 0
 104 565 102 474 105 381 c 0
 110 236 145 31 330 31 c 0
 490 31 554 139 570 277 c 0
 583 397 577 518 577 651 c 0
 577 667 578 681 596 681 c 0
 611 681 614 668 614 653 c 0
EndSplineSet
EndChar
StartChar: Yacute
Encoding: 221 221 178
Width: 583
Flags: MW
HStem: 0 21G<185 193.5> 880 20G<379 389.5>
LayerCount: 2
Back
Fore
SplineSet
571 681 m 0
 581 681 590 674 590 664 c 0
 590 660 589 656 583 646 c 2
 205 9 l 2
 201 2 196 0 191 0 c 0
 179 0 171 9 171 17 c 0
 171 23 173 27 176 32 c 2
 282 210 l 1
 26 649 l 2
 24 653 21 659 21 664 c 0
 21 675 31 681 41 681 c 0
 46 681 52 678 55 672 c 2
 304 246 l 1
 556 672 l 2
 559 678 565 681 571 681 c 0
400 857 m 2
 257 759 l 2
 250 754 245 752 241 752 c 0
 232 752 224 760 224 769 c 0
 224 772 224 777 230 782 c 2
 358 886 l 2
 367 893 374 900 384 900 c 0
 395 900 408 887 408 873 c 0
 408 866 407 862 400 857 c 2
EndSplineSet
EndChar
StartChar: Thorn
Encoding: 222 222 117
Width: 537
Flags: MW
HStem: 0 21G<79.5 88.5> 147 36<100 101> 535 34<142.5 175.5 101 240.5> 660 20G<81.5 90.5>
VStem: 69 32 437 32<300.5 426>
LayerCount: 2
Back
Fore
SplineSet
101 664 m 2
 101 569 l 1
 250 569 469 550 469 376 c 0
 469 202 246 150 100 147 c 1
 100 15 l 2
 100 7 93 0 84 0 c 0
 75 0 68 7 68 16 c 2
 70 665 l 2
 70 673 77 680 86 680 c 0
 95 680 101 673 101 664 c 2
101 533 m 1
 101 183 l 1
 210 184 437 225 437 376 c 0
 437 476 331 535 150 535 c 0
 135 535 122 535 101 533 c 1
EndSplineSet
EndChar
StartChar: germandbls
Encoding: 223 223 126
Width: 515
Flags: MW
HStem: -26 33<265.5 322 265.5 332> -1 21G<79.5 89> 612 33<192.5 262>
VStem: 67 34<16 486> 352 33<464.5 520> 441 33<125.5 213 116 213.5>
LayerCount: 2
Back
Fore
SplineSet
202 26 m 0xbc
 228 13 252 7 279 7 c 0xbc
 365 7 441 81 441 170 c 0
 441 257 370 341 256 330 c 0
 247 329 238 327 227 327 c 0
 217 327 210 334 210 343 c 0
 210 352 214 360 225 361 c 2
 240 362 l 2
 308 367 352 423 352 486 c 0
 352 554 297 612 227 612 c 0
 158 612 101 554 101 486 c 2
 101 16 l 2
 101 6 94 -1 84 -1 c 0x7c
 75 -1 67 6 67 16 c 2
 67 486 l 2
 67 573 139 645 227 645 c 0
 314 645 385 573 385 486 c 0
 385 443 357 388 321 358 c 1
 408 339 474 257 474 169 c 0
 474 63 385 -26 279 -26 c 0
 244 -26 178 -15 178 11 c 0
 178 21 185 28 193 28 c 0
 195 28 198 28 202 26 c 0xbc
EndSplineSet
EndChar
StartChar: agrave
Encoding: 224 224 135
Width: 495
Flags: MW
HStem: 0 21G<413 438> 8 37<185 265.5> 478 37<219 312.5> 738 20G<228 239>
VStem: 52 39<186.5 270.5 186.5 275> 400 38<23 66 66 66>
LayerCount: 2
Back
Fore
SplineSet
438 476 m 1x7c
 438 21 l 2
 438 9 430 0 419 0 c 0xbc
 407 0 400 10 400 23 c 2
 400 66 l 1
 357 39 293 8 238 8 c 0
 132 8 52 95 52 223 c 0
 52 327 117 515 291 515 c 0
 352 515 413 489 438 476 c 1x7c
398 110 m 1
 402 452 l 1
 380 463 331 478 294 478 c 0
 144 478 91 316 91 225 c 0
 91 148 129 45 236 45 c 0x7c
 301 45 372 93 398 110 c 1
256 747 m 2
 365 611 l 2
 369 606 371 602 371 598 c 0
 371 588 361 582 352 582 c 0
 348 582 343 584 339 588 c 2
 216 714 l 2
 211 720 208 726 208 733 c 0
 208 747 221 758 235 758 c 0
 243 758 250 755 256 747 c 2
EndSplineSet
EndChar
StartChar: aacute
Encoding: 225 225 134
Width: 495
Flags: MW
HStem: 0 21G<413 438> 8 37<185 265.5> 478 37<219 312.5> 715 20G<395 405.5>
VStem: 52 39<186.5 270.5 186.5 275> 400 38<23 66 66 66>
LayerCount: 2
Back
Fore
SplineSet
438 476 m 1x7c
 438 21 l 2
 438 9 430 0 419 0 c 0xbc
 407 0 400 10 400 23 c 2
 400 66 l 1
 357 39 293 8 238 8 c 0
 132 8 52 95 52 223 c 0
 52 327 117 515 291 515 c 0
 352 515 413 489 438 476 c 1x7c
398 110 m 1
 402 452 l 1
 380 463 331 478 294 478 c 0
 144 478 91 316 91 225 c 0
 91 148 129 45 236 45 c 0x7c
 301 45 372 93 398 110 c 1
416 692 m 2
 273 594 l 2
 266 589 261 587 257 587 c 0
 248 587 240 595 240 604 c 0
 240 607 240 612 246 617 c 2
 374 721 l 2
 383 728 390 735 400 735 c 0
 411 735 424 722 424 708 c 0
 424 701 423 697 416 692 c 2
EndSplineSet
EndChar
StartChar: acircumflex
Encoding: 226 226 131
Width: 495
Flags: MW
HStem: 0 21G<413 438> 8 37<185 265.5> 478 37<219 312.5> 515 84<168 321.5> 728 20G<308 312.5>
VStem: 52 39<186.5 270.5 186.5 275> 400 38<23 66 66 66>
LayerCount: 2
Back
Fore
SplineSet
310 748 m 0x5e
 315 748 321 746 325 742 c 2
 437 629 l 2
 441 625 443 622 443 617 c 0
 443 608 435 599 426 599 c 0
 421 599 417 601 413 604 c 2
 308 699 l 1
 184 603 l 2
 181 601 177 599 173 599 c 0
 163 599 155 608 155 617 c 0
 155 622 158 627 162 630 c 2
 297 743 l 2
 301 746 306 748 310 748 c 0x5e
438 476 m 1
 438 21 l 2
 438 9 430 0 419 0 c 0xae
 407 0 400 10 400 23 c 2
 400 66 l 1
 357 39 293 8 238 8 c 0
 132 8 52 95 52 223 c 0
 52 327 117 515 291 515 c 0
 352 515 413 489 438 476 c 1
398 110 m 1
 402 452 l 1
 380 463 331 478 294 478 c 0
 144 478 91 316 91 225 c 0
 91 148 129 45 236 45 c 0x6e
 301 45 372 93 398 110 c 1
EndSplineSet
EndChar
StartChar: atilde
Encoding: 227 227 132
Width: 495
Flags: MW
HStem: 0 21G<413 438> 8 37<185 265.5> 478 37<219 312.5> 581 26<326.5 356 326.5 362> 688 27<189 207>
VStem: 52 39<186.5 270.5 186.5 275> 400 38<23 66 66 66>
LayerCount: 2
Back
Fore
SplineSet
438 476 m 1x7e
 438 21 l 2
 438 9 430 0 419 0 c 0xbe
 407 0 400 10 400 23 c 2
 400 66 l 1
 357 39 293 8 238 8 c 0
 132 8 52 95 52 223 c 0
 52 327 117 515 291 515 c 0
 352 515 413 489 438 476 c 1x7e
398 110 m 1
 402 452 l 1
 380 463 331 478 294 478 c 0
 144 478 91 316 91 225 c 0
 91 148 129 45 236 45 c 0x7e
 301 45 372 93 398 110 c 1
408 690 m 0
 410 696 415 701 424 701 c 0
 433 701 438 695 438 687 c 0
 438 649 389 581 335 581 c 0
 294 581 273 612 254 638 c 0
 228 675 217 688 197 688 c 0
 181 688 141 675 124 617 c 0
 121 608 116 604 109 604 c 0
 99 604 96 612 96 620 c 0
 96 662 150 715 197 715 c 0
 238 715 259 685 278 657 c 0
 295 632 316 607 337 607 c 0
 375 607 396 658 408 690 c 0
EndSplineSet
EndChar
StartChar: adieresis
Encoding: 228 228 133
Width: 495
Flags: MW
HStem: 0 21G<413 438> 8 37<185 265.5> 478 37<219 312.5> 600 66<195 212 360 378>
VStem: 52 39<186.5 270.5 186.5 275> 164 79<626 639.5> 330 79<626 639.5> 400 38<23 66 66 66>
LayerCount: 2
Back
Fore
SplineSet
243 636 m 0x7e
 243 616 224 600 200 600 c 0
 181 600 164 613 164 630 c 0
 164 649 183 666 207 666 c 0
 225 666 243 652 243 636 c 0x7e
409 636 m 0
 409 616 390 600 366 600 c 0
 346 600 330 613 330 630 c 0
 330 649 348 666 372 666 c 0
 391 666 409 652 409 636 c 0
438 476 m 1x7d
 438 21 l 2
 438 9 430 0 419 0 c 0xbd
 407 0 400 10 400 23 c 2
 400 66 l 1
 357 39 293 8 238 8 c 0
 132 8 52 95 52 223 c 0
 52 327 117 515 291 515 c 0
 352 515 413 489 438 476 c 1x7d
398 110 m 1
 402 452 l 1
 380 463 331 478 294 478 c 0
 144 478 91 316 91 225 c 0
 91 148 129 45 236 45 c 0x7e
 301 45 372 93 398 110 c 1
EndSplineSet
EndChar
StartChar: aring
Encoding: 229 229 130
Width: 495
Flags: MW
HStem: 0 21G<413 438> 8 37<185 265.5> 478 37<219 312.5> 587 27<276 323.5 276 326.5> 766 28<284 338.5>
VStem: 52 39<186.5 270.5 186.5 275> 186 23<661.5 700.5 661.5 715> 400 24 400 38<23 66 66 66>
LayerCount: 2
Back
Fore
SplineSet
294 587 m 0x7f
 235 587 186 629 186 683 c 0
 186 747 251 794 317 794 c 0
 374 794 424 751 424 697 c 0
 424 631 359 587 294 587 c 0x7f
313 766 m 0
 250 766 209 718 209 683 c 0
 209 640 249 614 303 614 c 0
 344 614 401 645 401 695 c 0
 401 730 364 766 313 766 c 0
438 476 m 1x7e80
 438 21 l 2
 438 9 430 0 419 0 c 0xbe80
 407 0 400 10 400 23 c 2
 400 66 l 1
 357 39 293 8 238 8 c 0
 132 8 52 95 52 223 c 0
 52 327 117 515 291 515 c 0
 352 515 413 489 438 476 c 1x7e80
398 110 m 1
 402 452 l 1
 380 463 331 478 294 478 c 0
 144 478 91 316 91 225 c 0
 91 148 129 45 236 45 c 0x7f
 301 45 372 93 398 110 c 1
EndSplineSet
EndChar
StartChar: ae
Encoding: 230 230 121
Width: 822
Flags: MW
HStem: 0 21G<397.5 407.5 585.5 654> 8 25 448 34<576 642> 464 34<213.5 299.5>
VStem: 49 35<168 260 168 296> 384 36
LayerCount: 2
Back
Fore
SplineSet
763 95 m 0x6c
 766 98 768 100 773 100 c 0
 782 100 789 93 789 85 c 0
 789 79 788 77 784 72 c 0
 751 32 684 0 624 0 c 0
 547 0 478 34 421 104 c 1
 421 18 l 2
 421 9 412 0 403 0 c 0x9c
 392 0 384 9 384 18 c 2
 384 64 l 1
 343 38 281 8 229 8 c 0
 127 8 49 85 49 213 c 0
 49 379 154 498 273 498 c 0x5c
 327 498 393 475 420 462 c 1
 420 374 l 1
 463 444 546 482 606 482 c 0
 724 482 780 400 780 358 c 0
 780 352 775 345 763 338 c 2
 431 147 l 1
 475 65 543 33 631 33 c 0
 680 33 733 60 763 95 c 0x6c
382 106 m 1
 387 438 l 1
 367 447 318 464 281 464 c 0
 135 464 84 304 84 216 c 0
 84 120 136 43 225 43 c 0
 281 43 352 81 382 106 c 1
606 448 m 0x6c
 499 448 416 355 416 228 c 0
 416 217 416 207 421 179 c 1
 748 362 l 1
 717 424 678 448 606 448 c 0x6c
EndSplineSet
EndChar
StartChar: ccedilla
Encoding: 231 231 179
Width: 499
Flags: MW
HStem: -209 22<266.5 298 266.5 304.5> -64 23<272 294.5 259 298> 0 33<246 246 260 260 260 277> 467 33<238 303.5>
VStem: 52 35<157.5 231.5 146 239> 209 156<-176 -100.5> 342 23<-142 -108>
LayerCount: 2
Back
Fore
SplineSet
243 -9 m 2xfa
 246 0 l 1
 142 17 52 100 52 215 c 0
 52 263 66 308 76 334 c 0
 104 401 180 500 273 500 c 0
 345 500 383 474 421 430 c 0
 424 427 426 422 426 418 c 0
 426 408 418 400 409 400 c 0
 404 400 399 402 396 405 c 0
 366 441 332 467 275 467 c 0
 201 467 133 386 108 323 c 0
 92 281 87 246 87 217 c 0
 87 75 214 33 263 33 c 0
 342 33 391 71 421 111 c 0
 425 117 431 124 440 124 c 0
 449 124 458 117 458 108 c 0
 458 103 454 97 451 93 c 0
 417 43 351 3 277 0 c 2
 260 0 l 1
 259 -41 l 1
 330 -41 365 -78 365 -123 c 0
 365 -170 328 -209 281 -209 c 0
 250 -209 209 -189 209 -163 c 0xfc
 209 -157 214 -154 219 -154 c 0
 224 -154 227 -159 231 -164 c 0
 240 -174 252 -187 281 -187 c 0
 315 -187 342 -159 342 -125 c 0
 342 -91 315 -64 281 -64 c 0
 263 -64 252 -70 245 -75 c 0
 241 -78 238 -79 236 -79 c 0
 230 -79 225 -75 225 -69 c 0
 225 -65 240 -18 243 -9 c 2xfa
EndSplineSet
EndChar
StartChar: egrave
Encoding: 232 232 180
Width: 511
Flags: MW
HStem: 0 33<257 325 257 332.5> 465 34<220 317> 738 20G<214 225>
VStem: 53 32<231 300.5 231 307>
LayerCount: 2
Back
Fore
SplineSet
470 83 m 0
 470 79 468 75 465 72 c 0
 430 32 363 0 302 0 c 0
 149 0 53 114 53 238 c 0
 53 376 141 499 276 499 c 0
 403 499 461 413 461 371 c 0
 461 365 455 357 443 350 c 2
 102 155 l 1
 146 74 213 33 301 33 c 0
 349 33 414 60 443 95 c 0
 446 98 449 100 453 100 c 0
 463 100 470 93 470 83 c 0
276 465 m 0
 164 465 85 364 85 237 c 0
 85 225 85 216 91 188 c 1
 427 373 l 1
 404 432 358 465 276 465 c 0
242 747 m 2
 351 611 l 2
 355 606 357 602 357 598 c 0
 357 588 347 582 338 582 c 0
 334 582 329 584 325 588 c 2
 202 714 l 2
 197 720 194 726 194 733 c 0
 194 747 207 758 221 758 c 0
 229 758 236 755 242 747 c 2
EndSplineSet
EndChar
StartChar: eacute
Encoding: 233 233 181
Width: 511
Flags: MW
HStem: 0 33<257 325 257 332.5> 465 34<220 317> 715 20G<370 380.5>
VStem: 53 32<231 300.5 231 307>
LayerCount: 2
Back
Fore
SplineSet
470 83 m 0
 470 79 468 75 465 72 c 0
 430 32 363 0 302 0 c 0
 149 0 53 114 53 238 c 0
 53 376 141 499 276 499 c 0
 403 499 461 413 461 371 c 0
 461 365 455 357 443 350 c 2
 102 155 l 1
 146 74 213 33 301 33 c 0
 349 33 414 60 443 95 c 0
 446 98 449 100 453 100 c 0
 463 100 470 93 470 83 c 0
276 465 m 0
 164 465 85 364 85 237 c 0
 85 225 85 216 91 188 c 1
 427 373 l 1
 404 432 358 465 276 465 c 0
391 692 m 2
 248 594 l 2
 241 589 236 587 232 587 c 0
 223 587 215 595 215 604 c 0
 215 607 215 612 221 617 c 2
 349 721 l 2
 358 728 365 735 375 735 c 0
 386 735 399 722 399 708 c 0
 399 701 398 697 391 692 c 2
EndSplineSet
EndChar
StartChar: ecircumflex
Encoding: 234 234 182
Width: 511
Flags: MW
HStem: 0 33<257 325 257 332.5> 465 34<220 317> 499 100<160 339.5> 728 20G<300 304.5>
VStem: 53 32<231 300.5 231 307>
LayerCount: 2
Back
Fore
SplineSet
470 83 m 0xd8
 470 79 468 75 465 72 c 0
 430 32 363 0 302 0 c 0
 149 0 53 114 53 238 c 0
 53 376 141 499 276 499 c 0
 403 499 461 413 461 371 c 0
 461 365 455 357 443 350 c 2
 102 155 l 1
 146 74 213 33 301 33 c 0
 349 33 414 60 443 95 c 0
 446 98 449 100 453 100 c 0
 463 100 470 93 470 83 c 0xd8
276 465 m 0
 164 465 85 364 85 237 c 0
 85 225 85 216 91 188 c 1
 427 373 l 1
 404 432 358 465 276 465 c 0
302 748 m 0
 307 748 313 746 317 742 c 2
 429 629 l 2
 433 625 435 622 435 617 c 0
 435 608 427 599 418 599 c 0
 413 599 409 601 405 604 c 2
 300 699 l 1
 176 603 l 2
 173 601 169 599 165 599 c 0xb8
 155 599 147 608 147 617 c 0
 147 622 150 627 154 630 c 2
 289 743 l 2
 293 746 298 748 302 748 c 0
EndSplineSet
EndChar
StartChar: edieresis
Encoding: 235 235 183
Width: 511
Flags: MW
HStem: 0 33<257 325 257 332.5> 465 34<220 317> 600 66<201 218 366 384>
VStem: 53 32<231 300.5 231 307> 170 79<626 639.5> 335 80<626 639.5>
LayerCount: 2
Back
Fore
SplineSet
470 83 m 0
 470 79 468 75 465 72 c 0
 430 32 363 0 302 0 c 0
 149 0 53 114 53 238 c 0
 53 376 141 499 276 499 c 0
 403 499 461 413 461 371 c 0
 461 365 455 357 443 350 c 2
 102 155 l 1
 146 74 213 33 301 33 c 0
 349 33 414 60 443 95 c 0
 446 98 449 100 453 100 c 0
 463 100 470 93 470 83 c 0
276 465 m 0
 164 465 85 364 85 237 c 0
 85 225 85 216 91 188 c 1
 427 373 l 1
 404 432 358 465 276 465 c 0
249 636 m 0
 249 616 230 600 206 600 c 0
 186 600 170 613 170 630 c 0
 170 649 189 666 213 666 c 0
 231 666 249 652 249 636 c 0
415 636 m 0
 415 616 396 600 372 600 c 0
 352 600 335 613 335 630 c 0
 335 649 354 666 378 666 c 0
 397 666 415 652 415 636 c 0
EndSplineSet
EndChar
StartChar: igrave
Encoding: 236 236 184
Width: 184
Flags: MW
HStem: 0 21G<85.5 96> 738 20G<39 50>
VStem: 74 40
LayerCount: 2
Back
Fore
SplineSet
117 476 m 2
 111 20 l 2
 111 9 101 0 91 0 c 0
 80 0 71 9 71 20 c 2
 77 476 l 2
 77 487 87 496 97 496 c 0
 107 496 117 487 117 476 c 2
67 747 m 2
 176 611 l 2
 180 606 182 602 182 598 c 0
 182 588 172 582 163 582 c 0
 159 582 154 584 150 588 c 2
 27 714 l 2
 22 720 19 726 19 733 c 0
 19 747 32 758 46 758 c 0
 54 758 61 755 67 747 c 2
EndSplineSet
EndChar
StartChar: iacute
Encoding: 237 237 185
Width: 184
Flags: MW
HStem: 0 21G<85.5 96> 715 20G<164 174.5>
VStem: 74 40
LayerCount: 2
Back
Fore
SplineSet
117 476 m 2
 111 20 l 2
 111 9 101 0 91 0 c 0
 80 0 71 9 71 20 c 2
 77 476 l 2
 77 487 87 496 97 496 c 0
 107 496 117 487 117 476 c 2
185 692 m 2
 42 594 l 2
 35 589 30 587 26 587 c 0
 17 587 9 595 9 604 c 0
 9 607 9 612 15 617 c 2
 143 721 l 2
 152 728 159 735 169 735 c 0
 180 735 193 722 193 708 c 0
 193 701 192 697 185 692 c 2
EndSplineSet
EndChar
StartChar: icircumflex
Encoding: 238 238 186
Width: 224
Flags: MW
HStem: 0 21G<110 120.5> 728 20G<132 136.5>
VStem: 99 39
LayerCount: 2
Back
Fore
SplineSet
141 476 m 2
 135 20 l 2
 135 9 126 0 115 0 c 0
 105 0 96 9 96 20 c 2
 102 476 l 2
 102 487 111 496 122 496 c 0
 132 496 141 487 141 476 c 2
134 748 m 0
 139 748 145 746 149 742 c 2
 261 629 l 2
 265 625 267 622 267 617 c 0
 267 608 259 599 250 599 c 0
 245 599 241 601 237 604 c 2
 132 699 l 1
 8 603 l 2
 5 601 1 599 -3 599 c 0
 -13 599 -21 608 -21 617 c 0
 -21 622 -18 627 -14 630 c 2
 121 743 l 2
 125 746 130 748 134 748 c 0
EndSplineSet
EndChar
StartChar: idieresis
Encoding: 239 239 187
Width: 248
Flags: MW
HStem: 0 21G<115 125.5> 600 66<39 56 204 222>
VStem: 8 79<626 639.5> 104 39 174 79<626 639.5>
LayerCount: 2
Back
Fore
SplineSet
146 476 m 2
 140 20 l 2
 140 9 131 0 120 0 c 0
 110 0 101 9 101 20 c 2
 107 476 l 2
 107 487 116 496 127 496 c 0
 137 496 146 487 146 476 c 2
87 636 m 0
 87 616 68 600 44 600 c 0
 25 600 8 613 8 630 c 0
 8 649 27 666 51 666 c 0
 69 666 87 652 87 636 c 0
253 636 m 0
 253 616 234 600 210 600 c 0
 190 600 174 613 174 630 c 0
 174 649 192 666 216 666 c 0
 235 666 253 652 253 636 c 0
EndSplineSet
EndChar
StartChar: eth
Encoding: 240 240 116
Width: 472
Flags: MW
HStem: 1 32<177 272 177 281> 402 33 658 20G<367 375.5>
VStem: 52 33<131 253.5> 397 33<201.5 282>
LayerCount: 2
Back
Fore
SplineSet
260 601 m 1
 351 505 430 381 430 256 c 0
 430 129 348 1 214 1 c 0
 123 1 52 71 52 175 c 0
 52 332 171 428 345 435 c 1
 309 495 267 545 232 585 c 1
 185 559 149 535 131 523 c 0
 116 513 109 509 104 509 c 0
 100 509 96 513 96 517 c 0
 96 521 97 524 107 532 c 0
 118 541 138 553 163 568 c 2
 217 601 l 1
 208 611 190 628 182 634 c 0
 169 645 161 651 161 658 c 0
 161 667 169 674 176 674 c 0
 181 674 183 673 188 670 c 0
 190 669 205 658 246 616 c 1
 282 636 361 678 373 678 c 0
 378 678 382 675 382 668 c 0
 382 665 380 663 378 662 c 0
 343 645 292 619 260 601 c 1
214 33 m 0
 330 33 397 144 397 259 c 0
 397 305 382 355 360 402 c 1
 218 402 85 341 85 174 c 0
 85 88 140 33 214 33 c 0
EndSplineSet
EndChar
StartChar: ntilde
Encoding: 241 241 188
Width: 525
Flags: MW
HStem: 0 21G<81 104> 464 35<304 379> 581 26<351.5 381 351.5 387> 688 27<214 232>
VStem: 68 36<17 21 15 482> 432 37<128 145>
LayerCount: 2
Back
Fore
SplineSet
105 482 m 2
 105 265 l 1
 125 380 229 499 333 499 c 0
 453 499 469 388 469 148 c 0
 469 108 469 66 468 20 c 0
 468 9 461 0 451 0 c 0
 442 0 433 8 433 19 c 0
 432 65 432 106 432 145 c 0
 431 357 430 464 328 464 c 0
 280 464 219 438 162 334 c 0
 127 269 106 179 105 105 c 2
 104 21 l 2
 104 9 98 0 86 0 c 0
 76 0 68 7 68 17 c 2
 68 482 l 2
 68 492 76 500 86 500 c 0
 97 500 105 492 105 482 c 2
433 690 m 0
 435 696 440 701 449 701 c 0
 458 701 463 695 463 687 c 0
 463 649 414 581 360 581 c 0
 319 581 298 612 279 638 c 0
 253 675 242 688 222 688 c 0
 206 688 166 675 149 617 c 0
 146 608 141 604 134 604 c 0
 124 604 121 612 121 620 c 0
 121 662 175 715 222 715 c 0
 263 715 284 685 303 657 c 0
 320 632 341 607 362 607 c 0
 400 607 421 658 433 690 c 0
EndSplineSet
EndChar
StartChar: ograve
Encoding: 242 242 189
Width: 525
Flags: MW
HStem: 0 29<203.5 302 203.5 315> 471 29<228 325.5> 738 20G<233 244>
VStem: 52 38<177 294.5 177 302.5> 445 39<203 320.5>
LayerCount: 2
Back
Fore
SplineSet
252 0 m 0
 138 0 52 103 52 229 c 0
 52 376 158 500 284 500 c 0
 397 500 484 395 484 271 c 0
 484 123 378 0 252 0 c 0
279 471 m 0
 177 471 90 358 90 231 c 0
 90 123 155 29 252 29 c 0
 352 29 445 140 445 266 c 0
 445 375 372 471 279 471 c 0
261 747 m 2
 370 611 l 2
 374 606 376 602 376 598 c 0
 376 588 366 582 357 582 c 0
 353 582 348 584 344 588 c 2
 221 714 l 2
 216 720 213 726 213 733 c 0
 213 747 226 758 240 758 c 0
 248 758 255 755 261 747 c 2
EndSplineSet
EndChar
StartChar: oacute
Encoding: 243 243 190
Width: 525
Flags: MW
HStem: 0 29<203.5 302 203.5 315> 471 29<228 325.5> 715 20G<365 375.5>
VStem: 52 38<177 294.5 177 302.5> 445 39<203 320.5>
LayerCount: 2
Back
Fore
SplineSet
252 0 m 0
 138 0 52 103 52 229 c 0
 52 376 158 500 284 500 c 0
 397 500 484 395 484 271 c 0
 484 123 378 0 252 0 c 0
279 471 m 0
 177 471 90 358 90 231 c 0
 90 123 155 29 252 29 c 0
 352 29 445 140 445 266 c 0
 445 375 372 471 279 471 c 0
386 692 m 2
 243 594 l 2
 236 589 231 587 227 587 c 0
 218 587 210 595 210 604 c 0
 210 607 210 612 216 617 c 2
 344 721 l 2
 353 728 360 735 370 735 c 0
 381 735 394 722 394 708 c 0
 394 701 393 697 386 692 c 2
EndSplineSet
EndChar
StartChar: ocircumflex
Encoding: 244 244 191
Width: 525
Flags: MW
HStem: 0 29<203.5 302 203.5 315> 471 29<228 325.5> 500 99<176 340.5> 728 20G<316 320.5>
VStem: 52 38<177 294.5 177 302.5> 445 39<203 320.5>
LayerCount: 2
Back
Fore
SplineSet
252 0 m 0xdc
 138 0 52 103 52 229 c 0
 52 376 158 500 284 500 c 0
 397 500 484 395 484 271 c 0
 484 123 378 0 252 0 c 0xdc
279 471 m 0
 177 471 90 358 90 231 c 0
 90 123 155 29 252 29 c 0
 352 29 445 140 445 266 c 0
 445 375 372 471 279 471 c 0
318 748 m 0
 323 748 329 746 333 742 c 2
 445 629 l 2
 449 625 451 622 451 617 c 0
 451 608 443 599 434 599 c 0
 429 599 425 601 421 604 c 2
 316 699 l 1
 192 603 l 2
 189 601 185 599 181 599 c 0xbc
 171 599 163 608 163 617 c 0
 163 622 166 627 170 630 c 2
 305 743 l 2
 309 746 314 748 318 748 c 0
EndSplineSet
EndChar
StartChar: otilde
Encoding: 245 245 192
Width: 525
Flags: MW
HStem: 0 29<203.5 302 203.5 315> 471 29<228 325.5> 581 26<367.5 397 367.5 403> 688 27<230 248>
VStem: 52 38<177 294.5 177 302.5> 445 39<203 320.5>
LayerCount: 2
Back
Fore
SplineSet
252 0 m 0
 138 0 52 103 52 229 c 0
 52 376 158 500 284 500 c 0
 397 500 484 395 484 271 c 0
 484 123 378 0 252 0 c 0
279 471 m 0
 177 471 90 358 90 231 c 0
 90 123 155 29 252 29 c 0
 352 29 445 140 445 266 c 0
 445 375 372 471 279 471 c 0
449 690 m 0
 451 696 456 701 465 701 c 0
 474 701 479 695 479 687 c 0
 479 649 430 581 376 581 c 0
 335 581 314 612 295 638 c 0
 269 675 258 688 238 688 c 0
 222 688 182 675 165 617 c 0
 162 608 157 604 150 604 c 0
 140 604 137 612 137 620 c 0
 137 662 191 715 238 715 c 0
 279 715 300 685 319 657 c 0
 336 632 357 607 378 607 c 0
 416 607 437 658 449 690 c 0
EndSplineSet
EndChar
StartChar: odieresis
Encoding: 246 246 193
Width: 525
Flags: MW
HStem: 0 29<203.5 302 203.5 315> 471 29<228 325.5> 600 66<210 227.5 375 393>
VStem: 52 38<177 294.5 177 302.5> 179 79<626 639.5> 345 79<626 639.5> 445 39<203 320.5>
LayerCount: 2
Back
Fore
SplineSet
252 0 m 0
 138 0 52 103 52 229 c 0
 52 376 158 500 284 500 c 0
 397 500 484 395 484 271 c 0
 484 123 378 0 252 0 c 0
279 471 m 0
 177 471 90 358 90 231 c 0
 90 123 155 29 252 29 c 0
 352 29 445 140 445 266 c 0
 445 375 372 471 279 471 c 0
258 636 m 0
 258 616 239 600 216 600 c 0
 196 600 179 613 179 630 c 0
 179 649 198 666 222 666 c 0
 241 666 258 652 258 636 c 0
424 636 m 0
 424 616 405 600 381 600 c 0
 361 600 345 613 345 630 c 0
 345 649 363 666 387 666 c 0
 406 666 424 652 424 636 c 0
EndSplineSet
EndChar
StartChar: divide
Encoding: 247 247 194
Width: 423
Flags: MW
HStem: 121 21G<199 211> 226 33<77.5 350 82 350> 345 20G<221 232.5>
VStem: 186 42<144 151> 203 42<336 343>
LayerCount: 2
Back
Fore
SplineSet
350 226 m 2xe8
 82 226 l 2
 73 226 64 233 64 243 c 0
 64 252 73 259 82 259 c 2
 350 259 l 2
 359 259 368 252 368 243 c 0
 368 233 359 226 350 226 c 2xe8
221 313 m 0
 210 313 203 323 203 336 c 0xe8
 203 350 214 365 228 365 c 0xf0
 237 365 245 355 245 345 c 0
 245 327 234 313 221 313 c 0
204 121 m 0
 194 121 186 131 186 144 c 0
 186 158 198 173 211 173 c 0
 221 173 228 164 228 153 c 0xf0
 228 135 218 121 204 121 c 0
EndSplineSet
EndChar
StartChar: oslash
Encoding: 248 248 195
Width: 525
Flags: MW
HStem: -36 21G<99 106> 0 29<238 302 238 315> 471 29<228 292> 526 20G<420.5 427.5>
VStem: 52 38<204.5 294.5 204.5 302.5> 445 39<203 295>
LayerCount: 2
Back
Fore
SplineSet
150 30 m 1
 117 -28 l 2
 114 -34 109 -36 103 -36 c 0
 95 -36 86 -29 86 -21 c 0
 86 -17 87 -15 89 -11 c 2
 126 49 l 1
 80 96 52 160 52 229 c 0
 52 376 158 500 284 500 c 0
 311 500 343 492 374 475 c 1
 411 539 l 2
 414 544 418 546 423 546 c 0
 432 546 440 541 440 531 c 0
 440 529 440 526 438 522 c 2
 401 457 l 1
 452 411 484 343 484 271 c 0
 484 123 378 0 252 0 c 0
 219 0 183 11 150 30 c 1
252 29 m 0
 352 29 445 140 445 266 c 0
 445 324 420 382 382 427 c 1
 167 57 l 1
 195 40 224 29 252 29 c 0
279 471 m 0
 177 471 90 358 90 231 c 0
 90 178 109 125 143 79 c 1
 357 447 l 1
 332 463 305 471 279 471 c 0
EndSplineSet
EndChar
StartChar: uacute
Encoding: 250 250 197
Width: 502
Flags: MW
HStem: -3 30<159 254.5> 0 21G<417.5 430> 715 20G<368 378.5>
VStem: 68 35<293 293> 407 38
LayerCount: 2
Back
Fore
SplineSet
391 115 m 0xb8
 402 127 406 143 406 167 c 2
 408 483 l 2
 408 492 417 500 426 500 c 0
 436 500 445 492 445 483 c 2
 445 19 l 2
 445 8 436 0 424 0 c 0x78
 411 0 402 10 402 24 c 2
 402 82 l 1
 369 34 293 -3 216 -3 c 0
 68 -3 69 144 68 293 c 0
 67 372 76 435 81 474 c 0
 84 496 91 500 100 500 c 0
 110 500 119 493 118 483 c 0
 118 479 117 471 116 462 c 0
 112 427 103 370 103 294 c 0
 103 162 102 27 216 27 c 0
 313 27 368 89 391 115 c 0xb8
389 692 m 2
 246 594 l 2
 239 589 234 587 230 587 c 0
 221 587 213 595 213 604 c 0
 213 607 213 612 219 617 c 2
 347 721 l 2
 356 728 363 735 373 735 c 0
 384 735 397 722 397 708 c 0
 397 701 396 697 389 692 c 2
EndSplineSet
EndChar
StartChar: ucircumflex
Encoding: 251 251 198
Width: 502
Flags: MW
HStem: -3 30<159 254.5> 0 21G<417.5 430> 500 99<95.5 162> 728 20G<295 299.5>
VStem: 68 35<293 293> 407 38
LayerCount: 2
Back
Fore
SplineSet
297 748 m 0xbc
 302 748 308 746 312 742 c 2
 424 629 l 2
 428 625 430 622 430 617 c 0
 430 608 422 599 413 599 c 0
 408 599 404 601 400 604 c 2
 295 699 l 1
 171 603 l 2
 168 601 164 599 160 599 c 0
 150 599 142 608 142 617 c 0
 142 622 145 627 149 630 c 2
 284 743 l 2
 288 746 293 748 297 748 c 0xbc
391 115 m 0
 402 127 406 143 406 167 c 2
 408 483 l 2
 408 492 417 500 426 500 c 0
 436 500 445 492 445 483 c 2
 445 19 l 2
 445 8 436 0 424 0 c 0x7c
 411 0 402 10 402 24 c 2
 402 82 l 1
 369 34 293 -3 216 -3 c 0
 68 -3 69 144 68 293 c 0
 67 372 76 435 81 474 c 0
 84 496 91 500 100 500 c 0
 110 500 119 493 118 483 c 0
 118 479 117 471 116 462 c 0
 112 427 103 370 103 294 c 0
 103 162 102 27 216 27 c 0
 313 27 368 89 391 115 c 0
EndSplineSet
EndChar
StartChar: udieresis
Encoding: 252 252 199
Width: 502
Flags: MW
HStem: -3 30<159 254.5> 0 21G<417.5 430> 600 66<182 200 348 365>
VStem: 68 35<293 293> 151 79<626 639.5> 317 79<626 639.5> 407 38
LayerCount: 2
Back
Fore
SplineSet
230 636 m 0xbe
 230 616 212 600 188 600 c 0
 168 600 151 613 151 630 c 0
 151 649 170 666 194 666 c 0
 213 666 230 652 230 636 c 0xbe
396 636 m 0
 396 616 377 600 353 600 c 0
 333 600 317 613 317 630 c 0
 317 649 336 666 360 666 c 0
 378 666 396 652 396 636 c 0
391 115 m 0
 402 127 406 143 406 167 c 2
 408 483 l 2
 408 492 417 500 426 500 c 0
 436 500 445 492 445 483 c 2
 445 19 l 2
 445 8 436 0 424 0 c 0x7e
 411 0 402 10 402 24 c 2
 402 82 l 1
 369 34 293 -3 216 -3 c 0
 68 -3 69 144 68 293 c 0
 67 372 76 435 81 474 c 0
 84 496 91 500 100 500 c 0
 110 500 119 493 118 483 c 0
 118 479 117 471 116 462 c 0
 112 427 103 370 103 294 c 0
 103 162 102 27 216 27 c 0
 313 27 368 89 391 115 c 0
EndSplineSet
EndChar
StartChar: yacute
Encoding: 253 253 200
Width: 479
Flags: MW
HStem: -205 21G<138 147> 481 20G<445 454.5> 715 20G<329 339.5>
LayerCount: 2
Back
Fore
SplineSet
351 692 m 2
 208 594 l 2
 202 590 196 587 192 587 c 0
 183 587 175 595 175 604 c 0
 175 607 175 612 177 614 c 2
 309 721 l 2
 316 727 325 735 333 735 c 0
 346 735 358 722 358 708 c 0
 358 702 355 695 351 692 c 2
465 470 m 2
 161 -193 l 2
 157 -201 151 -205 143 -205 c 0
 133 -205 123 -197 123 -187 c 0
 123 -183 125 -178 127 -173 c 2
 231 53 l 1
 24 469 l 2
 22 473 21 476 21 480 c 0
 21 491 29 500 40 500 c 0
 47 500 54 496 59 487 c 2
 251 98 l 1
 431 489 l 2
 434 496 441 501 449 501 c 0
 460 501 468 493 468 482 c 0
 468 479 467 474 465 470 c 2
EndSplineSet
EndChar
StartChar: thorn
Encoding: 254 254 118
Width: 510
Flags: MW
HStem: -203 21G<81 91.5> 8 36<225.5 324.5 225.5 338.5> 456 34<266.5 311 266.5 356> 677 20G<68 91.5 81 105>
VStem: 68 37<-184 42 83 358 406 677> 437 32<214.5 306.5>
LayerCount: 2
Back
Fore
SplineSet
311 490 m 1
 420 485 469 376 469 272 c 0
 469 157 426 8 251 8 c 0
 198 8 143 27 105 42 c 1
 105 -184 l 2
 105 -195 97 -203 86 -203 c 0
 76 -203 68 -195 68 -184 c 2
 68 677 l 2
 68 688 76 697 86 697 c 0
 97 697 105 688 105 677 c 2
 105 406 l 1
 156 453 222 490 311 490 c 1
257 44 m 0
 392 44 437 141 437 272 c 0
 437 341 409 456 303 456 c 0
 189 456 124 386 105 358 c 1
 105 83 l 1
 127 73 194 44 257 44 c 0
EndSplineSet
EndChar
StartChar: ydieresis
Encoding: 255 255 201
Width: 479
Flags: MW
HStem: -205 21G<138 147> 481 20G<445 454.5> 600 66<159 177 325 343>
VStem: 128 80<626 639.5> 294 79<626 639.5>
LayerCount: 2
Back
Fore
SplineSet
208 636 m 0
 208 616 189 600 165 600 c 0
 145 600 128 613 128 630 c 0
 128 649 147 666 171 666 c 0
 190 666 208 652 208 636 c 0
373 636 m 0
 373 616 355 600 331 600 c 0
 311 600 294 613 294 630 c 0
 294 649 313 666 337 666 c 0
 356 666 373 652 373 636 c 0
465 470 m 2
 161 -193 l 2
 157 -201 151 -205 143 -205 c 0
 133 -205 123 -197 123 -187 c 0
 123 -183 125 -178 127 -173 c 2
 231 53 l 1
 24 469 l 2
 22 473 21 476 21 480 c 0
 21 491 29 500 40 500 c 0
 47 500 54 496 59 487 c 2
 251 98 l 1
 431 489 l 2
 434 496 441 501 449 501 c 0
 460 501 468 493 468 482 c 0
 468 479 467 474 465 470 c 2
EndSplineSet
EndChar
StartChar: Abreve
Encoding: 258 258 227
Width: 614
Flags: MW
HStem: -1 21G<546 555.5> 0 21G<66 76> 669 20G<323.5 333> 762 28<303 352 303 367.5> 863 20G<454.5 460>
LayerCount: 2
Back
Fore
SplineSet
53 27 m 2x78
 122 203 l 1
 85 194 l 2
 73 192 65 202 65 212 c 0
 65 222 72 229 80 231 c 2
 139 244 l 1
 309 677 l 2
 312 684 319 689 328 689 c 0
 338 689 344 683 346 677 c 2
 568 32 l 2
 571 23 571 18 571 15 c 0
 571 4 561 -1 550 -1 c 0xb8
 542 -1 536 3 533 11 c 2
 444 272 l 1
 167 211 l 1
 89 11 l 2
 86 4 80 0 72 0 c 0
 60 0 51 8 51 18 c 0
 51 21 52 25 53 27 c 2x78
184 253 m 1
 431 307 l 1
 325 614 l 1
 184 253 l 1
189 865 m 0
 220 807 282 790 324 790 c 0
 380 790 420 816 443 868 c 0
 447 876 451 883 458 883 c 0
 462 883 465 880 465 876 c 0
 465 833 414 762 321 762 c 0
 206 762 167 849 167 869 c 0
 167 873 168 878 175 878 c 0
 181 878 186 870 189 865 c 0
EndSplineSet
EndChar
StartChar: abreve
Encoding: 259 259 243
Width: 495
Flags: MW
HStem: 0 21G<413 438> 8 37<185 265.5> 478 37<219 312.5> 582 28<269 318 269 333.5> 683 20G<420.5 426>
VStem: 52 39<186.5 270.5 186.5 275> 400 38<23 66 66 66>
LayerCount: 2
Back
Fore
SplineSet
438 476 m 1x7e
 438 21 l 2
 438 9 430 0 419 0 c 0xbe
 407 0 400 10 400 23 c 2
 400 66 l 1
 357 39 293 8 238 8 c 0
 132 8 52 95 52 223 c 0
 52 327 117 515 291 515 c 0
 352 515 413 489 438 476 c 1x7e
398 110 m 1
 402 452 l 1
 380 463 331 478 294 478 c 0
 144 478 91 316 91 225 c 0
 91 148 129 45 236 45 c 0x7e
 301 45 372 93 398 110 c 1
155 685 m 0
 186 627 248 610 290 610 c 0
 346 610 386 636 409 688 c 0
 413 696 417 703 424 703 c 0
 428 703 431 700 431 696 c 0
 431 653 380 582 287 582 c 0
 172 582 133 669 133 689 c 0
 133 693 134 698 141 698 c 0
 147 698 152 690 155 685 c 0
EndSplineSet
EndChar
StartChar: Aogonek
Encoding: 260 260 202
Width: 614
Flags: MW
HStem: -206 32<529 559.5 529 564> 0 21G<66 76> 669 20G<323.5 333>
VStem: 449 31<-129.5 -85.5 -129.5 -82> 449 191<-174 -82>
LayerCount: 2
Back
Fore
SplineSet
547 -206 m 0xe8
 490 -206 449 -164 449 -109 c 0
 449 -55 489 -12 531 15 c 1
 444 272 l 1
 167 211 l 1
 89 11 l 2
 86 4 80 0 72 0 c 0
 60 0 51 8 51 18 c 0
 51 21 52 25 53 27 c 2
 122 203 l 1
 85 194 l 2
 73 192 65 202 65 212 c 0
 65 222 72 229 80 231 c 2
 139 244 l 1
 309 677 l 2
 312 684 319 689 328 689 c 0
 338 689 344 683 346 677 c 2
 568 32 l 2
 574 14 574 9 553 -7 c 0
 518 -33 480 -61 480 -110 c 0xf0
 480 -149 510 -174 548 -174 c 0
 571 -174 594 -166 616 -150 c 0
 619 -148 622 -147 625 -147 c 0
 632 -147 640 -154 640 -162 c 0
 640 -186 581 -206 547 -206 c 0xe8
184 253 m 1
 431 307 l 1
 325 614 l 1
 184 253 l 1
EndSplineSet
EndChar
StartChar: aogonek
Encoding: 261 261 213
Width: 495
Flags: MW
HStem: -206 32<393 423.5 393 428> 8 37<185 265.5> 478 37<219 312.5>
VStem: 52 39<186.5 270.5 186.5 275> 313 31<-129.5 -85.5 -129.5 -81> 313 191<-174 -81> 400 38<19 21 21 66 66 66>
LayerCount: 2
Back
Fore
SplineSet
400 19 m 1xfc
 400 66 l 1
 357 39 293 8 238 8 c 0
 132 8 52 95 52 223 c 0
 52 327 117 515 291 515 c 0
 352 515 413 489 438 476 c 1
 438 21 l 2xfa
 438 5 422 -3 410 -12 c 0
 382 -33 344 -61 344 -110 c 0
 344 -149 374 -174 412 -174 c 0
 435 -174 458 -166 480 -150 c 0
 483 -148 486 -147 489 -147 c 0
 496 -147 504 -154 504 -162 c 0
 504 -186 445 -206 411 -206 c 0
 354 -206 313 -164 313 -109 c 0
 313 -53 356 -8 400 19 c 1xfc
398 110 m 1
 402 452 l 1
 380 463 331 478 294 478 c 0
 144 478 91 316 91 225 c 0
 91 148 129 45 236 45 c 0
 301 45 372 93 398 110 c 1
EndSplineSet
EndChar
StartChar: Cacute
Encoding: 262 262 229
Width: 622
Flags: MW
HStem: -2 38<290 376 290 386> 646 38<286.5 381.5 278.5 392.5> 880 20G<411 421.5>
VStem: 52 38<210.5 382 202.5 397.5>
LayerCount: 2
Back
Fore
SplineSet
559 145 m 0
 569 145 579 139 579 127 c 0
 579 123 577 118 575 115 c 0
 519 40 434 -2 338 -2 c 0
 182 -2 52 126 52 295 c 0
 52 500 210 684 347 684 c 0
 416 684 466 661 501 639 c 1
 506 650 515 658 523 658 c 0
 533 658 541 650 541 640 c 2
 541 574 l 2
 541 564 532 554 522 554 c 0
 512 554 503 564 503 574 c 2
 503 583 l 1
 481 607 438 646 347 646 c 0
 226 646 90 469 90 295 c 0
 90 110 242 36 338 36 c 0
 414 36 489 68 545 138 c 0
 549 142 554 145 559 145 c 0
432 857 m 2
 289 759 l 2
 282 754 277 752 273 752 c 0
 264 752 256 760 256 769 c 0
 256 772 256 777 262 782 c 2
 390 886 l 2
 399 893 406 900 416 900 c 0
 427 900 440 887 440 873 c 0
 440 866 439 862 432 857 c 2
EndSplineSet
EndChar
StartChar: cacute
Encoding: 263 263 245
Width: 499
Flags: MW
HStem: 0 33 467 33<238 303.5> 715 20G<368 378.5>
VStem: 52 35<152 231.5 146 239>
LayerCount: 2
Back
Fore
SplineSet
458 108 m 0
 458 103 454 97 451 93 c 0
 417 43 351 3 277 0 c 0
 161 -6 52 89 52 215 c 0
 52 263 66 308 76 334 c 0
 104 401 180 500 273 500 c 0
 345 500 383 474 421 430 c 0
 424 427 426 422 426 418 c 0
 426 408 418 400 409 400 c 0
 404 400 399 402 396 405 c 0
 366 441 332 467 275 467 c 0
 201 467 133 386 108 323 c 0
 92 281 87 246 87 217 c 0
 87 75 214 33 263 33 c 0
 342 33 391 71 421 111 c 0
 425 117 431 124 440 124 c 0
 449 124 458 117 458 108 c 0
389 692 m 2
 246 594 l 2
 239 589 234 587 230 587 c 0
 221 587 213 595 213 604 c 0
 213 607 213 612 219 617 c 2
 347 721 l 2
 356 728 363 735 373 735 c 0
 384 735 397 722 397 708 c 0
 397 701 396 697 389 692 c 2
EndSplineSet
EndChar
StartChar: Ccaron
Encoding: 268 268 230
Width: 622
Flags: MW
HStem: -2 38<290 376 290 386> 646 38<286.5 381.5 278.5 392.5> 646 246<231.5 392.5>
VStem: 52 38<210.5 382 202.5 397.5>
LayerCount: 2
Back
Fore
SplineSet
352 743 m 0xb0
 347 743 341 745 337 749 c 2
 225 862 l 2
 221 866 219 869 219 874 c 0
 219 883 227 892 236 892 c 0
 241 892 245 890 249 887 c 2
 354 792 l 1
 478 888 l 2
 481 890 485 892 489 892 c 0
 499 892 507 883 507 874 c 0
 507 869 504 864 500 861 c 2
 365 748 l 2
 361 745 356 743 352 743 c 0xb0
559 145 m 0
 569 145 579 139 579 127 c 0
 579 123 577 118 575 115 c 0
 519 40 434 -2 338 -2 c 0
 182 -2 52 126 52 295 c 0
 52 500 210 684 347 684 c 0xd0
 416 684 466 661 501 639 c 1
 506 650 515 658 523 658 c 0
 533 658 541 650 541 640 c 2
 541 574 l 2
 541 564 532 554 522 554 c 0
 512 554 503 564 503 574 c 2
 503 583 l 1
 481 607 438 646 347 646 c 0
 226 646 90 469 90 295 c 0
 90 110 242 36 338 36 c 0
 414 36 489 68 545 138 c 0
 549 142 554 145 559 145 c 0
EndSplineSet
EndChar
StartChar: ccaron
Encoding: 269 269 246
Width: 499
Flags: MW
HStem: 0 33 467 33<238 303.5> 718 20G<151.5 158.5 407 414>
VStem: 52 35<152 231.5 146 239>
LayerCount: 2
Back
Fore
SplineSet
272 589 m 0
 267 589 261 591 257 595 c 2
 145 708 l 2
 141 712 139 715 139 720 c 0
 139 729 147 738 156 738 c 0
 161 738 165 736 169 733 c 2
 274 638 l 1
 398 734 l 2
 401 736 405 738 409 738 c 0
 419 738 427 729 427 720 c 0
 427 715 424 710 420 707 c 2
 285 594 l 2
 281 591 276 589 272 589 c 0
458 108 m 0
 458 103 454 97 451 93 c 0
 417 43 351 3 277 0 c 0
 161 -6 52 89 52 215 c 0
 52 263 66 308 76 334 c 0
 104 401 180 500 273 500 c 0
 345 500 383 474 421 430 c 0
 424 427 426 422 426 418 c 0
 426 408 418 400 409 400 c 0
 404 400 399 402 396 405 c 0
 366 441 332 467 275 467 c 0
 201 467 133 386 108 323 c 0
 92 281 87 246 87 217 c 0
 87 75 214 33 263 33 c 0
 342 33 391 71 421 111 c 0
 425 117 431 124 440 124 c 0
 449 124 458 117 458 108 c 0
EndSplineSet
EndChar
StartChar: Dcaron
Encoding: 270 270 233
Width: 610
Flags: MW
HStem: -21 39<190 301.5 190 303> 643 38<106 106> 643 249<106 149.5>
VStem: 68 38<31 643 31 662 31 667.5> 519 38<204 422>
LayerCount: 2
Back
Fore
SplineSet
207 -21 m 0xd8
 148 -21 90 -5 82 -3 c 0
 74 -1 68 7 68 15 c 2
 68 662 l 2
 68 673 77 681 87 681 c 0
 252 681 557 625 557 299 c 0
 557 76 399 -21 207 -21 c 0xd8
106 643 m 1
 106 31 l 1
 132 25 173 18 207 18 c 0
 396 18 519 109 519 299 c 0
 519 545 326 633 106 643 c 1
263 743 m 0
 258 743 252 745 248 749 c 2
 136 862 l 2
 132 866 130 869 130 874 c 0
 130 883 138 892 147 892 c 0
 152 892 156 890 160 887 c 2
 265 792 l 1
 389 888 l 2
 392 890 396 892 400 892 c 0xb8
 410 892 418 883 418 874 c 0
 418 869 415 864 411 861 c 2
 276 748 l 2
 272 745 267 743 263 743 c 0
EndSplineSet
EndChar
StartChar: dcaron
Encoding: 271 271 249
Width: 535
Flags: MW
HStem: 0 21G<422 433.5> 4 30<170 261> 463 35<193 294.5 188.5 299.5> 685 20G<440 464>
VStem: 53 37<188 275.5 188 296.5> 422 34 536 54<666 672>
LayerCount: 2
Back
Fore
SplineSet
523 563 m 2x7e
 550 634 l 1
 541 642 536 653 536 662 c 0
 536 682 551 698 567 698 c 0
 580 698 590 686 590 675 c 0
 590 657 587 650 572 612 c 0
 556 572 545 543 534 543 c 0
 527 543 521 548 521 553 c 0
 521 556 521 558 523 563 c 2x7e
464 685 m 2
 448 18 l 2
 448 7 439 0 428 0 c 0xbe
 416 0 410 9 410 22 c 2
 412 96 l 1
 368 55 300 4 222 4 c 0
 106 4 53 116 53 225 c 0
 53 368 111 498 266 498 c 0
 323 498 380 478 420 461 c 1
 425 686 l 2
 425 696 435 705 445 705 c 0
 456 705 464 695 464 685 c 2
90 228 m 0
 90 148 118 34 222 34 c 0x7e
 336 34 413 122 414 157 c 2
 419 419 l 1
 397 430 331 463 268 463 c 0
 118 463 90 323 90 228 c 0
EndSplineSet
EndChar
StartChar: Dcroat
Encoding: 272 272 234
Width: 645
Flags: MW
HStem: -21 39<252 364 252 365.5> 290 38<50 130 55 130 165 283 55 165> 643 38<165 165>
VStem: 130 35<31 290 31 290 31 290 328 643> 566 36<204 422>
LayerCount: 2
Back
Fore
SplineSet
269 -21 m 0
 211 -21 153 -5 145 -3 c 0
 136 -1 130 7 130 15 c 2
 130 290 l 1
 55 290 l 2
 45 290 37 298 37 308 c 0
 37 318 45 328 55 328 c 2
 130 328 l 1
 130 662 l 2
 130 673 140 681 150 681 c 0
 314 681 602 625 602 299 c 0
 602 76 462 -21 269 -21 c 0
165 290 m 1
 165 31 l 1
 192 25 235 18 269 18 c 0
 459 18 566 109 566 299 c 0
 566 545 386 634 165 643 c 1
 165 328 l 1
 283 328 l 2
 293 328 301 318 301 308 c 0
 301 298 293 290 283 290 c 2
 165 290 l 1
EndSplineSet
EndChar
StartChar: dcroat
Encoding: 273 273 250
Width: 547
Flags: MW
HStem: 0 21G<422 433.5> 4 30<170 261> 463 35<193 294.5 188.5 299.5> 575 32<331 423 336 422 462 540> 685 20G<440 464>
VStem: 53 37<188 275.5 188 296.5> 421 33
LayerCount: 2
Back
Fore
SplineSet
464 685 m 2x7e
 462 607 l 1
 540 607 l 2
 548 607 556 600 556 592 c 0
 556 582 548 575 540 575 c 2
 461 575 l 1
 448 18 l 2
 448 7 439 0 428 0 c 0xbe
 416 0 410 9 410 22 c 2
 412 96 l 1
 368 55 300 4 222 4 c 0
 106 4 53 116 53 225 c 0
 53 368 111 498 266 498 c 0
 323 498 380 478 420 461 c 1
 422 575 l 1
 336 575 l 2
 326 575 319 582 319 592 c 0
 319 600 326 607 336 607 c 2
 423 607 l 1
 425 686 l 2
 425 696 435 705 445 705 c 0
 456 705 464 695 464 685 c 2x7e
90 228 m 0
 90 148 118 34 222 34 c 0x7e
 336 34 413 122 414 157 c 2
 419 419 l 1
 397 430 331 463 268 463 c 0
 118 463 90 323 90 228 c 0
EndSplineSet
EndChar
StartChar: Eogonek
Encoding: 280 280 231
Width: 600
Flags: MW
HStem: -206 32<449 479.5 449 484> 0 38<82 526 106 430 482 482 482 526> 334 38<106 478 106 478> 644 38<106 528 106 106>
VStem: 68 38<38 334 372 644> 369 31<-129.5 -86.5> 369 191<-174 -86.5>
LayerCount: 2
Back
Fore
SplineSet
467 -206 m 0xfa
 410 -206 369 -164 369 -109 c 0
 369 -64 397 -27 430 0 c 1
 87 0 l 2
 77 0 68 9 68 20 c 2
 68 664 l 2
 68 674 77 682 87 682 c 2
 528 682 l 2
 538 682 547 674 547 664 c 0
 547 653 538 644 528 644 c 2
 106 644 l 1
 106 372 l 1
 478 372 l 2
 488 372 496 364 496 353 c 0
 496 343 488 334 478 334 c 2
 106 334 l 1
 106 38 l 1
 526 38 l 2
 536 38 545 30 545 20 c 0
 545 9 536 0 526 0 c 2
 482 0 l 1
 466 -12 l 2
 438 -33 400 -61 400 -110 c 0xfc
 400 -149 430 -174 468 -174 c 0
 491 -174 514 -166 536 -150 c 0
 539 -148 542 -147 545 -147 c 0
 552 -147 560 -154 560 -162 c 0
 560 -186 501 -206 467 -206 c 0xfa
EndSplineSet
EndChar
StartChar: eogonek
Encoding: 281 281 247
Width: 511
Flags: MW
HStem: -209 32<304 334.5 304 339> 0 33 465 34<220 317>
VStem: 53 32<231 300.5 231 307> 224 31<-132.5 -88.5> 224 191<-177 -88.5>
LayerCount: 2
Back
Fore
SplineSet
322 -209 m 0xf4
 265 -209 224 -167 224 -112 c 0
 224 -65 254 -27 289 0 c 1
 143 6 53 117 53 238 c 0
 53 376 141 499 276 499 c 0
 403 499 461 413 461 371 c 0
 461 365 455 357 443 350 c 2
 102 155 l 1
 146 74 213 33 301 33 c 0
 349 33 414 60 443 95 c 0
 446 98 449 100 453 100 c 0
 463 100 470 93 470 83 c 0
 470 79 468 75 465 72 c 0
 445 50 411 34 376 17 c 0
 317 -12 255 -44 255 -113 c 0xf8
 255 -152 285 -177 323 -177 c 0
 346 -177 369 -169 391 -153 c 0
 394 -151 397 -150 400 -150 c 0
 407 -150 415 -157 415 -165 c 0
 415 -189 356 -209 322 -209 c 0xf4
276 465 m 0
 164 465 85 364 85 237 c 0
 85 225 85 216 91 188 c 1
 427 373 l 1
 404 432 358 465 276 465 c 0
EndSplineSet
EndChar
StartChar: Ecaron
Encoding: 282 282 232
Width: 600
Flags: MW
HStem: 0 38<82 526 106 526 106 526> 334 38<106 478 106 478> 644 38<106 528 106 106> 644 248<180.5 187.5 436 443 106 187.5>
VStem: 68 38<38 38 38 334 372 644>
LayerCount: 2
Back
Fore
SplineSet
106 38 m 1xe8
 526 38 l 2
 536 38 545 30 545 20 c 0
 545 9 536 0 526 0 c 2
 87 0 l 2
 77 0 68 9 68 20 c 2
 68 664 l 2
 68 674 77 682 87 682 c 2
 528 682 l 2
 538 682 547 674 547 664 c 0
 547 653 538 644 528 644 c 2
 106 644 l 1
 106 372 l 1
 478 372 l 2
 488 372 496 364 496 353 c 0
 496 343 488 334 478 334 c 2
 106 334 l 1
 106 38 l 1xe8
301 743 m 0
 296 743 290 745 286 749 c 2
 174 862 l 2
 170 866 168 869 168 874 c 0
 168 883 176 892 185 892 c 0
 190 892 194 890 198 887 c 2
 303 792 l 1
 427 888 l 2
 430 890 434 892 438 892 c 0xd8
 448 892 456 883 456 874 c 0
 456 869 453 864 449 861 c 2
 314 748 l 2
 310 745 305 743 301 743 c 0
EndSplineSet
EndChar
StartChar: ecaron
Encoding: 283 283 248
Width: 511
Flags: MW
HStem: 0 33<257 325 257 332.5> 465 34<220 317> 718 20G<152.5 159.5 408 415>
VStem: 53 32<231 300.5 231 307>
LayerCount: 2
Back
Fore
SplineSet
470 83 m 0
 470 79 468 75 465 72 c 0
 430 32 363 0 302 0 c 0
 149 0 53 114 53 238 c 0
 53 376 141 499 276 499 c 0
 403 499 461 413 461 371 c 0
 461 365 455 357 443 350 c 2
 102 155 l 1
 146 74 213 33 301 33 c 0
 349 33 414 60 443 95 c 0
 446 98 449 100 453 100 c 0
 463 100 470 93 470 83 c 0
276 465 m 0
 164 465 85 364 85 237 c 0
 85 225 85 216 91 188 c 1
 427 373 l 1
 404 432 358 465 276 465 c 0
273 589 m 0
 268 589 262 591 258 595 c 2
 146 708 l 2
 142 712 140 715 140 720 c 0
 140 729 148 738 157 738 c 0
 162 738 166 736 170 733 c 2
 275 638 l 1
 399 734 l 2
 402 736 406 738 410 738 c 0
 420 738 428 729 428 720 c 0
 428 715 425 710 421 707 c 2
 286 594 l 2
 282 591 277 589 273 589 c 0
EndSplineSet
EndChar
StartChar: Lacute
Encoding: 313 313 228
Width: 467
Flags: MW
HStem: 12 38 880 20G<307 317.5>
VStem: 68 37<38 662 38 662 38 667.5>
LayerCount: 2
Back
Fore
SplineSet
443 25 m 2
 87 0 l 2
 77 -1 68 7 68 19 c 2
 68 662 l 2
 68 673 76 681 87 681 c 0
 97 681 105 673 105 662 c 2
 105 38 l 1
 441 62 l 2
 452 63 461 54 461 43 c 0
 461 34 454 26 443 25 c 2
328 857 m 2
 185 759 l 2
 178 754 173 752 169 752 c 0
 160 752 152 760 152 769 c 0
 152 772 152 777 158 782 c 2
 286 886 l 2
 295 893 302 900 312 900 c 0
 323 900 336 887 336 873 c 0
 336 866 335 862 328 857 c 2
EndSplineSet
EndChar
StartChar: lacute
Encoding: 314 314 244
Width: 216
Flags: MW
HStem: 0 21G<105.5 114.5> 880 20G<184 194.5>
VStem: 91 38<16 680>
LayerCount: 2
Back
Fore
SplineSet
129 680 m 2
 129 16 l 2
 129 7 119 0 110 0 c 0
 101 0 91 7 91 16 c 2
 91 680 l 2
 91 690 100 698 110 698 c 0
 120 698 129 690 129 680 c 2
205 857 m 2
 62 759 l 2
 55 754 50 752 46 752 c 0
 37 752 29 760 29 769 c 0
 29 772 29 777 35 782 c 2
 163 886 l 2
 172 893 179 900 189 900 c 0
 200 900 213 887 213 873 c 0
 213 866 212 862 205 857 c 2
EndSplineSet
EndChar
StartChar: Lcaron
Encoding: 317 317 206
Width: 467
Flags: MW
HStem: 12 38 872 20G<24.5 31.5 280 287>
VStem: 68 37<38 662 38 662 38 667.5>
LayerCount: 2
Back
Fore
SplineSet
145 743 m 0
 140 743 134 745 130 749 c 2
 18 862 l 2
 14 866 12 869 12 874 c 0
 12 883 20 892 29 892 c 0
 34 892 38 890 42 887 c 2
 147 792 l 1
 271 888 l 2
 274 890 278 892 282 892 c 0
 292 892 300 883 300 874 c 0
 300 869 297 864 293 861 c 2
 158 748 l 2
 154 745 149 743 145 743 c 0
443 25 m 2
 87 0 l 2
 77 -1 68 7 68 19 c 2
 68 662 l 2
 68 673 76 681 87 681 c 0
 97 681 105 673 105 662 c 2
 105 38 l 1
 441 62 l 2
 452 63 461 54 461 43 c 0
 461 34 454 26 443 25 c 2
EndSplineSet
EndChar
StartChar: lcaron
Encoding: 318 318 217
Width: 247
Flags: MW
HStem: 0 21G<105.5 114.5> 678 20G<105 115 230 244.5>
VStem: 91 38<16 680> 207 54<666 672>
LayerCount: 2
Back
Fore
SplineSet
194 563 m 2
 221 634 l 1
 212 642 207 653 207 662 c 0
 207 682 222 698 238 698 c 0
 251 698 261 686 261 675 c 0
 261 657 258 650 243 612 c 0
 227 572 216 543 205 543 c 0
 198 543 192 548 192 553 c 0
 192 556 192 558 194 563 c 2
129 680 m 2
 129 16 l 2
 129 7 119 0 110 0 c 0
 101 0 91 7 91 16 c 2
 91 680 l 2
 91 690 100 698 110 698 c 0
 120 698 129 690 129 680 c 2
EndSplineSet
EndChar
StartChar: Lslash
Encoding: 321 321 204
Width: 518
Flags: MW
HStem: 12 38 661 20G<134 144.5>
VStem: 121 37<38 313 313 313 379 662>
LayerCount: 2
Back
Fore
SplineSet
27 298 m 2
 121 358 l 1
 121 662 l 2
 121 673 129 681 139 681 c 0
 150 681 158 673 158 662 c 2
 158 379 l 1
 231 427 l 2
 234 429 238 430 241 430 c 0
 252 430 261 421 261 410 c 0
 261 404 258 398 253 395 c 2
 158 335 l 1
 158 38 l 1
 494 62 l 2
 502 63 512 55 513 44 c 0
 512 34 506 26 496 25 c 2
 138 0 l 2
 130 -1 121 9 121 19 c 2
 121 313 l 1
 49 266 l 2
 46 264 40 263 37 263 c 0
 29 263 19 269 19 280 c 0
 19 287 21 294 27 298 c 2
EndSplineSet
EndChar
StartChar: lslash
Encoding: 322 322 215
Width: 274
Flags: MW
HStem: 0 21G<143.5 152.5> 678 20G<143 153>
VStem: 129 38<16 311 311 311 381 680>
LayerCount: 2
Back
Fore
SplineSet
41 301 m 2
 129 357 l 1
 129 680 l 2
 129 690 138 698 148 698 c 0
 158 698 167 690 167 680 c 2
 167 381 l 1
 247 432 l 2
 250 434 253 435 257 435 c 0
 268 435 277 425 277 415 c 0
 277 408 274 403 269 400 c 2
 167 336 l 1
 167 16 l 2
 167 7 157 0 148 0 c 0
 139 0 129 7 129 16 c 2
 129 311 l 1
 63 268 l 2
 58 265 55 265 51 265 c 0
 43 265 32 272 32 283 c 0
 32 291 34 297 41 301 c 2
EndSplineSet
EndChar
StartChar: Nacute
Encoding: 323 323 235
Width: 609
Flags: MW
HStem: 0 21G<81 91 528.5 537.5> 662 20G 880 20G<394 404.5>
VStem: 68 37<13.5 19> 514 37<77 664>
LayerCount: 2
Back
Fore
SplineSet
517 7 m 2
 106 603 l 1
 105 19 l 2
 105 8 96 0 86 0 c 0
 76 0 68 8 68 19 c 2
 69 662 l 2
 69 673 76 681 86 681 c 0
 94 681 100 678 105 670 c 2
 514 77 l 1
 514 664 l 2
 514 674 522 682 532 682 c 0
 543 682 551 674 551 664 c 2
 551 19 l 2
 551 8 543 0 532 0 c 0
 525 0 520 2 517 7 c 2
415 857 m 2
 272 759 l 2
 265 754 260 752 256 752 c 0
 247 752 239 760 239 769 c 0
 239 772 239 777 245 782 c 2
 373 886 l 2
 382 893 389 900 399 900 c 0
 410 900 423 887 423 873 c 0
 423 866 422 862 415 857 c 2
EndSplineSet
EndChar
StartChar: nacute
Encoding: 324 324 251
Width: 525
Flags: MW
HStem: 0 21G<81 104> 464 35<304 379> 715 20G<385 395.5>
VStem: 68 36<17 21 15 482> 432 37<128 145>
LayerCount: 2
Back
Fore
SplineSet
105 482 m 2
 105 265 l 1
 125 380 229 499 333 499 c 0
 453 499 469 388 469 148 c 0
 469 108 469 66 468 20 c 0
 468 9 461 0 451 0 c 0
 442 0 433 8 433 19 c 0
 432 65 432 106 432 145 c 0
 431 357 430 464 328 464 c 0
 280 464 219 438 162 334 c 0
 127 269 106 179 105 105 c 2
 104 21 l 2
 104 9 98 0 86 0 c 0
 76 0 68 7 68 17 c 2
 68 482 l 2
 68 492 76 500 86 500 c 0
 97 500 105 492 105 482 c 2
406 692 m 2
 263 594 l 2
 256 589 251 587 247 587 c 0
 238 587 230 595 230 604 c 0
 230 607 230 612 236 617 c 2
 364 721 l 2
 373 728 380 735 390 735 c 0
 401 735 414 722 414 708 c 0
 414 701 413 697 406 692 c 2
EndSplineSet
EndChar
StartChar: Ncaron
Encoding: 327 327 236
Width: 609
Flags: MW
HStem: 0 21G<81 91 528.5 537.5> 662 20G 872 20G<187.5 194.5 443 450>
VStem: 68 37<13.5 19> 514 37<77 664>
LayerCount: 2
Back
Fore
SplineSet
532 0 m 0
 525 0 520 2 517 7 c 2
 106 603 l 1
 105 19 l 2
 105 8 96 0 86 0 c 0
 76 0 68 8 68 19 c 2
 69 662 l 2
 69 672 76 681 86 681 c 0
 91 681 98 676 103 673 c 2
 514 77 l 1
 514 664 l 2
 514 674 522 682 532 682 c 0
 543 682 551 674 551 664 c 2
 551 19 l 2
 551 8 543 0 532 0 c 0
308 743 m 0
 303 743 297 745 293 749 c 2
 181 862 l 2
 177 866 175 869 175 874 c 0
 175 883 183 892 192 892 c 0
 197 892 201 890 205 887 c 2
 310 792 l 1
 434 888 l 2
 437 890 441 892 445 892 c 0
 455 892 463 883 463 874 c 0
 463 869 460 864 456 861 c 2
 321 748 l 2
 317 745 312 743 308 743 c 0
EndSplineSet
EndChar
StartChar: ncaron
Encoding: 328 328 252
Width: 525
Flags: MW
HStem: 0 21G<81 104> 464 35<304 379> 718 20G<166.5 173.5 422 429>
VStem: 68 36<17 21 15 482> 432 37<128 145>
LayerCount: 2
Back
Fore
SplineSet
287 589 m 0
 282 589 276 591 272 595 c 2
 160 708 l 2
 156 712 154 715 154 720 c 0
 154 729 162 738 171 738 c 0
 176 738 180 736 184 733 c 2
 289 638 l 1
 413 734 l 2
 416 736 420 738 424 738 c 0
 434 738 442 729 442 720 c 0
 442 715 439 710 435 707 c 2
 300 594 l 2
 296 591 291 589 287 589 c 0
105 482 m 2
 105 265 l 1
 125 380 229 499 333 499 c 0
 453 499 469 388 469 148 c 0
 469 108 469 66 468 20 c 0
 468 9 461 0 451 0 c 0
 442 0 433 8 433 19 c 0
 432 65 432 106 432 145 c 0
 431 357 430 464 328 464 c 0
 280 464 219 438 162 334 c 0
 127 269 106 179 105 105 c 2
 104 21 l 2
 104 9 98 0 86 0 c 0
 76 0 68 7 68 17 c 2
 68 482 l 2
 68 492 76 500 86 500 c 0
 97 500 105 492 105 482 c 2
EndSplineSet
EndChar
StartChar: Ohungarumlaut
Encoding: 336 336 237
Width: 650
Flags: MW
HStem: -2 33<246.5 374 246.5 386> 649 33<278.5 408.5> 741 148<264.5 416.5 406 438>
VStem: 62 34<235.5 406 235.5 412.5> 564 34<273.5 436>
LayerCount: 2
Back
Fore
SplineSet
308 -2 m 0
 165 -2 62 142 62 312 c 0
 62 513 196 682 352 682 c 0
 494 682 598 540 598 368 c 0
 598 167 464 -2 308 -2 c 0
344 649 m 0
 213 649 96 500 96 312 c 0
 96 159 185 31 308 31 c 0
 440 31 564 183 564 364 c 0
 564 508 473 649 344 649 c 0
428 846 m 2
 285 748 l 2
 279 744 273 741 269 741 c 0
 260 741 252 749 252 758 c 0
 252 761 252 766 260 773 c 2
 386 875 l 2
 393 881 402 889 410 889 c 0
 423 889 435 876 435 862 c 0
 435 856 435 851 428 846 c 2
590 842 m 2
 451 748 l 2
 446 744 440 741 436 741 c 0
 426 741 419 749 419 758 c 0
 419 761 419 766 426 772 c 2
 552 875 l 2
 560 881 569 889 576 889 c 0
 590 889 601 876 601 862 c 0
 601 856 600 849 590 842 c 2
EndSplineSet
EndChar
StartChar: ohungarumlaut
Encoding: 337 337 253
Width: 525
Flags: MW
HStem: 0 29<203.5 302 203.5 315> 471 29<228 325.5> 586 148<144.5 296.5 286 318>
VStem: 52 38<177 294.5 177 302.5> 445 39<203 320.5>
LayerCount: 2
Back
Fore
SplineSet
252 0 m 0
 138 0 52 103 52 229 c 0
 52 376 158 500 284 500 c 0
 397 500 484 395 484 271 c 0
 484 123 378 0 252 0 c 0
279 471 m 0
 177 471 90 358 90 231 c 0
 90 123 155 29 252 29 c 0
 352 29 445 140 445 266 c 0
 445 375 372 471 279 471 c 0
308 691 m 2
 165 593 l 2
 159 589 153 586 149 586 c 0
 140 586 132 594 132 603 c 0
 132 606 132 611 140 618 c 2
 266 720 l 2
 273 726 282 734 290 734 c 0
 303 734 315 721 315 707 c 0
 315 701 315 696 308 691 c 2
470 687 m 2
 331 593 l 2
 326 589 320 586 316 586 c 0
 306 586 299 594 299 603 c 0
 299 606 299 611 306 617 c 2
 432 720 l 2
 440 726 449 734 456 734 c 0
 470 734 481 721 481 707 c 0
 481 701 480 694 470 687 c 2
EndSplineSet
EndChar
StartChar: OE
Encoding: 338 338 122
Width: 1088
Flags: MW
HStem: 0 38<581 1025 605 1025 605 1025> 334 38<605 977 605 977> 644 38<605 1027 605 605> 664 20G
VStem: 59 34<237.5 408 237.5 414.5> 567 38<14.5 334 496 644>
LayerCount: 2
Back
Fore
SplineSet
567 20 m 2xec
 566 209 l 1
 523 89 404 0 305 0 c 0
 162 0 59 144 59 314 c 0
 59 515 193 684 348 684 c 0
 426 684 531 608 567 496 c 1
 567 664 l 2xdc
 567 674 576 682 586 682 c 2
 1027 682 l 2xec
 1038 682 1046 674 1046 664 c 0xdc
 1046 653 1038 644 1027 644 c 2
 605 644 l 1
 605 372 l 1
 977 372 l 2
 987 372 995 364 995 353 c 0
 995 343 987 334 977 334 c 2
 605 334 l 1
 605 38 l 1
 1025 38 l 2
 1036 38 1044 30 1044 20 c 0
 1044 9 1036 0 1025 0 c 2
 586 0 l 2
 576 0 567 9 567 20 c 2xec
305 33 m 0
 467 33 561 225 561 366 c 0
 561 510 470 651 341 651 c 0
 209 651 93 502 93 314 c 0
 93 161 181 33 305 33 c 0
EndSplineSet
EndChar
StartChar: oe
Encoding: 339 339 123
Width: 867
Flags: MW
HStem: 0 27<198.5 282> 455 27 463 20G<206 309.5>
VStem: 48 38<165.5 282.5> 429 36<222.5 291.5 222.5 308>
LayerCount: 2
Back
Fore
SplineSet
429 244 m 0xd8
 429 372 356 455 268 455 c 0
 169 455 86 344 86 223 c 0
 86 108 155 27 242 27 c 0
 349 27 429 153 429 244 c 0xd8
674 0 m 0
 576 0 497 50 446 152 c 1
 399 59 322 0 242 0 c 0
 132 0 48 100 48 219 c 0
 48 346 139 483 273 483 c 0xb8
 346 483 418 423 453 339 c 1
 501 436 585 482 656 482 c 0
 774 482 830 400 830 358 c 0
 830 352 825 345 812 338 c 2
 481 147 l 1
 524 65 592 33 681 33 c 0
 730 33 783 60 812 95 c 0
 815 98 818 100 823 100 c 0
 832 100 839 93 839 83 c 0
 839 79 837 75 834 72 c 0
 800 32 734 0 674 0 c 0
656 448 m 0
 548 448 465 355 465 228 c 0
 465 217 465 207 470 179 c 1
 798 362 l 1
 766 424 728 448 656 448 c 0
EndSplineSet
EndChar
StartChar: Racute
Encoding: 340 340 226
Width: 587
Flags: MW
HStem: 0 21G<81 91 520.5 530.5> 258 27 651 37<157 262> 880 20G<378 388.5>
VStem: 68 37<19 247 285 649> 480 37<427.5 538>
LayerCount: 2
Back
Fore
SplineSet
541 27 m 0
 542 24 543 22 543 19 c 0
 543 9 537 0 524 0 c 0
 517 0 512 5 508 11 c 0
 372 241 259 258 214 258 c 0
 193 258 144 253 105 247 c 1
 105 19 l 2
 105 8 96 0 86 0 c 0
 76 0 68 8 68 19 c 2
 68 657 l 2
 68 689 82 688 166 688 c 0
 391 688 517 613 517 482 c 0
 517 373 413 311 309 276 c 1
 359 246 473 161 541 27 c 0
105 649 m 1
 105 285 l 1
 261 288 480 342 480 482 c 0
 480 594 362 651 162 651 c 0
 152 651 120 650 105 649 c 1
399 857 m 2
 256 759 l 2
 249 754 244 752 240 752 c 0
 231 752 223 760 223 769 c 0
 223 772 223 777 229 782 c 2
 357 886 l 2
 366 893 373 900 383 900 c 0
 394 900 407 887 407 873 c 0
 407 866 406 862 399 857 c 2
EndSplineSet
EndChar
StartChar: racute
Encoding: 341 341 242
Width: 406
Flags: MW
HStem: 0 21G<82.5 92.5> 466 36<261 313.5> 715 20G<327 337.5>
VStem: 69 37<12 481> 336 36<397 407 407 413 390.5 421.5>
LayerCount: 2
Back
Fore
SplineSet
107 481 m 2
 107 342 l 1
 129 409 211 502 298 502 c 0
 345 502 374 481 372 413 c 2
 372 396 l 2
 372 385 365 377 355 377 c 0
 341 377 336 386 336 397 c 2
 336 407 l 2
 336 436 339 466 288 466 c 0
 234 466 185 422 145 368 c 0
 124 340 107 289 107 253 c 2
 106 17 l 2
 106 7 98 0 87 0 c 0
 78 0 69 7 69 17 c 2
 69 481 l 2
 69 491 77 499 87 499 c 0
 98 499 107 491 107 481 c 2
348 692 m 2
 205 594 l 2
 198 589 193 587 189 587 c 0
 180 587 172 595 172 604 c 0
 172 607 172 612 178 617 c 2
 306 721 l 2
 315 728 322 735 332 735 c 0
 343 735 356 722 356 708 c 0
 356 701 355 697 348 692 c 2
EndSplineSet
EndChar
StartChar: Rcaron
Encoding: 344 344 238
Width: 587
Flags: MW
HStem: 0 21G<81 91 520.5 530.5> 258 27 651 37<157 262> 651 241<164.5 171.5 164.5 262>
VStem: 68 37<19 247 285 649> 480 37<427.5 538>
LayerCount: 2
Back
Fore
SplineSet
285 743 m 0xdc
 280 743 274 745 270 749 c 2
 158 862 l 2
 154 866 152 869 152 874 c 0
 152 883 160 892 169 892 c 0
 174 892 178 890 182 887 c 2
 287 792 l 1
 411 888 l 2
 414 890 418 892 422 892 c 0
 432 892 440 883 440 874 c 0
 440 869 437 864 433 861 c 2
 298 748 l 2
 294 745 289 743 285 743 c 0xdc
541 27 m 0
 542 24 543 22 543 19 c 0
 543 9 537 0 524 0 c 0
 517 0 512 5 508 11 c 0
 372 241 259 258 214 258 c 0
 193 258 144 253 105 247 c 1
 105 19 l 2
 105 8 96 0 86 0 c 0
 76 0 68 8 68 19 c 2
 68 657 l 2
 68 689 82 688 166 688 c 0xec
 391 688 517 613 517 482 c 0
 517 373 413 311 309 276 c 1
 359 246 473 161 541 27 c 0
105 649 m 1
 105 285 l 1
 261 288 480 342 480 482 c 0
 480 594 362 651 162 651 c 0
 152 651 120 650 105 649 c 1
EndSplineSet
EndChar
StartChar: rcaron
Encoding: 345 345 254
Width: 406
Flags: MW
HStem: 0 21G<82.5 92.5> 466 36<261 313.5> 718 20G<115.5 122.5 371 378>
VStem: 69 37<12 481> 336 36<397 407 407 413 390.5 421.5>
LayerCount: 2
Back
Fore
SplineSet
236 589 m 0
 231 589 225 591 221 595 c 2
 109 708 l 2
 105 712 103 715 103 720 c 0
 103 729 111 738 120 738 c 0
 125 738 129 736 133 733 c 2
 238 638 l 1
 362 734 l 2
 365 736 369 738 373 738 c 0
 383 738 391 729 391 720 c 0
 391 715 388 710 384 707 c 2
 249 594 l 2
 245 591 240 589 236 589 c 0
107 481 m 2
 107 342 l 1
 129 409 211 502 298 502 c 0
 345 502 374 481 372 413 c 2
 372 396 l 2
 372 385 365 377 355 377 c 0
 341 377 336 386 336 397 c 2
 336 407 l 2
 336 436 339 466 288 466 c 0
 234 466 185 422 145 368 c 0
 124 340 107 289 107 253 c 2
 106 17 l 2
 106 7 98 0 87 0 c 0
 78 0 69 7 69 17 c 2
 69 481 l 2
 69 491 77 499 87 499 c 0
 98 499 107 491 107 481 c 2
EndSplineSet
EndChar
StartChar: Sacute
Encoding: 346 346 207
Width: 588
Flags: MW
HStem: 0 34<265 343.5 265 355> 650 32<277 362.5 271 363.5> 880 20G<402 412.5>
VStem: 100 40<487.5 569.5 487.5 578.5> 490 43<132.5 207.5>
LayerCount: 2
Back
Fore
SplineSet
315 379 m 0
 461 338 533 278 533 188 c 0
 533 61 406 0 304 0 c 0
 191 0 100 56 66 138 c 0
 65 141 63 147 63 151 c 0
 63 162 73 171 84 171 c 0
 95 171 101 165 104 156 c 0
 132 76 227 34 303 34 c 0
 384 34 490 77 490 188 c 0
 490 227 478 295 308 341 c 0
 211 367 100 419 100 515 c 0
 100 642 215 682 327 682 c 0
 398 682 519 659 530 553 c 0
 530 543 524 534 513 534 c 0
 502 534 496 541 495 549 c 0
 487 619 403 650 324 650 c 0
 230 650 140 619 140 520 c 0
 140 455 202 410 315 379 c 0
423 857 m 2
 280 759 l 2
 273 754 268 752 264 752 c 0
 255 752 247 760 247 769 c 0
 247 772 247 777 253 782 c 2
 381 886 l 2
 390 893 397 900 407 900 c 0
 418 900 431 887 431 873 c 0
 431 866 430 862 423 857 c 2
EndSplineSet
EndChar
StartChar: sacute
Encoding: 347 347 218
Width: 448
Flags: MW
HStem: -2 34<197 283.5 197 284.5> 468 31<216 293.5> 715 20G<328 338.5>
VStem: 84 33<352.5 411.5 351 431> 366 36
LayerCount: 2
Back
Fore
SplineSet
365 373 m 0
 365 378 367 382 367 394 c 0
 367 439 333 468 254 468 c 0
 173 468 117 438 117 385 c 0
 117 317 191 296 236 282 c 0
 329 252 401 230 401 134 c 0
 401 70 336 -2 233 -2 c 0
 112 -2 54 91 54 123 c 0
 54 132 62 141 71 141 c 0
 80 141 85 135 87 128 c 0
 107 69 161 32 233 32 c 0
 334 32 366 102 366 135 c 0
 366 188 341 217 236 249 c 0
 134 280 84 319 84 386 c 0
 84 476 181 499 251 499 c 0
 348 499 402 457 402 393 c 0
 402 369 396 355 383 355 c 0
 371 355 365 364 365 373 c 0
349 692 m 2
 206 594 l 2
 199 589 194 587 190 587 c 0
 181 587 173 595 173 604 c 0
 173 607 173 612 179 617 c 2
 307 721 l 2
 316 728 323 735 333 735 c 0
 344 735 357 722 357 708 c 0
 357 701 356 697 349 692 c 2
EndSplineSet
EndChar
StartChar: Scedilla
Encoding: 350 350 209
Width: 588
Flags: MW
HStem: -209 22<289.5 321 289.5 327.5> -64 23<295 317.5 282 321> 0 34<283 304 283 283> 650 32<277 362.5 271 363.5>
VStem: 100 40<487.5 569.5 487.5 578.5> 232 156<-176 -100.5> 365 23<-142 -108> 490 43<132.5 207.5>
LayerCount: 2
Back
Fore
SplineSet
270 1 m 1xfb
 174 14 96 64 66 138 c 0
 65 141 63 147 63 151 c 0
 63 162 73 171 84 171 c 0
 95 171 101 165 104 156 c 0
 132 76 227 34 303 34 c 0
 384 34 490 77 490 188 c 0
 490 227 478 295 308 341 c 0
 211 367 100 419 100 515 c 0
 100 642 215 682 327 682 c 0
 398 682 519 659 530 553 c 0
 530 543 524 534 513 534 c 0
 502 534 496 541 495 549 c 0
 487 619 403 650 324 650 c 0
 230 650 140 619 140 520 c 0
 140 455 202 410 315 379 c 0
 461 338 533 278 533 188 c 0
 533 61 406 0 304 0 c 2
 283 0 l 1
 282 -41 l 1
 353 -41 388 -78 388 -123 c 0
 388 -170 351 -209 304 -209 c 0
 273 -209 232 -189 232 -163 c 0xfd
 232 -157 237 -154 242 -154 c 0
 247 -154 250 -159 254 -164 c 0
 263 -174 275 -187 304 -187 c 0
 338 -187 365 -159 365 -125 c 0
 365 -91 338 -64 304 -64 c 0
 286 -64 275 -70 268 -75 c 0
 264 -78 261 -79 259 -79 c 0
 253 -79 248 -75 248 -69 c 0
 248 -65 267 -8 270 1 c 1xfb
EndSplineSet
EndChar
StartChar: scedilla
Encoding: 351 351 221
Width: 448
Flags: MW
HStem: -209 22<227.5 259 227.5 265.5> -64 23<233 255.5 220 259> -2 34<221 233 221 221> 468 31<216 293.5>
VStem: 84 33<352.5 411.5 351 431> 170 156<-176 -100.5> 303 23<-142 -108> 367 34
LayerCount: 2
Back
Fore
SplineSet
207 0 m 1xfb
 108 14 54 93 54 123 c 0
 54 132 62 141 71 141 c 0
 80 141 85 135 87 128 c 0
 107 69 161 32 233 32 c 0
 334 32 366 102 366 135 c 0
 366 188 341 217 236 249 c 0
 134 280 84 319 84 386 c 0
 84 476 181 499 251 499 c 0
 348 499 402 457 402 393 c 0
 402 369 396 355 383 355 c 0
 371 355 365 364 365 373 c 0
 365 378 367 382 367 394 c 0
 367 439 333 468 254 468 c 0
 173 468 117 438 117 385 c 0
 117 317 191 296 236 282 c 0
 329 252 401 230 401 134 c 0
 401 70 336 -2 233 -2 c 2
 221 -2 l 1
 220 -41 l 1
 291 -41 326 -78 326 -123 c 0
 326 -170 289 -209 242 -209 c 0
 211 -209 170 -189 170 -163 c 0xfd
 170 -157 175 -154 180 -154 c 0
 185 -154 188 -159 192 -164 c 0
 201 -174 213 -187 242 -187 c 0
 276 -187 303 -159 303 -125 c 0
 303 -91 276 -64 242 -64 c 0
 224 -64 213 -70 206 -75 c 0
 202 -78 199 -79 197 -79 c 0
 191 -79 186 -75 186 -69 c 0
 186 -65 204 -9 207 0 c 1xfb
EndSplineSet
EndChar
StartChar: Scaron
Encoding: 352 352 136
Width: 588
Flags: MW
HStem: 0 34<265 343.5 265 355> 650 32<277 362.5 271 363.5> 881 20G<203.5 210.5 459 466>
VStem: 100 40<487.5 569.5 487.5 578.5> 490 43<132.5 207.5>
LayerCount: 2
Back
Fore
SplineSet
324 752 m 0
 319 752 313 754 309 758 c 2
 197 871 l 2
 193 875 191 878 191 883 c 0
 191 892 199 901 208 901 c 0
 213 901 217 899 221 896 c 2
 326 801 l 1
 450 897 l 2
 453 899 457 901 461 901 c 0
 471 901 479 892 479 883 c 0
 479 878 476 873 472 870 c 2
 337 757 l 2
 333 754 328 752 324 752 c 0
315 379 m 0
 461 338 533 278 533 188 c 0
 533 61 406 0 304 0 c 0
 191 0 100 56 66 138 c 0
 65 141 63 147 63 151 c 0
 63 162 73 171 84 171 c 0
 95 171 101 165 104 156 c 0
 132 76 227 34 303 34 c 0
 384 34 490 77 490 188 c 0
 490 227 478 295 308 341 c 0
 211 367 100 419 100 515 c 0
 100 642 215 682 327 682 c 0
 398 682 519 659 530 553 c 0
 530 543 524 534 513 534 c 0
 502 534 496 541 495 549 c 0
 487 619 403 650 324 650 c 0
 230 650 140 619 140 520 c 0
 140 455 202 410 315 379 c 0
EndSplineSet
EndChar
StartChar: scaron
Encoding: 353 353 137
Width: 448
Flags: MW
HStem: -2 34<197 283.5 197 284.5> 468 31<216 293.5> 718 20G<142.5 149.5 398 405>
VStem: 84 33<352.5 411.5 351 431> 366 36
LayerCount: 2
Back
Fore
SplineSet
365 373 m 0
 365 378 367 382 367 394 c 0
 367 439 333 468 254 468 c 0
 173 468 117 438 117 385 c 0
 117 317 191 296 236 282 c 0
 329 252 401 230 401 134 c 0
 401 70 336 -2 233 -2 c 0
 112 -2 54 91 54 123 c 0
 54 132 62 141 71 141 c 0
 80 141 85 135 87 128 c 0
 107 69 161 32 233 32 c 0
 334 32 366 102 366 135 c 0
 366 188 341 217 236 249 c 0
 134 280 84 319 84 386 c 0
 84 476 181 499 251 499 c 0
 348 499 402 457 402 393 c 0
 402 369 396 355 383 355 c 0
 371 355 365 364 365 373 c 0
263 589 m 0
 258 589 252 591 248 595 c 2
 136 708 l 2
 132 712 130 715 130 720 c 0
 130 729 138 738 147 738 c 0
 152 738 156 736 160 733 c 2
 265 638 l 1
 389 734 l 2
 392 736 396 738 400 738 c 0
 410 738 418 729 418 720 c 0
 418 715 415 710 411 707 c 2
 276 594 l 2
 272 591 267 589 263 589 c 0
EndSplineSet
EndChar
StartChar: uni0162
Encoding: 354 354 241
Width: 512
Flags: MW
HStem: -204 21G<226.5 235.5> 0 21G<247.5 258> 644 37<25 490 30 234 271 490 271 271>
VStem: 234 37<19 644> 234 52
LayerCount: 2
Back
Fore
SplineSet
219 -184 m 2xe8
 246 -113 l 1
 237 -105 232 -94 232 -85 c 0
 232 -65 247 -49 263 -49 c 0
 276 -49 286 -61 286 -72 c 0
 286 -90 283 -97 268 -135 c 0
 252 -175 241 -204 230 -204 c 0
 223 -204 217 -199 217 -194 c 0
 217 -191 217 -189 219 -184 c 2xe8
30 681 m 2
 490 681 l 2
 500 681 509 673 509 662 c 0
 509 652 500 644 490 644 c 2
 271 644 l 1
 271 19 l 2xf0
 271 8 263 0 253 0 c 0
 242 0 234 8 234 19 c 2
 234 644 l 1
 30 644 l 2
 20 644 11 652 11 662 c 0
 11 673 20 681 30 681 c 2
EndSplineSet
EndChar
